<?xml version="1.0" encoding="utf-8"?>
<!-- Generator: Adobe Illustrator 23.0.6, SVG Export Plug-In . SVG Version: 6.00 Build 0)  -->
<svg version="1.1" id="Warstwa_1" xmlns="http://www.w3.org/2000/svg" xmlns:xlink="http://www.w3.org/1999/xlink" x="0px" y="0px"
	 viewBox="0 0 841.89 595.28" style="enable-background:new 0 0 841.89 595.28;" xml:space="preserve">
<style type="text/css">
	<!-- .st0{fill:#E0E0E0;}  changing to white color -->
	.st0{fill:#FFFFFF;}
</style>
<g>
	<g>
		<g>
			<path class="st0" d="M397.03,113.07c0.13,0.02,0.24-0.04,0.37-0.06C397.3,113.28,397.21,113.35,397.03,113.07z"/>
		</g>
		<g>
			<path class="st0" d="M400.21,110.94c-0.55,0.77-1.46,1.97-2.81,2.07C397.67,112.15,397.83,109.3,400.21,110.94z"/>
		</g>
		<g>
			<path class="st0" d="M393.36,110.18l1.39-0.38C394.91,110.85,393.96,109.87,393.36,110.18z"/>
		</g>
		<g>
			<polygon class="st0" points="395.68,111.57 396.44,112.32 395.27,112.15 			"/>
		</g>
		<g>
			<path class="st0" d="M370.13,167.54c0.44,0.15,0.9,0.34,1.41,0.75L370.13,167.54z"/>
		</g>
		<g>
			<path class="st0" d="M364.74,167.27c-0.27,0.11-0.42,0.23-0.53,0.33C364.23,167.43,364.39,167.35,364.74,167.27z"/>
		</g>
		<g>
			<path class="st0" d="M371.05,165.19l-0.13,0.5C370.86,165.47,370.9,165.28,371.05,165.19z"/>
		</g>
		<g>
			<path class="st0" d="M384.07,137.55c0.86,0.1,1.66,0.17,2.23,0.19C386.45,138.95,385.02,137.95,384.07,137.55z"/>
		</g>
		<g>
			<path class="st0" d="M345.43,169.8l0.64,0.56C345.68,170.26,345.34,170.13,345.43,169.8z"/>
		</g>
		<g>
			<path class="st0" d="M352.61,160.13c0.42,0.25,0.71,0.48,0.9,0.67c-0.09,0-0.15,0.02-0.24,0.02L352.61,160.13z"/>
		</g>
		<g>
			<path class="st0" d="M370.61,162.6c-0.02-0.02-0.04-0.04-0.05-0.08l0.64-0.04C371.21,162.76,371.01,162.78,370.61,162.6z"/>
		</g>
		<g>
			<path class="st0" d="M342.49,172.46c-0.48-0.11-1.06-0.29-1.79-0.59C341.21,171.75,341.99,172.06,342.49,172.46z"/>
		</g>
		<g>
			<path class="st0" d="M364.18,167.68l-0.04-0.02c0.02-0.02,0.05-0.04,0.07-0.04C364.19,167.64,364.18,167.64,364.18,167.68z"/>
		</g>
		<g>
			<path class="st0" d="M355.44,157.19c-0.24,0.1-0.42,0.21-0.69,0.31C354.71,157.17,355.04,157.11,355.44,157.19z"/>
		</g>
		<g>
			<path class="st0" d="M384.07,137.55c-0.24-0.02-0.48-0.06-0.73-0.08C383.45,137.32,383.73,137.4,384.07,137.55z"/>
		</g>
		<g>
			<path class="st0" d="M396.55,116.82c-0.22,0.31-0.73,0-1.26-0.34C395.66,116.49,396.06,116.59,396.55,116.82z"/>
		</g>
		<g>
			<path class="st0" d="M323.57,235.07l-0.11,0.11C323.46,235.11,323.52,235.07,323.57,235.07z"/>
		</g>
		<g>
			<path class="st0" d="M333.88,224.33c0.18,0.06,0.4,0.11,0.66,0.25C334.63,224.83,334.28,224.64,333.88,224.33z"/>
		</g>
		<g>
			<path class="st0" d="M324.91,200.96c0.48,1.51-2.1,0.84-2.65,1.44l1,0.38l-1.17,0.17l1.22,0.88c-1.32,0.73-1,3.06-3.22,2.05
				l2.03,1.3l-2.36,0.06l1.77,0.29c-0.51,1.65-3.42,2.56-3.6,2.85l0.8,0.42c0.22,0.5-0.37,0.31-0.77,0.36l1.19,0.63
				c-1.68,1.8,0.38,4.21-2.34,5.59c-0.18,0.8,0.58-0.08,1.19,0.38c0.6,0.98-0.75,1.15-1.35,0.96c1.79,1.11,1.96-0.23,2.78,1.51
				c-1.19-0.11,1.79,0.84,0.82,1.49l-2.39-1.28c0.02,0.78,1.61,1.38,0.82,2.03c-1.57,0.19-1.64-2.97-2.98-1.76
				c-0.37,0.84,3.84,5.36,1.7,5.9c0.24,2.09,3.76,1.93,2.01,3.22h2.16c0.4,0.75,1.59,1.4,0.62,1.8c-0.99-0.4-2.38-0.78-2.76-0.46
				c2.74-0.34,1.43,3.31,4.57,3.45l-0.48,0.5c0.13,0,0.35,0.13,0.48,0.31l-0.38,0.86c0.79-0.1,1.75-1.03,2.96,0.71l-0.38,1.38
				c1.37,0.63,1.59,1.42,2.58,2.11l4.53-1.42c-0.8-0.42-1.59-0.33-2.17-1.05c-0.02-1.34,1.77,0.31,1.37-1.26l-1.19-0.38
				c0.4,0.21,0.58,0.19,0.58,0.46c0.4,0.75-0.38,0.33-0.99-0.13c-1-1.21,0.38-1.4,1.37-1c0.58-1.15-2.01-1.88-2.21-2.39
				c2.38,1.01,1.17-1.76,2.56-1.68l-1.59-0.59c-1.02-1.99,0.77-1.7,1.55-1.82l-1.19-0.65c0.99-0.94-2.27-4.23,2.12-2.18l-0.79-0.42
				c-0.02-0.71-0.35-2.01,1.08-1.57c-0.44-0.34-0.95-0.84-0.95-1.13c1.64,0.86,0.84-0.44,1.04-1.32c-0.69,0.15-2.5-1.42-3.29-1.3
				c-1.26-2.49,2.78,0.67,3.34-0.23c-0.62-1.24-1.39-0.34-2.19-0.75c1.96-0.56-2.58-6.03,1.85-4.02l0.84,1.47
				c1.19,0.1,1.39-0.21,0.97-0.4c0,0.27-0.38,0.06-0.79-0.15c-0.9-3.06,4.51-0.44,4.82-2.66c-0.8-0.4-1.19-0.34-1.81-0.78
				c-0.26-1.3,4.24,1.99,3.54-0.33l-1-0.36c-0.24-0.77,1.17-0.19,1.39,0.04c-3.27-2.41,1.86-2.47-1.88-6.39
				c2.19,0.69,4.71-0.04,4.06-1.26c-1.52-2.16-2.61-0.88-4.29-2.47c0.37-0.59,2.39,0.38,2.3-0.96c1.86,1.28,2.63,4.36,4.75,3.45
				l-0.84-0.94c0.02,0.27,0.26,0.77-0.15,0.84c-1.41-0.29-1.06-1.15-1.48-1.61l1.7-1.4c2.06,1.24,0.91,1.99,1.33,2.45
				c0.49-1.7-1.32-5.4,0.82-5.82l-0.82-0.38c2.72-0.54-3.01-3.46,0.99-2.62c-0.07-1.05-2.27-1.19-1.75-2.35
				c0.18-0.31,0.82,0.38,1.04,0.59c1.52-0.84-1.53-1.86,1.04-1.82l-2.27-1.17c2.34-0.46,6.94,0.48,6.8-1.38
				c-1.68-1.01-1.99-0.13-3.42-0.65c3.97,0.27,2.83-3.83,5.35-4.34c1.11,1.38,3.69,1.38,4.24,3.14c-2.28-1.13-1.17,0.27-1.74,0.65
				c5.15,2.16-0.07-5.13,4.11-2.78l-1.5-1.3c0.38-0.08,1.99,0.11,2.25,0.86l-0.02-2.43c-1.61-0.19-5.23-0.77-3.69,0.78
				c-2.05-0.65-0.73-1.47-3-2.34c3.42,0.61-0.73-1.47,0.57-2.28c2.05,2.09,3.93,0.9,5.04,1.7c-0.2-0.69,1.41-0.84,2.41-0.65
				c0.64-0.56-0.35-3.39,1.13-3.96c-0.99-0.06-2.38-0.04-3.86-1.05c1.19,0.02,1.52-0.61-0.18-1.86c-4.37-0.13,3.67,3.25,0.55,3.66
				c-2.27-0.86-3.03-0.71-4.17-0.17c-0.91-1.17-1.52-1.3-2.8-2.37c4.9,1.65,2.12-2.62,5.06-2.72c1.61,0.19,3.98,2.37,5.26,1.3
				l0.58,2.03c-0.4-2.07,1.43,0.5,2.54-0.27l-1.63-0.46c0.13-0.82,0.51-0.92,1.72-0.63l-2.45-0.82c-0.05-0.52,0.07-1.36,1.33-0.56
				c-0.46-0.42-0.86-0.73-1.22-0.96c0.4,0.15,0.71,0.13,0.9-0.33c-0.38,0.08-0.37,0.34-0.99-0.06c1.44-1.24-2.08-1.88-1.3-2.72
				c-0.58-0.17-1.02-0.84-1.08-1.36c3.33,2.2,4.92,0.56,7.07,1.26l-0.05-0.02l2.12-0.42c-0.44,0.08-1.17-0.8-1.3-1.42l-0.02,0.08
				c-0.26-0.77-3.91-1.89-2.19-2.51h1.37c-0.18,0.04-0.62-0.42-0.84-0.65l1.32-0.08c-2.47-3.1,2.92-0.78,2.16-3.01
				c0.04,0.52-0.51,0.9-1.37,0c-0.24-0.5,0.35-0.59,0.95-0.44l-0.4-0.19l3.47-0.9c-1.22-0.57-2.1,0.65-3.01-0.78
				c-1.3-1.36,0.71-0.94,1.08-1.26c0.84,0.65,1.13,1.93,2.08,1.49c-0.37-0.38-0.8-1.72-1.64-1.82c1.37-0.17,2.63-0.94,4.59-0.57
				c-0.24-0.48-0.82-0.38-1-0.34l0.22,0.23c-0.77,0.13-2.27-1.47-1.94,0.08c-2.89-1.89,0.04-1.89,0.16-2.97l-2.76-0.06
				c-2.5-4.92,3.64-4.9,5.06-6.99c0.46,1.26-0.71,1.19,1.53,2.7c1.92-0.56,1.32-0.75,2.63-1.72l-0.18,0.02
				c-0.66-1.49,2.12-0.82,0.46-2.72c-1.39-0.59,0.48,1.78-1.96,0.02l1.3-1.51c-1.79-0.54-1.32,1.51-2.08,1.89
				c-0.16,0.56,0.95-0.67,2.39,0.71c-1.11,1.47-2.92,0.67-5.72-0.21c-1.99-0.75-1.28-1.95-1.1-2.24c3.2,0.84,5.32,0.27,5.23-2.11
				l-1.26-2.22c2.17,0.48,5.23,3.25,5.74,1.59l-1.59-0.57c-0.31-0.69-0.35-1.01-0.24-1.15c-1.39-0.15-2.94-0.36-4.33-0.59
				c-2.27-2.89,2.91-1.23,4.28-1.91c-0.4-0.21-0.79,0.1-1.57-0.33c0.55-2.2,5.08-1.44,6.43-2.39c-0.8-1.49-1.55,0.46-3.16-1.21
				c1.17-0.15,0.16-2.16,1.94-1.03c-2.58-1.55,0.95-1.72-2.19-2.14c0.75-3.29,4.93-4.27,8.06-5.65c-0.79-0.46-1.37-0.92-1.77-1.42
				c-0.58,0.86-2.16,1.55-4.13,0.71c-0.79-1.51,2.56-0.02,1.97-0.75c-0.79-0.19-1.19,0.38-2.36-0.56c-0.79-1.8,1.37-0.69,1.97-1.01
				l0.38,0.77c2.76-0.29,4.7,2.45,5.3,0.27c-0.95-1.76-1.17-0.96-2.92-2.39c0.99,0.17,0.04-2.64,2.19-1.51l-0.62,1.13
				c1.02-0.29,1.52-0.96,2.5-0.94c-0.42-0.27-0.82-0.54-1.1-0.52c0.99-0.08,1.39-0.92,2.76-0.23l-1.74-1.72
				c0.57,1.01-0.04,2.12-1.21,1.44c-1.55-1.45,0.22-1.61,0.44-2.16c-1.99,1.49-4.92-0.88-4.97,1.76l0.79,0.19
				c0.62,2.18-2.5,1.32-3.12,2.3c-0.2-0.57-0.84-1.19-1.24-1.32c-0.04,3.22-2.59,4.31-3.4,7.33l-2.38-0.78l1.39,1.17
				c-0.18,1.65-2.17-1.34-2.56-0.48c0.2-0.29,0.4-0.06,0.79,0.17c-2.56,0.06,0.8,1.78-0.18,2.18c1.77,0.84,1.57-1.01,3.34,0.92
				c-2.56,0.06-3.11,2.81-6.71,0.34c-0.38,3.52-4.66,5-6.4,6.91c0.42,0.75,0.6,0.17,1.02,0.65c-2.59-0.65-0.48,3.85-2.3,2.53
				c0.22,0.77,1.46,1.91,1.88,2.39c-1.22-0.1-2.08,0.25-2.78,0.77l0.84-0.13l0.22,0.23l-1.19,0.21l-0.09-0.11
				c-1.64,1.36-2.5,3.64-5.48,3.85c1.77-0.08,2.08,1.78,3.09,1.86c-3.44-1.24-4.71,0.65-5.39,2.41c0.62,0.42,1.04,0.88,1.66,1.03
				l-1.79,0.08l0.82,0.38c-0.48,1.99-4.84,1.55-4.09,3.56c0.75-0.44,1.39-0.02,2.43,0.59c-0.79,1.11-1.48,2.18-3.22,2.95
				c0.22,0.06,0.48,0.13,0.69,0.29c0.04,0.54-0.95,0.48-1.53,0.59l1.48,1.03c-1.11,0.25-0.88,1.65-2.56,1.68
				c1.46,1.4-2.72,1-2.59,2.41c-0.58,0.13,2.21,0.33,1.52,1.3c-3.36-1.97-0.86,1.26-4.44-0.94l0.77,1.72l-1.88-0.94
				c2.85,2.89-2.16,0.19-1.77,2.01c0.42,0.19,0.6,0.15,0.82,0.36c-0.58,0.13-1.3,0.82-1.83-0.42c-0.35,0.61-2.36,2.12,0.04,2.41
				c-1.04-0.59,0.31-0.86,0.88-1c1.48,1.03,0.35,1.55,1.86,2.83c-0.18-0.08-0.51-0.13-0.8-0.21l0.86,0.73
				c-2.32,0.04-1.81,1.95-4.44,1.38c0.44,0.34,0.68,0.78,0.35,1.09l-1.9-1.23l-0.66,1.21l3.07,1.24c-0.22,1.67-3.89,0.54-4.99,1.28
				c2.98,2.35-2.43,1.28-0.2,4.04l1.35-0.27c-1.64,1.38,0.09,2.95-1.99,3.87c-0.18-2.09,0.44-1.68-0.9-5.42
				c0.09,2.93-3.89,2.34-3.22,5.4c0.82,0.38,1.59,0.23,2.06,1.21c-1.83-0.73-1.02,1.78-2.72,0.23c0.27,1.01,1.97,2.3,2.01,2.83
				l-3.49,0.36l0.4,0.19c2.23,6.24-6.72,4.04-6.98,8.54l1.02,0.63l-1.97-0.23c1.37,0.06,1.04,1.15,1.86,1.82l-3.49,0.52
				C322.93,200.44,324.96,201.75,324.91,200.96z M343.05,173.8l0.44-0.42c-0.04-0.17,0-0.29,0.27-0.27l-0.27,0.27
				C343.6,173.8,344.28,174.51,343.05,173.8z M376.25,128.94c1,0.4,0.02,0.54,0.02,0.8l0.79-0.63
				C376.66,128.61,376.45,128.92,376.25,128.94z M355.26,181.73l1.1,1.11l-1.21-0.29L355.26,181.73z M350.98,189.11l1.17-0.25
				l0.22,0.23l-1.17,0.23L350.98,189.11z M335.98,190.3c0.11,0,0.18,0,0.33,0.04C336.24,190.34,336.13,190.32,335.98,190.3
				c-1.24-0.08,0.86,1.68-1.57,0.65C332.89,189.11,335.03,190.09,335.98,190.3z M343.64,177.71c0.38-0.08,0.58-0.11,0.55-0.38
				c-0.82-0.36-2.23-0.61-2.28-1.13c1.02,0.33,1.74-0.36,3,0.46C343.13,176.46,346.36,179.29,343.64,177.71z M354.67,161.03
				l0.02,0.27l1.39-0.04L354.67,161.03z M357.82,158.74c1.85,0.69,2.14-0.46,2.91-0.88c-1.28-1.09-3.29-1.47-3.62-0.59
				C355.33,157.38,359.04,159.02,357.82,158.74z M342.72,184.85l1.22,0.56l0.04,0.27l1.15-0.23c0.97,1.97-2.28,0.73-3.07,0.88
				C342.45,185.97,345.85,186.64,342.72,184.85z M362.68,152.59c1.39,0,3.34-0.38,4.39,0.5c-2.08-1.49-3.65-1.19-3.82-0.88
				C363.26,152.48,363.06,152.52,362.68,152.59z M366.64,155.31c-1.57,0.31-2.58-0.29-5.01-0.88c-0.31-1.57,2.58,0.02,3.62,0.88
				c1.39,0-0.05-0.8-0.09-1.32L366.64,155.31z M360.08,152.31l0.05,0.59c0.6,1.05,2.94,2.78,0.15,1.82l-0.15-1.82
				C359.97,152.65,359.94,152.44,360.08,152.31z M365.27,144.25l-0.97-0.11C364.63,143.81,364.96,143.98,365.27,144.25l0.82,0.1
				C366.31,145.74,365.86,144.78,365.27,144.25z M361.96,150.83l-0.93,1C362.07,152.44,361.98,151.39,361.96,150.83z M366.97,145.82
				c-0.18,0.57-0.66,2.03-0.69,1.76C365.24,146.68,366.17,145.68,366.97,145.82z M386.49,123.65l-0.6,0.59l-1.19-1.45L386.49,123.65
				z M381.84,132.48l-0.6-0.73l0.38-0.31L381.84,132.48z M376.84,140c-0.29-0.27-0.69-0.54-1.08-0.73c-0.2,0.02-0.46-0.02-0.8-0.19
				c0.07-0.11,0.4,0,0.8,0.19c0.53-0.06,0.66-0.63,0.35-1.17c-0.8-0.42-0.99,0.15-1.59-0.02c-1.24-1.97,4.95,0.33-0.29-2.91
				c0.79,0.15,2.76,0.11,3.38,1.11C376.8,136.84,376.31,138.74,376.84,140c0.24,0.23,0.4,0.44,0.35,0.61
				C377.02,140.44,376.91,140.23,376.84,140z M371.25,150.97c-0.31,0.21-0.53,0.23-0.73,0.17c-0.53-0.02-1.21-0.21-1.86-0.77
				c0.99-0.19,1.32,0.59,1.86,0.77C370.83,151.12,371.1,151.08,371.25,150.97z M370.41,152.99l1.55-0.29l-1.39-0.29h2.94
				C374.01,153.95,371.85,153.8,370.41,152.99z M371.17,153.99l-1.33-0.63l1.43,0.56L371.17,153.99l0.31,0.15l-1.68,1.11
				L371.17,153.99z M358.77,168.82c3.89,3.37,3.86,0.52,6.1,1.55c-1.37-1-3.22-3.04-4.11-1.44c-0.62-2.3,3.25,0.94,0.18-2.2
				c-0.13,0.82-1.7,0.9-1.88,0.94l0.31-0.86C356.46,165.53,359.94,168.84,358.77,168.82z M354.47,177.57l-0.69,0.96l0.91-0.73
				L354.47,177.57z M340.37,203.24c1.02,0.61,1.96,3.16-0.07,2.16C340.44,204.56,340.99,203.93,340.37,203.24z M333.2,213.54
				l1.55-0.52c2.05,1.82-0.75,0.92-0.71,1.72C332.84,214.13,333.82,214.25,333.2,213.54z M328.32,220.66l-0.58,0.08l2.39,1.26
				L328.32,220.66z M331.52,222.34c0.82,0.96,1.79,0.54,1.79,0.27L331.52,222.34z M328.93,230.19l0.18-0.56l-2.19-1.05
				L328.93,230.19z M327.21,227.76c1.44,0.94,3.25,2.41,3.07,0.65c-1.41-1.15-1.59-0.86-3.01-2.53c-0.58,0.08-0.18,0.82-0.18,1.09
				c0.4-0.06-0.02-0.8,0.99-0.13C328.34,227.64,327.89,227.91,327.21,227.76c-0.51-0.34-0.99-0.61-1.3-0.63
				C326.35,227.45,326.81,227.66,327.21,227.76z M328.36,222.82c-0.07-0.27-0.18-0.54-0.38-0.77l0.4,0.21
				C328.89,222.88,328.67,222.88,328.36,222.82c0.09,0.29,0.13,0.59,0.16,0.9c1.13,1.03,2.45,0.96,3.27,1.26
				c-0.58,0.08-1.97-0.52-1.55,0.5c0.4,0.21,0.6,0.46,0.79,0.15l-0.16,0.82c-2.19-0.57-2.23-1.65-2.32-2.76
				c-0.26-0.23-0.49-0.5-0.71-0.84C327.7,222.63,328.07,222.76,328.36,222.82z M322.15,225.73l0.58-0.08c0.6,0.19,1,0.67,1.39,0.88
				C323.74,226.86,322.55,226.74,322.15,225.73z M335.73,204.83c0.22,0.5,2.03,1.01,1.99,0.21l1.66,1.59
				c-1.22-0.86-1.75,0.29-1.96,0.33C335.6,205.92,336.58,206.03,335.73,204.83z M350.98,180.19c2.5,1.36,1.88-0.94,2.69-0.84
				C353.76,180.42,353.36,182.4,350.98,180.19z M351.42,177.21c0.26-0.34,0.09-0.61,1.26,0.21c0.6,0.15,0.15-0.57,0.75-0.42
				C354.05,178.39,352.17,177.11,351.42,177.21c-0.07,0.1-0.15,0.19-0.31,0.29C351.13,177.28,351.26,177.23,351.42,177.21z
				 M342.5,191.58l-2.03-0.69l-0.33,0.86L342.5,191.58z M334.3,197.59c1.02,0.63,0.49,1.51-0.11,1.36c1.33,0.86,1.53,0.15,1.96-0.21
				c0.15,0.02,0.27-0.04,0.37-0.19c-0.15,0.02-0.26,0.1-0.37,0.19c-0.42-0.04-1-0.63-1.44-0.94l-0.24-0.5l-0.77,0.38L334.3,197.59z
				 M323.65,210.67c0.64,1.24,0.24,1.03-0.35,1.11C322.88,211.3,323.06,210.74,323.65,210.67z M335.91,192.54
				c0.09,1.32,2.23,0.94,2.5,1.95l0.16-0.56c0.91,1.7-1.81-0.5-1.75,0.31l-0.04-0.52c-1.08-1.13-1.19-0.06-2.21-0.67
				C334.32,192.27,335.87,192,335.91,192.54z M322.28,210.86c0.66,1.76-1.77-0.29-2.34,0.06
				C319.28,209.4,321.51,211.22,322.28,210.86z M328.65,195.35l-0.2-0.23l-1.15,0.19l0.22,0.23L328.65,195.35z"/>
		</g>
		<g>
			<path class="st0" d="M334.25,221.4c0.02,0.33-0.11,0.44-0.29,0.5C334.01,221.69,334.08,221.52,334.25,221.4z"/>
		</g>
		<g>
			<path class="st0" d="M361.71,180.88c-0.33-0.25-0.46-0.44-0.51-0.61C361.4,180.4,361.56,180.6,361.71,180.88z"/>
		</g>
		<g>
			<path class="st0" d="M363.57,179.66c0.02-0.02,0.02-0.04,0.05-0.06l0.15,0.02L363.57,179.66z"/>
		</g>
		<g>
			<path class="st0" d="M397.72,118.58c1.75,0.9,0,0.54-0.22,0.8C397.71,119.1,396.74,118.12,397.72,118.58z"/>
		</g>
		<g>
			<path class="st0" d="M393.58,118.66c0.57,0.21,1.04,0.23,1.39,0.04C394.87,118.92,394.58,118.98,393.58,118.66z"/>
		</g>
		<g>
			<path class="st0" d="M395.57,117.43c-0.02,0.69-0.24,1.09-0.6,1.28C395.11,118.37,394.73,117.66,395.57,117.43z"/>
		</g>
		<g>
			<path class="st0" d="M389.63,124.9c1.19,0.4,1.17-0.65,1.17-0.65c-0.2,2.14,1.97,1.13,2.74,1.57
				C392.57,126.45,391.4,125.51,389.63,124.9z"/>
		</g>
		<g>
			<path class="st0" d="M387.75,126.43c0.09-0.15,0.16-0.33,0.11-0.56C387.98,126.22,387.91,126.37,387.75,126.43z"/>
		</g>
		<g>
			<path class="st0" d="M388.26,127.69c-0.58,0.33-1.77-0.34-2.76-0.75c-0.31-1.21,1.66-0.27,2.25-0.5
				C387.51,126.81,387.13,127.06,388.26,127.69z"/>
		</g>
		<g>
			<path class="st0" d="M382.59,147.23c0.2-0.04,0.38-0.33,0.99,0.11l-0.55,0.86C382.45,148.31,382.59,147.48,382.59,147.23z"/>
		</g>
		<g>
			<path class="st0" d="M377.57,148.29c-0.55,0.63,1.26,1.4,0.68,1.47l-2.06-1.53L377.57,148.29z"/>
		</g>
		<g>
			<path class="st0" d="M367.3,140.34l0.35-0.06c-0.07,0.06-0.15,0.11-0.24,0.19L367.3,140.34z"/>
		</g>
		<g>
			<path class="st0" d="M377.48,153.07l2.63,1.15C379.14,154.39,377.29,153.09,377.48,153.07z"/>
		</g>
		<g>
			<polygon class="st0" points="377.39,156.8 378.35,156.9 376.86,157.7 			"/>
		</g>
		<g>
			<polygon class="st0" points="374.24,159.23 374.66,159.69 373.53,160.15 			"/>
		</g>
		<g>
			<path class="st0" d="M350.78,193.75c-2.08-1.21-0.35-2.09-0.62-2.85C352.48,192.87,348.61,191.47,350.78,193.75z"/>
		</g>
		<g>
			<path class="st0" d="M334.19,219.53l1.35-1C335.6,220.12,335.36,218.82,334.19,219.53z"/>
		</g>
	</g>
	<g>
		<g>
			<path class="st0" d="M475.42,225.02c-0.05,0.11-0.04,0.25-0.07,0.36C475.14,225.23,475.09,225.12,475.42,225.02z"/>
		</g>
		<g>
			<path class="st0" d="M476.3,228.68c-0.51-0.75-1.28-1.95-0.95-3.29C476.02,225.9,478.52,226.84,476.3,228.68z"/>
		</g>
		<g>
			<path class="st0" d="M479.16,222.23l-0.09,1.45C478.07,223.57,479.26,222.9,479.16,222.23z"/>
		</g>
		<g>
			<polygon class="st0" points="477.17,224.12 476.28,224.66 476.79,223.57 			"/>
		</g>
		<g>
			<path class="st0" d="M434.23,185.8c-0.26,0.4-0.57,0.82-1.06,1.23L434.23,185.8z"/>
		</g>
		<g>
			<path class="st0" d="M435.93,180.48c-0.04-0.29-0.09-0.46-0.15-0.61C435.95,179.95,435.95,180.12,435.93,180.48z"/>
		</g>
		<g>
			<path class="st0" d="M436.13,187.26l-0.42-0.23C435.91,187.03,436.08,187.08,436.13,187.26z"/>
		</g>
		<g>
			<path class="st0" d="M457.47,206.23c-0.31,0.82-0.6,1.59-0.8,2.14C455.57,208.22,456.83,207.07,457.47,206.23z"/>
		</g>
		<g>
			<path class="st0" d="M439.38,160.9l-0.69,0.5C438.89,161.03,439.13,160.75,439.38,160.9z"/>
		</g>
		<g>
			<path class="st0" d="M445.69,170.09c-0.35,0.34-0.62,0.59-0.84,0.75c0.02-0.08,0.02-0.15,0.05-0.25L445.69,170.09z"/>
		</g>
		<g>
			<path class="st0" d="M438.58,187.39c0.04-0.02,0.05-0.04,0.09-0.04l-0.13,0.65C438.27,187.97,438.31,187.77,438.58,187.39z"/>
		</g>
		<g>
			<path class="st0" d="M438.01,157.42c0.26-0.44,0.6-0.94,1.11-1.57C439.04,156.36,438.53,157.03,438.01,157.42z"/>
		</g>
		<g>
			<path class="st0" d="M435.73,179.83l0.02-0.04c0.02,0.02,0.02,0.06,0.02,0.08C435.75,179.87,435.77,179.83,435.73,179.83z"/>
		</g>
		<g>
			<path class="st0" d="M447.5,173.51c-0.02-0.25-0.07-0.46-0.07-0.75C447.74,172.82,447.7,173.15,447.5,173.51z"/>
		</g>
		<g>
			<path class="st0" d="M457.47,206.23c0.09-0.23,0.18-0.46,0.27-0.71C457.84,205.67,457.71,205.92,457.47,206.23z"/>
		</g>
		<g>
			<path class="st0" d="M472.22,223.55c-0.2-0.31,0.24-0.73,0.69-1.13C472.8,222.76,472.6,223.13,472.22,223.55z"/>
		</g>
		<g>
			<path class="st0" d="M391.55,119.02l-0.05-0.13C391.57,118.91,391.57,118.96,391.55,119.02z"/>
		</g>
		<g>
			<path class="st0" d="M396.43,132.72c-0.13,0.15-0.27,0.33-0.48,0.52C395.7,133.26,396.01,132.99,396.43,132.72z"/>
		</g>
		<g>
			<path class="st0" d="M420.11,132.57c-1.48-0.06,0.13-2.22-0.16-2.93l-0.73,0.8l0.33-1.13l-1.24,0.84
				c-0.11-1.44-2.16-2.01-0.4-3.69l-1.94,1.44l0.91-2.2l-0.97,1.55c-1.19-1.05-0.77-4.06-0.95-4.33l-0.69,0.59
				c-0.51,0.02-0.11-0.46,0-0.84l-1.04,0.88c-0.82-2.18-3.76-1.13-3.76-4.17c-0.6-0.46-0.18,0.57-0.82,0.98
				c-1.1,0.21-0.66-1.13-0.24-1.61c-1.7,1.26-0.62,1.89-2.47,2.03c0.6-1.05-1.46,1.36-1.61,0.21l2.1-1.74
				c-0.68-0.27-1.86,0.98-2.06,0.02c0.51-1.53,3.22-0.42,2.76-2.11c-0.55-0.65-6.19,1.57-5.74-0.61c-1.88-0.56-3.25,2.76-3.6,0.67
				l-0.91,2.01c-0.82,0.1-1.88,0.94-1.79-0.11c0.77-0.77,1.66-1.89,1.57-2.37c-0.88,2.66-3.44,0.06-4.88,2.91l-0.22-0.63
				c-0.05,0.11-0.27,0.27-0.46,0.33l-0.57-0.69c-0.26,0.77,0.15,2.03-1.85,2.47l-1.04-0.88c-1.13,1.03-1.88,0.92-2.89,1.59
				l-0.69,4.79c0.69-0.57,0.95-1.36,1.83-1.63c1.15,0.5-1,1.55,0.51,1.76l0.82-0.96c-0.35,0.29-0.42,0.48-0.64,0.38
				c-0.82,0.1-0.11-0.5,0.53-0.86c1.46-0.46,1.04,0.88,0.27,1.67c0.75,1,2.45-1.15,2.98-1.15c-1.88,1.84,1.02,1.78,0.38,3.04
				l1.17-1.26c2.14-0.19,1.13,1.38,0.9,2.14l1.04-0.88c0.4,1.28,4.53-0.52,0.97,2.83l0.69-0.59c0.62,0.25,1.88,0.4,0.93,1.61
				c0.48-0.29,1.11-0.57,1.37-0.48c-1.43,1.23,0.04,0.96,0.71,1.45c0.15-0.71,2.25-1.82,2.47-2.6c2.67-0.27-1.7,2.35-1.17,3.22
				c1.33-0.13,0.86-1.19,1.53-1.78c-0.31,2.05,6.21-0.23,2.7,3.2l-1.61,0.25c-0.55,1.09-0.38,1.38-0.04,1.07
				c-0.24-0.1,0.11-0.38,0.46-0.69c2.98,0.27-1.46,4.44,0.37,5.53c0.68-0.61,0.77-1.01,1.39-1.44c1.22,0.21-3.38,3.31-1.1,3.46
				l0.71-0.82c0.77,0.04-0.29,1.19-0.57,1.3c3.36-2.28,1.43,2.66,6.27,0.44c-1.48,1.88-1.81,4.54-0.46,4.31
				c2.45-0.73,1.74-2.2,3.76-3.27c0.38,0.54-1.22,2.14-0.04,2.51c-1.81,1.36-4.82,1.05-4.79,3.39l1.13-0.5
				c-0.24-0.08-0.77-0.02-0.68-0.42c0.77-1.24,1.41-0.61,1.97-0.88l0.58,2.09c-1.85,1.57-2.08,0.21-2.63,0.46
				c1.33,1.05,5.23,0.54,4.79,2.74l0.64-0.67c-0.51,2.81,4.11-1.82,1.96,1.8c0.97,0.25,1.85-1.82,2.69-0.98
				c0.2,0.27-0.62,0.67-0.9,0.82c0.2,1.72,2.16-0.92,1.24,1.57l1.81-1.84c-0.42,2.37-2.87,6.64-1.13,7.02
				c1.44-1.34,0.77-1.89,1.72-3.12c-1.55,3.77,2.47,3.85,2.1,6.47c-1.59,0.69-2.41,3.23-4.17,3.25c1.74-1.91,0.15-1.23-0.02-1.89
				c-3.56,4.44,4.59,1.47,1.19,4.88l1.63-1.11c-0.04,0.4-0.71,1.93-1.48,1.99l2.21,0.65c0.66-1.55,2.28-4.94,0.4-3.87
				c1.21-1.82,1.53-0.33,3.01-2.3c-1.61,3.2,1.53-0.33,1.86,1.17c-2.5,1.45-1.99,3.64-3.05,4.54c0.68-0.02,0.33,1.65-0.13,2.58
				c0.31,0.8,3.16,0.56,3.25,2.18c0.33-0.98,0.71-2.35,2.06-3.56c-0.35,1.17,0.11,1.67,1.72,0.29c1.39-4.29-3.98,2.83-3.45-0.36
				c1.43-2.01,1.52-2.83,1.41-4.08c1.3-0.59,1.61-1.15,2.96-2.14c-2.96,4.42,1.7,2.72,0.91,5.67c-0.64,1.53-3.27,3.37-2.67,4.92
				l-1.99,0.08c1.97,0.13-0.86,1.3-0.48,2.6l0.88-1.51c0.71,0.33,0.69,0.75,0.09,1.88l1.43-2.24c0.49,0.08,1.21,0.4,0.13,1.47
				c0.51-0.36,0.9-0.67,1.21-0.98c-0.26,0.34-0.33,0.69,0.04,0.98c0.04-0.4-0.22-0.44,0.33-0.98c0.73,1.72,2.25-1.63,2.8-0.65
				c0.31-0.54,1.04-0.82,1.52-0.75c-2.91,2.79-1.85,4.77-3.05,6.76l0.04-0.04l-0.18,2.22c0.04-0.46,1.04-0.98,1.63-0.96l-0.05-0.04
				c0.75-0.1,2.76-3.48,2.85-1.63l-0.37,1.38c0.02-0.19,0.53-0.54,0.8-0.69l-0.27,1.32c3.45-1.78-0.07,3.1,2.14,2.81
				c-0.49-0.08-0.68-0.71,0.37-1.38c0.51-0.13,0.46,0.48,0.16,1.03l0.27-0.36l-0.09,3.64c0.84-1.09-0.02-2.24,1.5-2.83
				c1.57-1,0.66,0.92,0.86,1.36c-0.8,0.69-2.03,0.71-1.88,1.74c0.44-0.29,1.77-0.44,2.06-1.24c-0.2,1.42,0.15,2.81-0.71,4.69
				c0.49-0.13,0.57-0.73,0.58-0.92l-0.26,0.15c0.07-0.8,1.92-1.93,0.44-1.95c2.47-2.47,1.68,0.46,2.63,0.8l0.77-2.72
				c5.12-1.45,3.44,4.67,4.93,6.55c-1.26,0.19-0.88-0.96-2.83,0.94c-0.02,2.03,0.31,1.47,0.84,2.97l0.02-0.19
				c1.52-0.33,0.15,2.28,2.28,1.05c0.91-1.24-1.72,0.08,0.53-1.95l0.99,1.63c0.99-1.65-0.99-1.63-1.11-2.47
				c-0.44-0.29,0.33,1.09-1.3,2.22c-1-1.44,0.16-3.02,1.72-5.61c1.21-1.82,2.08-0.84,2.32-0.59c-1.59,2.97-1.7,5.23,0.48,5.65
				l2.34-0.75c-1.04,2.05-4.37,4.42-3.01,5.3l0.97-1.44c0.69-0.15,1-0.11,1.1,0.02c0.53-1.32,1.15-2.81,1.74-4.13
				c3.22-1.55,0.33,3.14,0.55,4.65c0.29-0.34,0.13-0.8,0.73-1.49c1.81,1.07-0.16,5.36,0.29,6.91c1.57-0.44,0.04-1.65,1.99-2.81
				c-0.2,1.19,1.88,0.67,0.37,2.16c2.14-2.14,1.26,1.34,2.56-1.63c2.78,1.53,2.36,5.91,2.65,9.3c0.64-0.65,1.24-1.09,1.81-1.36
				c-0.58-0.8-0.73-2.51,0.62-4.23c1.59-0.38-0.75,2.51,0.07,2.12c0.4-0.73,0-1.26,1.21-2.16c1.85-0.31,0.2,1.53,0.31,2.2l-0.8,0.19
				c-0.58,2.76-3.62,3.96-1.85,5.09c1.86-0.48,1.21-0.88,3.03-2.22c-0.48,0.92,2.34,0.75,0.66,2.56l-0.8-0.9
				c-0.05,1.07,0.37,1.74,0.04,2.68c0.37-0.33,0.75-0.65,0.8-0.92c-0.24,0.98,0.38,1.61-0.68,2.76l2.08-1.23
				c-1.1,0.27-1.88-0.61-0.9-1.57c1.79-1.13,1.37,0.65,1.79,1.01c-0.71-2.35,2.34-4.57-0.02-5.34l-0.42,0.73
				c-2.14,0.02-0.42-2.79-1.11-3.66c0.57-0.04,1.32-0.52,1.55-0.88c-2.89-0.88-3.09-3.69-5.57-5.26l1.39-2.14l-1.46,1.07
				c-1.43-0.59,1.83-1.82,1.17-2.41c0.2,0.27-0.07,0.4-0.38,0.75c0.68-2.55-1.85,0.34-1.92-0.73c-1.26,1.55,0.46,1.8-1.79,3.08
				c0.69-2.53-1.64-3.75,1.61-6.72c-3.05-1.26-3.25-5.82-4.49-8.02c-0.79,0.25-0.33,0.56-0.86,0.86c1.3-2.45-3.36-1.38-1.68-2.89
				c-0.77,0.06-2.12,1.03-2.65,1.34c0.4-1.21,0.33-2.12,0.05-2.95l-0.09,0.86l-0.27,0.15l0.13-1.23l0.13-0.08
				c-0.79-1.95-2.63-3.31-2.05-6.3c-0.4,1.78-2.16,1.68-2.49,2.66c2.03-3.16,0.66-4.84-0.77-5.91c-0.53,0.54-1.06,0.86-1.35,1.44
				l0.4-1.78l-0.57,0.73c-1.66-0.86-0.09-5.13-2.1-4.82c0.18,0.84-0.37,1.38-1.17,2.28c-0.79-1.01-1.57-1.95-1.77-3.81
				c-0.11,0.21-0.26,0.42-0.44,0.63c-0.48-0.06-0.15-1.03-0.11-1.65l-1.33,1.23c0.09-1.15-1.22-1.23-0.77-2.91
				c-1.66,1.13-0.13-2.91-1.39-3.08c0.05-0.59-0.93,2.09-1.59,1.19c2.74-2.85-0.86-1.15,2.14-4.13l-1.74,0.34l1.39-1.61
				c-3.4,2.12,0.48-2.14-1.22-2.18c-0.29,0.36-0.31,0.56-0.57,0.73c0.07-0.59-0.29-1.45,0.93-1.67c-0.42-0.46-1.06-2.76-2.08-0.52
				c0.84-0.88,0.66,0.5,0.57,1.09c-1.35,1.21-1.44-0.02-3.05,1.15c0.13-0.15,0.27-0.46,0.44-0.75l-0.91,0.65
				c0.71-2.26-1.13-2.22,0.24-4.61c-0.46,0.34-0.91,0.46-1.08,0.08l1.68-1.53l-0.82-0.94l-2.1,2.64c-1.35-0.65,0.88-3.89,0.6-5.13
				c-3.05,2.24-0.26-2.64-3.42-1.23l-0.24,1.36c-0.64-1.91-2.56-0.73-2.59-2.97c1.86,0.38,1.26,0.94,4.95,0.63
				c-2.56-0.69-0.55-4.33-3.44-4.52c-0.62,0.67-0.79,1.44-1.79,1.61c1.3-1.53-1.17-1.47,0.8-2.64c-0.97-0.02-2.7,1.21-3.18,1.09
				c0.31-1.13,0.66-2.28,1.02-3.41l-0.33,0.33c-3.07,0.13-3.33-1.8-3.22-3.9c0.07-2.09,0.51-4.42-1.32-5.28l-0.95,0.75l0.99-1.76
				c-0.6,1.26-1.41,0.61-2.3,1.15l0.95-3.41C421.35,130.89,419.43,132.34,420.11,132.57z M436.66,157.65l0.22,0.52
				c0.16,0,0.26,0.08,0.15,0.33l-0.15-0.33C436.5,158.16,435.64,158.64,436.66,157.65z M467.4,200.5c-0.64,0.9-0.49-0.11-0.71-0.17
				l0.35,0.94C467.58,200.98,467.36,200.71,467.4,200.5z M425.77,167.45l-1.33,0.77l0.64-1.11L425.77,167.45z M420.62,161.13
				l-0.16,1.21l-0.27,0.13l0.18-1.21L420.62,161.13z M424.93,146.35c-0.04,0.1-0.07,0.17-0.15,0.31
				C424.79,146.6,424.84,146.49,424.93,146.35c0.53-1.15-1.75,0.29,0.05-1.7C427.11,143.79,425.46,145.51,424.93,146.35z
				 M433.12,157.21c-0.05,0.4-0.09,0.59,0.15,0.63c0.6-0.71,1.28-1.99,1.75-1.89c-0.62,0.9-0.29,1.76-1.41,2.78
				C434.34,157.03,430.81,159.41,433.12,157.21z M444.3,171.93l-0.26-0.04l-0.37,1.38L444.3,171.93z M445.47,175.54
				c-1.11,1.67-0.18,2.2,0,3.06c1.32-1.03,2.21-2.95,1.52-3.45C447.37,173.38,444.88,176.69,445.47,175.54z M427.2,154.39
				l-0.91,1.01l-0.24-0.06l-0.22,1.19c-2.03,0.34,0.18-2.45,0.33-3.23C426.34,153.78,424.55,156.86,427.2,154.39z M449.67,181.69
				c-0.37,1.38-0.53,3.39-1.59,4.25c1.88-1.76,2.03-3.39,1.79-3.62C449.62,182.28,449.64,182.09,449.67,181.69z M446.16,185.04
				c0.13-1.61,0.95-2.51,2.12-4.79c1.48,0.02-0.69,2.55-1.75,3.41c-0.37,1.38,0.73,0.11,1.22,0.17L446.16,185.04z M450.6,179.16
				l-0.55-0.08c-1.11,0.36-3.27,2.34-1.66-0.25l1.66,0.25C450.33,179.01,450.53,179.01,450.6,179.16z M456.49,186.07l0.35-0.94
				C457.07,185.52,456.82,185.82,456.49,186.07l-0.31,0.78C454.88,186.78,455.85,186.53,456.49,186.07z M451.43,181.34l-0.66-1.13
				C449.96,181.11,450.93,181.27,451.43,181.34z M454.64,187.43c-0.48-0.29-1.64-1.09-1.41-1.05
				C454.31,185.52,454.95,186.66,454.64,187.43z M469.22,211.93l-0.35-0.75l1.66-0.78L469.22,211.93z M462.65,205.21l0.82-0.42
				l0.16,0.46L462.65,205.21z M457.27,198.51c0.33-0.23,0.68-0.57,0.95-0.92c0.04-0.21,0.15-0.46,0.38-0.75
				c0.07,0.1-0.11,0.4-0.38,0.75c-0.09,0.54,0.4,0.8,0.95,0.61c0.58-0.71,0.13-1.01,0.46-1.57c2.1-0.78-1.64,4.84,2.7,0.38
				c-0.35,0.75-0.86,2.72-1.92,3.1C460.12,199.2,458.55,198.28,457.27,198.51c-0.27,0.19-0.51,0.31-0.64,0.21
				C456.83,198.61,457.05,198.55,457.27,198.51z M448.89,190.57c-0.09-0.34-0.05-0.57,0.04-0.77c0.15-0.52,0.51-1.17,1.17-1.68
				c-0.09,1.03-0.9,1.19-1.17,1.68C448.85,190.13,448.81,190.4,448.89,190.57z M447.28,189.3l-0.15,1.61l0.62-1.32l-0.79,2.93
				C445.47,192.67,446.18,190.55,447.28,189.3z M446.18,189.84l0.91-1.19l-0.88,1.3L446.18,189.84l-0.2,0.27l-0.55-1.93
				L446.18,189.84z M436.22,174.18c-4.11,3.04-1.57,3.71-3.11,5.68c1.28-1.13,3.62-2.47,2.43-3.75c2.23-0.06-1.75,3.01,1.92,0.71
				c-0.71-0.31-0.33-1.89-0.31-2.09l0.69,0.52C439.8,172.69,435.88,175.35,436.22,174.18z M429.72,167.77l-0.62-0.94l0.37,1.09
				L429.72,167.77z M412.09,146.39c-0.93,0.77-3.51,0.8-1.85-0.8C410.88,146.03,411.25,146.76,412.09,146.39z M406,136.04l-0.2,1.65
				c-2.39,1.28-0.49-1.03-1.19-1.3C405.65,135.46,405.14,136.36,406,136.04z M401.87,128.88l0.16-0.57l-2.06,1.78L401.87,128.88z
				 M399.11,131.25c-1.15,0.42-1.21,1.47-0.97,1.57L399.11,131.25z M393.47,125.85l0.4,0.38l1.81-1.65L393.47,125.85z
				 M396.26,125.18c-1.41,1-3.42,2.12-1.85,2.62c1.57-0.88,1.39-1.17,3.44-1.86c0.18-0.57-0.62-0.48-0.86-0.57
				c-0.13,0.4,0.69,0.29-0.31,0.98C395.9,126.29,395.86,125.76,396.26,125.18c0.51-0.34,0.93-0.69,1.1-0.98
				C396.9,124.49,396.52,124.84,396.26,125.18z M400.01,128.11c0.26,0.02,0.53,0.02,0.82-0.08l-0.35,0.31
				C399.73,128.59,399.81,128.38,400.01,128.11c-0.29-0.04-0.57-0.1-0.84-0.19c-1.37,0.67-1.83,1.95-2.45,2.58
				c0.16-0.57,1.26-1.65,0.22-1.65c-0.35,0.29-0.64,0.4-0.46,0.69l-0.64-0.48c1.41-1.84,2.36-1.47,3.31-1.15
				c0.29-0.15,0.62-0.29,1.02-0.36C400.43,127.58,400.17,127.86,400.01,128.11z M400.14,121.22l-0.18,0.57
				c-0.42,0.48-0.99,0.67-1.35,0.98C398.49,122.27,399.09,121.22,400.14,121.22z M412.51,141.43c-0.51,0.04-1.66,1.57-0.95,1.82
				l-2.01,1.03c1.22-0.88,0.44-1.78,0.48-1.97C411.63,140.94,411.14,141.84,412.51,141.43z M428.48,163.66
				c-2.03,2.09,0.24,2.09-0.11,2.85C427.4,166.34,425.77,165.38,428.48,163.66z M431,164.88c0.24,0.34,0.51,0.25-0.58,1.19
				c-0.31,0.56,0.46,0.29,0.15,0.84C429.12,167.14,430.83,165.63,431,164.88c-0.05-0.1-0.13-0.19-0.15-0.36
				C431.02,164.58,431.03,164.71,431,164.88z M421.42,152.17l1.33-1.72l-0.64-0.56L421.42,152.17z M419.29,142.49
				c-0.93,0.77-1.5-0.02-1.13-0.54c-1.24,0.98-0.71,1.4-0.57,1.91c-0.07,0.13-0.07,0.27,0.02,0.4c0.04-0.15,0.02-0.27-0.02-0.4
				c0.18-0.38,0.91-0.75,1.37-1.07l0.51-0.06l-0.05-0.84L419.29,142.49z M412.36,128.07c-1.32,0.15-0.99-0.13-0.8-0.71
				C412.14,127.15,412.54,127.5,412.36,128.07z M423.05,145.59c-1.17-0.33-1.64,1.84-2.61,1.78l0.42,0.33
				c-1.81,0.33,1.1-1.57,0.4-1.76l0.48,0.13c1.39-0.67,0.49-1.11,1.43-1.89C423.87,144.15,423.51,145.7,423.05,145.59z
				 M412.76,126.75c-1.77,0,0.97-1.55,0.93-2.2C415.23,124.48,412.76,125.89,412.76,126.75z M423.4,137.89l0.27-0.13l0.29-1.13
				l-0.27,0.13L423.4,137.89z"/>
		</g>
		<g>
			<path class="st0" d="M398.82,134.16c-0.29-0.11-0.35-0.27-0.31-0.46C398.66,133.82,398.78,133.95,398.82,134.16z"/>
		</g>
		<g>
			<path class="st0" d="M424.55,174.03c0.31-0.27,0.53-0.34,0.71-0.34C425.08,173.84,424.86,173.95,424.55,174.03z"/>
		</g>
		<g>
			<path class="st0" d="M425.1,176.21c0,0.02,0.04,0.04,0.04,0.06l-0.05,0.15L425.1,176.21z"/>
		</g>
		<g>
			<path class="st0" d="M470.3,224.22c-1.37,1.47-0.48-0.15-0.66-0.42C469.83,224.06,471.01,223.39,470.3,224.22z"/>
		</g>
		<g>
			<path class="st0" d="M471.53,220.16c-0.37,0.5-0.53,0.96-0.48,1.34C470.89,221.37,470.92,221.04,471.53,220.16z"/>
		</g>
		<g>
			<path class="st0" d="M472,222.44c-0.6-0.19-0.9-0.52-0.95-0.92C471.31,221.73,472.06,221.54,472,222.44z"/>
		</g>
		<g>
			<path class="st0" d="M467.16,214.7c-0.71,1.05,0.22,1.32,0.22,1.32c-1.85-0.73-1.59,1.65-2.25,2.3
				C464.89,217.19,466.08,216.29,467.16,214.7z"/>
		</g>
		<g>
			<path class="st0" d="M466.35,212.47c0.11,0.13,0.24,0.25,0.46,0.25C466.48,212.77,466.37,212.64,466.35,212.47z"/>
		</g>
		<g>
			<path class="st0" d="M465.08,212.66c-0.11-0.67,0.82-1.67,1.48-2.53c1.21-0.02-0.26,1.68-0.2,2.34
				C466.1,212.14,465.99,211.7,465.08,212.66z"/>
		</g>
		<g>
			<path class="st0" d="M449.22,202.63c-0.02,0.19,0.18,0.44-0.37,0.94l-0.64-0.71C448.28,202.26,448.98,202.59,449.22,202.63z"/>
		</g>
		<g>
			<path class="st0" d="M449.62,197.42c-0.4-0.69-1.59,0.96-1.52,0.34l1.92-1.72L449.62,197.42z"/>
		</g>
		<g>
			<path class="st0" d="M459.48,188.94l-0.04,0.36c-0.04-0.1-0.07-0.17-0.11-0.27L459.48,188.94z"/>
		</g>
		<g>
			<path class="st0" d="M445.34,196.31l-1.74,2.37C443.73,197.69,445.38,196.12,445.34,196.31z"/>
		</g>
		<g>
			<polygon class="st0" points="442.02,195.41 441.67,196.37 441.36,194.7 			"/>
		</g>
		<g>
			<polygon class="st0" points="440.66,191.77 440.13,192.1 440.01,190.86 			"/>
		</g>
		<g>
			<path class="st0" d="M416.62,159.48c1.79-1.65,1.96,0.29,2.72,0.29C416.8,161.42,419.36,158.09,416.62,159.48z"/>
		</g>
		<g>
			<path class="st0" d="M400.45,134.79l0.31,1.65C399.37,135.9,400.59,136.15,400.45,134.79z"/>
		</g>
	</g>
	<g>
		<g>
			<path class="st0" d="M422.39,4.67c0.15,0,0.27-0.1,0.42-0.11C422.67,4.88,422.54,5,422.39,4.67z"/>
		</g>
		<g>
			<path class="st0" d="M426.3,1.65c-0.75,1.01-1.96,2.58-3.49,2.91C423.25,3.49,423.87,0.06,426.3,1.65z"/>
		</g>
		<g>
			<path class="st0" d="M418.7,1.82l1.61-0.67C420.34,2.38,419.41,1.36,418.7,1.82z"/>
		</g>
		<g>
			<polygon class="st0" points="421.09,3.12 421.84,3.87 420.55,3.85 			"/>
		</g>
		<g>
			<path class="st0" d="M381.53,73.54c0.46,0.15,0.9,0.38,1.35,0.84L381.53,73.54z"/>
		</g>
		<g>
			<path class="st0" d="M375.67,73.52c-0.33,0.15-0.51,0.31-0.66,0.42C375.07,73.71,375.27,73.62,375.67,73.52z"/>
		</g>
		<g>
			<path class="st0" d="M383.11,70.63l-0.26,0.61C382.85,70.98,382.92,70.75,383.11,70.63z"/>
		</g>
		<g>
			<path class="st0" d="M403.66,35.87c0.95,0,1.83,0,2.45-0.04C406.06,37.27,404.65,36.26,403.66,35.87z"/>
		</g>
		<g>
			<path class="st0" d="M353.87,77.62l0.58,0.65C354.05,78.15,353.71,78,353.87,77.62z"/>
		</g>
		<g>
			<path class="st0" d="M364.05,65.48c0.4,0.29,0.66,0.54,0.82,0.77c-0.09,0-0.16,0.04-0.27,0.02L364.05,65.48z"/>
		</g>
		<g>
			<path class="st0" d="M383.23,67.49c-0.02-0.04-0.04-0.06-0.05-0.1l0.71-0.1C383.87,67.65,383.65,67.7,383.23,67.49z"/>
		</g>
		<g>
			<path class="st0" d="M350.01,81.08c-0.51-0.1-1.1-0.29-1.83-0.61C348.77,80.3,349.54,80.6,350.01,81.08z"/>
		</g>
		<g>
			<path class="st0" d="M374.96,74.02c-0.02,0-0.02-0.02-0.04-0.02c0.02-0.02,0.05-0.04,0.07-0.06
				C374.99,73.98,374.97,73.98,374.96,74.02z"/>
		</g>
		<g>
			<path class="st0" d="M367.83,61.79c-0.27,0.13-0.51,0.29-0.82,0.4C367.04,61.77,367.43,61.69,367.83,61.79z"/>
		</g>
		<g>
			<path class="st0" d="M403.66,35.87c-0.27,0-0.53,0-0.8,0C403.02,35.68,403.31,35.74,403.66,35.87z"/>
		</g>
		<g>
			<path class="st0" d="M421.28,9.23c-0.29,0.4-0.82,0.11-1.35-0.21C420.31,8.98,420.75,9.02,421.28,9.23z"/>
		</g>
		<g>
			<path class="st0" d="M318.84,160.21l-0.13,0.15C318.73,160.27,318.79,160.23,318.84,160.21z"/>
		</g>
		<g>
			<path class="st0" d="M331.25,145.36c0.2,0.04,0.42,0.08,0.69,0.19C332.03,145.82,331.67,145.66,331.25,145.36z"/>
		</g>
		<g>
			<path class="st0" d="M324.58,118.39c0.27,1.78-2.49,1.38-3.2,2.24l1.06,0.31l-1.33,0.4l1.22,0.88c-1.59,1.13-1.61,3.94-3.91,3.1
				l2.06,1.24l-2.63,0.5l1.94,0.02c-0.8,2.12-4.18,3.81-4.42,4.21l0.84,0.36c0.18,0.57-0.46,0.46-0.9,0.61l1.24,0.56
				c-2.12,2.55-0.16,5.09-3.34,7.35c-0.29,1.03,0.66-0.21,1.28,0.21c0.57,1.07-0.97,1.57-1.61,1.45c1.86,0.98,2.19-0.69,2.92,1.28
				c-1.3,0.1,1.9,0.65,0.75,1.65l-2.5-1.09c-0.07,0.96,1.63,1.36,0.69,2.3c-1.75,0.56-1.5-3.31-3.11-1.53
				c-0.51,1.11,3.69,5.74,1.26,6.83c0.05,2.49,3.98,1.55,1.92,3.46l2.39-0.46c0.37,0.82,1.63,1.36,0.51,2.03
				c-1.06-0.29-2.56-0.44-3.01,0.02c3.07-0.98,1.26,3.68,4.73,3.2l-0.57,0.69c0.15-0.04,0.37,0.1,0.51,0.27l-0.49,1.11
				c0.88-0.27,2.03-1.59,3.2,0.23l-0.53,1.72c1.46,0.48,1.63,1.36,2.67,1.97l5.1-2.56c-0.84-0.36-1.72-0.08-2.3-0.84
				c0.09-1.59,1.92,0.02,1.61-1.76l-1.26-0.21c0.42,0.17,0.64,0.11,0.6,0.44c0.38,0.82-0.46,0.46-1.06,0.02
				c-0.99-1.24,0.53-1.74,1.59-1.44c0.73-1.49-2.03-1.86-2.21-2.43c2.52,0.77,1.44-2.34,2.96-2.51l-1.68-0.4
				c-0.93-2.2,1-2.18,1.88-2.45l-1.24-0.56c1.17-1.3-2.03-4.67,2.56-2.99l-0.82-0.36c0.05-0.84-0.16-2.34,1.37-2.07
				c-0.44-0.34-0.95-0.86-0.93-1.19c1.72,0.77,0.99-0.67,1.3-1.76c-0.77,0.31-2.58-1.28-3.45-1.01c-1.08-2.79,2.98,0.33,3.71-0.84
				c-0.53-1.4-1.48-0.17-2.32-0.54c2.21-1-2.06-6.87,2.54-5.15l0.73,1.65c1.3-0.1,1.53-0.48,1.13-0.65
				c-0.02,0.33-0.44,0.13-0.86-0.06c-0.58-3.56,5.02-1.23,5.66-3.92c-0.82-0.38-1.26-0.25-1.88-0.67c-0.09-1.53,4.37,1.8,3.95-0.88
				l-1.04-0.31c-0.15-0.9,1.32-0.4,1.52-0.13c-3.23-2.45,2.41-3.22-1.11-7.46c2.32,0.56,5.19-0.61,4.68-2.03
				c-1.3-2.41-2.74-0.75-4.31-2.47c0.49-0.77,2.58,0.17,2.7-1.42c1.83,1.34,2.16,4.96,4.64,3.62l-0.77-1.01
				c-0.02,0.33,0.15,0.9-0.31,1.01c-1.48-0.19-0.97-1.28-1.35-1.78l2.1-1.86c2.05,1.28,0.66,2.3,1.06,2.79
				c0.82-2.11-0.53-6.37,1.9-7.1l-0.82-0.38c3.09-0.9-2.67-3.89,1.59-3.25c0.11-1.26-2.27-1.21-1.48-2.68
				c0.26-0.38,0.82,0.38,1.02,0.63c1.83-1.15-1.32-2.11,1.5-2.3l-2.27-1.21c2.67-0.77,7.53,0.02,7.75-2.22
				c-1.63-1.09-2.16,0-3.6-0.52c4.29,0,3.91-4.84,6.8-5.65c0.91,1.61,3.73,1.44,3.97,3.54c-2.25-1.23-1.33,0.38-2.03,0.88
				c5.15,2.28,1.04-6.18,5.08-3.6l-1.35-1.49c0.44-0.11,2.16,0.02,2.27,0.92l0.51-2.93c-1.72-0.15-5.54-0.65-4.2,1.17
				c-2.08-0.65-0.48-1.74-2.76-2.64c3.6,0.56-0.48-1.74,1.15-2.79c1.77,2.41,4.11,0.86,5.13,1.78c-0.07-0.8,1.74-1.09,2.8-0.92
				c0.82-0.71,0.4-4.1,2.17-4.86c-1.08-0.02-2.59,0.08-3.97-1.09c1.3-0.04,1.81-0.8,0.24-2.24c-4.75,0.06,3.27,3.75-0.24,4.4
				c-2.27-0.94-3.16-0.69-4.51,0c-0.73-1.36-1.35-1.49-2.52-2.72c4.99,1.72,2.92-3.29,6.19-3.56c1.72,0.15,3.82,2.68,5.48,1.32
				l0.16,2.43c0.05-2.49,1.44,0.54,2.85-0.44l-1.68-0.48c0.33-1.01,0.77-1.13,2.05-0.86l-2.5-0.88c0.07-0.63,0.4-1.65,1.59-0.73
				c-0.4-0.5-0.77-0.84-1.11-1.11c0.4,0.17,0.75,0.13,1.06-0.44c-0.44,0.11-0.48,0.44-1.08-0.02c1.88-1.59-1.83-2.16-0.77-3.23
				c-0.6-0.17-0.93-0.98-0.86-1.61c3.12,2.51,5.26,0.42,7.47,1.15l-0.05-0.04l2.45-0.63c-0.49,0.13-1.1-0.9-1.08-1.65l-0.04,0.1
				c-0.11-0.9-3.86-2.09-1.83-2.93l1.52-0.1c-0.22,0.06-0.6-0.46-0.79-0.73l1.46-0.17c-1.99-3.62,3.42-1.13,3.09-3.79
				c-0.07,0.63-0.77,1.13-1.52,0.08c-0.15-0.57,0.53-0.75,1.15-0.61l-0.4-0.21l4.04-1.34c-1.22-0.61-2.49,0.94-3.14-0.73
				c-1.11-1.57,1-1.19,1.5-1.63c0.77,0.73,0.8,2.26,1.96,1.67c-0.31-0.44-0.49-2.05-1.41-2.09c1.57-0.31,3.12-1.34,5.24-1.05
				c-0.15-0.57-0.82-0.4-1.04-0.34l0.18,0.27c-0.9,0.23-2.17-1.61-2.17,0.25c-2.78-2.09,0.49-2.3,0.86-3.62l-3.03,0.15
				c-1.68-5.76,5.08-6.24,7.14-8.9c0.26,1.47-1.04,1.49,1.13,3.12c2.27-0.86,1.64-1.01,3.31-2.35l-0.22,0.06
				c-0.44-1.74,2.52-1.24,1.06-3.35c-1.44-0.57,0.16,2.12-2.19,0.23l1.75-1.97c-1.88-0.48-1.75,1.97-2.69,2.51
				c-0.31,0.69,1.19-0.92,2.52,0.61c-1.53,1.91-3.38,1.15-6.3,0.34c-2.06-0.73-1-2.22-0.75-2.6c3.36,0.71,5.85-0.23,6.23-3.08
				l-0.97-2.53c2.34,0.34,5.19,3.35,6.1,1.28l-1.66-0.52c-0.2-0.78-0.18-1.19-0.04-1.36c-1.52-0.04-3.22-0.11-4.73-0.25
				c-1.96-3.22,3.49-1.78,5.13-2.79c-0.4-0.21-0.9,0.21-1.7-0.19c1-2.72,5.94-2.35,7.64-3.69c-0.64-1.68-1.85,0.75-3.33-1.05
				c1.35-0.33,0.57-2.6,2.38-1.49c-2.59-1.53,1.37-2.18-2.06-2.28c1.41-4.04,6.21-5.78,9.98-7.89c-0.8-0.42-1.39-0.92-1.75-1.44
				c-0.8,1.11-2.69,2.16-4.75,1.42c-0.62-1.7,2.87-0.36,2.34-1.17c-0.84-0.11-1.39,0.63-2.56-0.33c-0.58-2.03,1.66-1,2.38-1.47
				l0.31,0.84c3.14-0.73,4.88,2.26,5.9-0.44c-0.8-1.97-1.15-0.96-2.91-2.41c1.08,0.06,0.46-3.18,2.7-2.16l-0.86,1.44
				c1.19-0.52,1.86-1.38,2.94-1.49c-0.42-0.25-0.84-0.52-1.15-0.46c1.11-0.25,1.7-1.3,3.14-0.71l-1.88-1.84
				c0.48,1.13-0.38,2.55-1.57,1.89c-1.52-1.49,0.51-1.95,0.82-2.64c-2.47,2.11-5.39-0.31-5.85,2.87l0.84,0.11
				c0.37,2.53-3,1.95-3.86,3.18c-0.13-0.65-0.75-1.28-1.19-1.4c-0.55,3.83-3.62,5.46-4.99,9.19l-2.52-0.63l1.35,1.23
				c-0.49,1.97-2.21-1.32-2.78-0.27c0.26-0.36,0.44-0.11,0.86,0.11c-2.87,0.38,0.58,2.03-0.58,2.6c1.85,0.78,1.92-1.38,3.58,0.69
				c-2.87,0.36-3.98,3.73-7.53,1.19c-1,4.27-6.05,6.43-8.33,8.86c0.33,0.84,0.64,0.15,1,0.67c-2.74-0.56-1.24,4.65-3.01,3.23
				c0.11,0.9,1.24,2.16,1.61,2.68c-1.33,0-2.36,0.46-3.23,1.13l0.95-0.23l0.18,0.27l-1.35,0.34l-0.09-0.11
				c-2.08,1.72-3.47,4.56-6.8,4.98c1.97-0.19,1.92,1.99,3,2.01c-3.53-1.26-5.32,1.07-6.45,3.22c0.6,0.46,0.95,1,1.59,1.13
				l-1.97,0.19l0.8,0.42c-0.93,2.41-5.65,2.12-5.28,4.5c0.93-0.56,1.52-0.1,2.52,0.57c-1.11,1.38-2.12,2.72-4.18,3.71
				c0.24,0.04,0.48,0.15,0.69,0.31c-0.07,0.63-1.15,0.61-1.81,0.8l1.37,1.19c-1.28,0.34-1.33,2.03-3.22,2.16
				c1.28,1.63-3.22,1.36-3.42,3.04c-0.68,0.19,2.34,0.29,1.35,1.49c-3.22-2.24-1.26,1.59-4.66-0.9l0.42,2.07l-1.83-1.05
				c2.45,3.37-2.41,0.36-2.43,2.55c0.42,0.21,0.64,0.13,0.82,0.4c-0.68,0.19-1.63,1.07-1.9-0.4c-0.51,0.77-3.11,2.74-0.53,2.95
				c-1-0.65,0.55-1.07,1.21-1.26c1.39,1.17,0.02,1.86,1.37,3.35c-0.18-0.08-0.53-0.13-0.84-0.19l0.77,0.84
				c-2.58,0.19-2.45,2.51-5.21,1.97c0.4,0.4,0.57,0.92,0.13,1.32l-1.81-1.36l-1.02,1.55l3.11,1.3c-0.64,2.05-4.42,0.96-5.81,1.97
				c2.76,2.64-3,1.8-1.15,5.01l1.55-0.44c-2.12,1.86-0.57,3.6-3.07,4.96c0.24-2.56,0.84-2.12,0.2-6.62
				c-0.57,3.6-4.84,3.27-4.77,7.02c0.82,0.38,1.72,0.11,2.03,1.26c-1.88-0.71-1.52,2.32-3.09,0.59c0.09,1.23,1.7,2.62,1.63,3.27
				l-3.95,0.86l0.42,0.19c1.26,7.45-8.31,5.91-9.43,11.6l1.02,0.63l-2.16,0.04c1.52-0.15,0.97,1.26,1.77,1.95l-3.98,1.23
				C322.46,118.08,324.51,119.35,324.58,118.39z M350.32,82.67l0.58-0.56c0-0.19,0.07-0.34,0.37-0.34l-0.37,0.34
				C350.91,82.63,351.49,83.46,350.32,82.67z M396.54,26.44c1.04,0.36-0.09,0.63-0.13,0.96l0.99-0.86
				C397.03,26.02,396.77,26.4,396.54,26.44z M361.93,91.53l0.95,1.28l-1.26-0.27L361.93,91.53z M355.64,100.76l1.33-0.38l0.18,0.27
				l-1.32,0.38L355.64,100.76z M338.87,103.65c0.11,0,0.2-0.02,0.37,0C339.14,103.67,339.01,103.67,338.87,103.65
				c-1.35,0.06,0.62,1.97-1.88,0.98C335.67,102.56,337.84,103.5,338.87,103.65z M350.05,87.42c0.46-0.13,0.68-0.19,0.69-0.52
				c-0.82-0.38-2.32-0.57-2.25-1.23c1.04,0.33,1.99-0.57,3.2,0.33C349.78,85.94,352.68,89.16,350.05,87.42z M366.09,66.48
				l-0.04,0.33l1.52-0.11L366.09,66.48z M370.1,63.53c1.86,0.75,2.45-0.65,3.38-1.21c-1.15-1.24-3.27-1.61-3.82-0.54
				C367.67,62,371.36,63.82,370.1,63.53z M347.46,96.26l1.22,0.57l-0.02,0.33l1.32-0.38c0.64,2.32-2.69,1.09-3.58,1.34
				C346.91,97.68,350.51,98.2,347.46,96.26z M376.82,55.86c1.52-0.1,3.75-0.67,4.71,0.33c-1.96-1.65-3.75-1.19-4.02-0.82
				C377.48,55.68,377.26,55.74,376.82,55.86z M380.57,58.92c-1.77,0.46-2.78-0.19-5.32-0.77c0-1.86,2.83-0.13,3.78,0.86
				c1.52-0.1,0.11-0.96,0.18-1.59L380.57,58.92z M374.02,55.66l-0.07,0.71c0.42,1.24,2.61,3.18-0.26,2.16l0.26-2.16
				C373.84,56.09,373.84,55.84,374.02,55.66z M381.48,45.69l-1.04-0.06C380.86,45.21,381.21,45.39,381.48,45.69l0.88,0.06
				C382.3,47.41,382.01,46.3,381.48,45.69z M376.42,53.79l-1.22,1.26C376.18,55.72,376.33,54.44,376.42,53.79z M383.03,47.45
				c-0.31,0.71-1.17,2.47-1.13,2.14C380.93,48.6,382.17,47.36,383.03,47.45z M408.85,18.86l-0.77,0.78l-1.08-1.59L408.85,18.86z
				 M402.13,30.02l-0.53-0.8l0.49-0.42L402.13,30.02z M395.11,39.61c-0.27-0.29-0.68-0.59-1.06-0.77c-0.24,0.04-0.51,0.02-0.84-0.15
				c0.09-0.13,0.44-0.04,0.84,0.15c0.6-0.11,0.84-0.84,0.62-1.44c-0.8-0.42-1.11,0.29-1.75,0.13c-1-2.24,5.43-0.11,0.24-3.46
				c0.84,0.1,3.05-0.13,3.54,0.98C395.68,35.82,394.78,38.13,395.11,39.61c0.22,0.25,0.37,0.5,0.27,0.71
				C395.24,40.12,395.17,39.87,395.11,39.61z M386.63,53.33c-0.38,0.27-0.64,0.31-0.86,0.25c-0.58,0.02-1.3-0.17-1.88-0.78
				c1.13-0.29,1.33,0.63,1.88,0.78C386.12,53.56,386.45,53.48,386.63,53.33z M385.24,55.84l1.77-0.46l-1.48-0.25l3.27-0.21
				C389.03,56.74,386.65,56.72,385.24,55.84z M385.86,57l-1.33-0.67l1.44,0.57L385.86,57l0.31,0.15l-2.12,1.47L385.86,57z
				 M368.74,75.69c3.45,3.89,4.11,0.44,6.32,1.57c-1.28-1.13-2.81-3.52-4.17-1.53c-0.13-2.76,3.34,0.96,0.73-2.68
				c-0.33,1.01-2.06,1.19-2.28,1.23l0.55-1.07C367.01,71.82,370.04,75.65,368.74,75.69z M362,86.54l-0.99,1.21l1.19-0.94L362,86.54z
				 M341.32,118.96c1.02,0.63,1.64,3.58-0.44,2.62C341.19,120.55,341.9,119.71,341.32,118.96z M331.85,132.44l1.79-0.86
				c2.01,1.89-0.95,1.23-1.02,2.2C331.36,133.22,332.44,133.2,331.85,132.44z M325.55,141.91l-0.66,0.21l2.5,1.09L325.55,141.91z
				 M328.87,143.37c0.79,1,1.9,0.34,1.94,0.02L328.87,143.37z M325.18,153.3l0.26-0.71l-2.3-0.84L325.18,153.3z M323.54,150.7
				c1.48,0.86,3.33,2.28,3.31,0.19c-1.43-1.11-1.66-0.73-3.05-2.49c-0.66,0.21-0.29,1.03-0.31,1.36c0.44-0.13,0.07-0.96,1.1-0.34
				C324.8,150.33,324.27,150.74,323.54,150.7c-0.53-0.31-1.02-0.54-1.35-0.52C322.62,150.49,323.12,150.66,323.54,150.7z
				 M325.33,144.52c-0.05-0.31-0.15-0.61-0.35-0.86l0.42,0.17C325.93,144.48,325.68,144.53,325.33,144.52
				c0.05,0.34,0.07,0.69,0.07,1.05c1.13,1.05,2.61,0.69,3.47,0.94c-0.66,0.19-2.12-0.29-1.77,0.86c0.42,0.19,0.62,0.44,0.84,0.04
				l-0.27,1.03c-2.36-0.29-2.28-1.59-2.27-2.89c-0.26-0.23-0.49-0.5-0.69-0.9C324.63,144.4,325.02,144.5,325.33,144.52z
				 M318.17,149.24l0.66-0.21c0.64,0.11,1.02,0.61,1.44,0.78C319.81,150.3,318.51,150.41,318.17,149.24z M335.94,121.51
				c0.16,0.57,2.06,0.94,2.16-0.02l1.57,1.7c-1.22-0.88-1.99,0.59-2.21,0.67C335.63,122.85,336.69,122.85,335.94,121.51z
				 M357.56,89.96c2.43,1.49,2.27-1.26,3.12-1.19C360.58,90.04,359.68,92.47,357.56,89.96z M358.73,86.27
				c0.37-0.44,0.24-0.75,1.33,0.17c0.64,0.13,0.29-0.69,0.91-0.56C361.34,87.57,359.57,86.12,358.73,86.27
				c-0.09,0.11-0.2,0.25-0.4,0.36C358.38,86.39,358.55,86.31,358.73,86.27z M345.83,104.53l-2.1-0.63l-0.53,1.09L345.83,104.53z
				 M335.6,112.86c1.02,0.63,0.27,1.78-0.37,1.67c1.32,0.86,1.66,0,2.21-0.52c0.16,0,0.31-0.08,0.44-0.27
				c-0.16,0.06-0.31,0.15-0.44,0.27c-0.46,0-0.99-0.63-1.44-0.98l-0.16-0.57l-0.91,0.57L335.6,112.86z M321.67,130.58
				c0.53,1.4,0.13,1.23-0.53,1.42C320.74,131.48,321,130.77,321.67,130.58z M338.34,106.43c-0.15,1.61,2.28,0.88,2.39,2.11
				l0.27-0.69c0.68,1.97-1.9-0.38-1.99,0.57l0.05-0.65c-0.97-1.26-1.3,0.08-2.32-0.56C336.62,106.29,338.39,105.77,338.34,106.43z
				 M320.12,131.06c0.49,2.05-1.94-0.02-2.63,0.5C316.98,129.83,319.21,131.65,320.12,131.06z M329.75,110.85l-0.18-0.25l-1.33,0.4
				l0.2,0.25L329.75,110.85z"/>
		</g>
		<g>
			<path class="st0" d="M332,141.78c-0.04,0.4-0.18,0.56-0.37,0.63C331.69,142.18,331.8,141.95,332,141.78z"/>
		</g>
		<g>
			<path class="st0" d="M369.18,90.16c-0.31-0.27-0.4-0.5-0.42-0.71C368.93,89.6,369.07,89.81,369.18,90.16z"/>
		</g>
		<g>
			<path class="st0" d="M371.48,88.59c0.04-0.02,0.04-0.06,0.07-0.08c0.05,0,0.11,0.02,0.16,0.02L371.48,88.59z"/>
		</g>
		<g>
			<path class="st0" d="M422.3,11.14c1.83,0.8-0.09,0.63-0.37,1C422.21,11.77,421.28,10.76,422.3,11.14z"/>
		</g>
		<g>
			<path class="st0" d="M417.64,11.89c0.6,0.15,1.13,0.1,1.55-0.17C419.05,12,418.7,12.14,417.64,11.89z"/>
		</g>
		<g>
			<path class="st0" d="M420.07,10.11c-0.13,0.82-0.44,1.34-0.88,1.63C419.39,11.32,419.08,10.53,420.07,10.11z"/>
		</g>
		<g>
			<path class="st0" d="M412.16,19.93c1.26,0.33,1.44-0.96,1.44-0.96c-0.58,2.6,2.01,1.07,2.83,1.49
				C415.21,21.36,414.04,20.41,412.16,19.93z"/>
		</g>
		<g>
			<path class="st0" d="M409.8,22.03c0.15-0.21,0.24-0.42,0.22-0.67C410.11,21.75,409.98,21.92,409.8,22.03z"/>
		</g>
		<g>
			<path class="st0" d="M410.15,23.49c-0.71,0.48-1.92-0.17-2.96-0.54c-0.15-1.42,1.88-0.54,2.59-0.92
				C409.47,22.51,409.02,22.88,410.15,23.49z"/>
		</g>
		<g>
			<path class="st0" d="M400.04,47.8c0.22-0.06,0.49-0.42,1.08,0.04l-0.79,1.13C399.66,49.12,400.01,48.1,400.04,47.8z"/>
		</g>
		<g>
			<path class="st0" d="M394.22,49.56c-0.75,0.8,1.11,1.57,0.44,1.74l-1.96-1.67L394.22,49.56z"/>
		</g>
		<g>
			<path class="st0" d="M384.49,40.89l0.38-0.1c-0.09,0.08-0.18,0.15-0.29,0.25L384.49,40.89z"/>
		</g>
		<g>
			<path class="st0" d="M393.06,55.4l2.67,1.19C394.62,56.85,392.84,55.43,393.06,55.4z"/>
		</g>
		<g>
			<polygon class="st0" points="392.1,59.95 393.17,59.99 391.31,61.08 			"/>
		</g>
		<g>
			<polygon class="st0" points="388.06,63.15 388.42,63.67 387.05,64.34 			"/>
		</g>
		<g>
			<path class="st0" d="M354.49,106.39c-2.03-1.28,0.02-2.49-0.13-3.39C356.52,105.18,352.55,103.84,354.49,106.39z"/>
		</g>
		<g>
			<path class="st0" d="M332.16,139.54l1.61-1.42C333.64,140.02,333.53,138.49,332.16,139.54z"/>
		</g>
	</g>
	<g>
		<g>
			<path class="st0" d="M469.92,149.82c-0.04,0.13-0.02,0.29-0.04,0.42C469.63,150.01,469.57,149.88,469.92,149.82z"/>
		</g>
		<g>
			<path class="st0" d="M471.27,154.32c-0.64-0.98-1.61-2.53-1.39-4.08C470.67,150.95,473.46,152.42,471.27,154.32z"/>
		</g>
		<g>
			<path class="st0" d="M473.65,147l0.05,1.72C472.6,148.44,473.81,147.81,473.65,147z"/>
		</g>
		<g>
			<polygon class="st0" points="471.71,148.98 470.8,149.49 471.23,148.27 			"/>
		</g>
		<g>
			<path class="st0" d="M422.03,94.29c-0.27,0.4-0.6,0.8-1.13,1.15L422.03,94.29z"/>
		</g>
		<g>
			<path class="st0" d="M423.76,88.62c-0.05-0.34-0.11-0.56-0.18-0.73C423.76,87.99,423.78,88.2,423.76,88.62z"/>
		</g>
		<g>
			<path class="st0" d="M424.15,96.45l-0.46-0.38C423.91,96.13,424.09,96.24,424.15,96.45z"/>
		</g>
		<g>
			<path class="st0" d="M448.52,124.17c-0.31,0.92-0.57,1.76-0.73,2.35C446.53,126.12,447.86,125.03,448.52,124.17z"/>
		</g>
		<g>
			<path class="st0" d="M426.36,66.48l-0.73,0.44C425.81,66.54,426.05,66.23,426.36,66.48z"/>
		</g>
		<g>
			<path class="st0" d="M434.25,79.04c-0.37,0.33-0.68,0.52-0.91,0.65c0.02-0.1,0.02-0.17,0.05-0.27L434.25,79.04z"/>
		</g>
		<g>
			<path class="st0" d="M426.87,97.26c0.04-0.02,0.05-0.02,0.09-0.04l-0.13,0.73C426.54,97.85,426.56,97.62,426.87,97.26z"/>
		</g>
		<g>
			<path class="st0" d="M424.35,61.96c0.24-0.48,0.55-1.01,1.06-1.67C425.39,60.89,424.89,61.6,424.35,61.96z"/>
		</g>
		<g>
			<path class="st0" d="M423.52,87.82c0-0.02,0.02-0.02,0.02-0.04c0.02,0.02,0.02,0.08,0.02,0.1
				C423.56,87.86,423.56,87.84,423.52,87.82z"/>
		</g>
		<g>
			<path class="st0" d="M436.44,83.53c-0.04-0.31-0.11-0.56-0.11-0.9C436.68,82.77,436.64,83.15,436.44,83.53z"/>
		</g>
		<g>
			<path class="st0" d="M448.52,124.17c0.09-0.25,0.16-0.5,0.26-0.77C448.89,123.59,448.74,123.86,448.52,124.17z"/>
		</g>
		<g>
			<path class="st0" d="M466.28,147.58c-0.26-0.38,0.18-0.82,0.64-1.24C466.83,146.72,466.63,147.12,466.28,147.58z"/>
		</g>
		<g>
			<path class="st0" d="M361.89,16.6l-0.11-0.15C361.87,16.46,361.89,16.52,361.89,16.6z"/>
		</g>
		<g>
			<path class="st0" d="M372.07,31.32c-0.07,0.19-0.18,0.4-0.33,0.65C371.47,32.01,371.7,31.68,372.07,31.32z"/>
		</g>
		<g>
			<path class="st0" d="M397.8,29.54c-1.66-0.06-0.6-2.72-1.19-3.58l-0.53,1l-0.04-1.38l-1.1,1.05c-0.6-1.78-3.12-2.3-1.79-4.44
				l-1.63,1.82l0.2-2.7l-0.51,1.91c-1.7-1.19-2.36-4.84-2.67-5.15l-0.53,0.77c-0.55,0.08-0.29-0.54-0.31-1l-0.79,1.13
				c-1.77-2.55-4.51-1.05-5.76-4.59c-0.84-0.48,0.04,0.69-0.51,1.24c-1.1,0.36-1.17-1.24-0.91-1.86c-1.33,1.68,0.09,2.3-1.85,2.68
				c0.24-1.3-1.04,1.76-1.64,0.46l1.57-2.3c-0.84-0.23-1.61,1.38-2.23,0.31c-0.07-1.84,3.31-0.92,2.12-2.83
				c-0.88-0.69-6.01,2.7-6.41,0.1c-2.23-0.36-2.34,3.69-3.54,1.32l-0.16,2.45c-0.82,0.23-1.61,1.38-1.94,0.17
				c0.51-1,1-2.45,0.69-2.99c0.15,3.22-3.58,0.65-3.98,4.17l-0.48-0.67c0,0.15-0.16,0.36-0.35,0.46l-0.86-0.67
				c0.04,0.92,0.93,2.28-0.99,3.14l-1.41-0.8c-0.79,1.38-1.61,1.4-2.39,2.32l1.04,5.46c0.51-0.77,0.49-1.68,1.3-2.14
				c1.39,0.34-0.48,1.89,1.17,1.86l0.51-1.23c-0.26,0.38-0.26,0.61-0.53,0.54c-0.82,0.25-0.29-0.52,0.24-1.05
				c1.35-0.78,1.41,0.8,0.9,1.8c1.13,0.98,2.16-1.7,2.7-1.78c-1.3,2.37,1.74,1.8,1.5,3.33l0.79-1.61c2.19-0.56,1.7,1.36,1.72,2.28
				l0.8-1.15c0.88,1.36,4.66-1.23,2.01,3.04l0.53-0.75c0.73,0.19,2.12,0.23,1.5,1.7c0.42-0.38,1-0.78,1.3-0.71
				c-1.1,1.55,0.37,1.09,1.24,1.57c-0.07-0.82,1.79-2.34,1.75-3.23c2.76-0.59-1.02,2.87-0.18,3.81c1.37-0.29,0.53-1.44,1.06-2.2
				c0.33,2.35,6.63-0.82,3.95,3.41l-1.66,0.42c-0.26,1.3,0.04,1.61,0.29,1.23c-0.27-0.08,0-0.46,0.27-0.82
				c3.33,0.06-0.18,5.17,2.05,6.28c0.55-0.75,0.55-1.21,1.08-1.72c1.39,0.17-2.72,3.98-0.24,4.04l0.55-0.98
				c0.84,0.02,0,1.38-0.27,1.51c3.01-2.76,2.23,2.95,6.93,0.27c-1.1,2.18-0.8,5.23,0.58,4.96c2.49-0.82,1.39-2.55,3.33-3.79
				c0.55,0.63-0.84,2.51,0.55,2.93c-1.66,1.53-4.97,1.19-4.44,3.89l1.11-0.57c-0.27-0.08-0.82-0.02-0.82-0.48
				c0.57-1.44,1.39-0.71,1.94-1l1.1,2.41c-1.68,1.76-2.21,0.21-2.76,0.52c1.64,1.19,5.81,0.69,5.79,3.2l0.57-0.75
				c-0.02,3.2,4.18-1.88,2.47,2.18c1.1,0.36,1.68-1.99,2.78-0.94c0.27,0.33-0.57,0.73-0.84,0.88c0.53,2.01,2.23-0.88,1.64,1.91
				l1.68-1.97c-0.04,2.76-2.06,7.37-0.13,8.02c1.43-1.38,0.6-2.11,1.44-3.43c-1.17,4.19,3.22,4.8,3.14,7.77
				c-1.68,0.57-2.32,3.35-4.24,3.16c1.72-1.95,0.04-1.38-0.22-2.14c-3.47,4.57,5.19,2.24,1.75,5.67l1.7-1.03
				c-0.02,0.46-0.62,2.09-1.46,2.03l2.45,1.09c0.62-1.65,2.14-5.28,0.16-4.34c1.17-1.89,1.66-0.11,3.12-2.14
				c-1.5,3.41,1.66-0.11,2.16,1.7c-2.63,1.24-1.94,3.83-3.03,4.65c0.73,0.1,0.48,1.91,0.02,2.91c0.38,0.94,3.51,1.24,3.69,3.1
				c0.33-1.03,0.66-2.53,2.1-3.64c-0.33,1.26,0.2,1.91,1.92,0.69c1.3-4.63-4.26,2.41-3.84-1.15c1.46-2.03,1.52-2.93,1.28-4.4
				c1.41-0.42,1.72-1.01,3.12-1.89c-2.94,4.52,2.1,3.54,1.41,6.78c-0.62,1.63-3.47,3.16-2.74,5.05l-2.19-0.34
				c2.17,0.57-0.9,1.3-0.42,2.87l0.91-1.53c0.8,0.54,0.79,1,0.16,2.16l1.5-2.24c0.55,0.19,1.35,0.73,0.18,1.7
				c0.55-0.29,0.97-0.57,1.3-0.84c-0.27,0.34-0.33,0.71,0.07,1.13c0.02-0.46-0.26-0.56,0.33-1.03c0.86,2.16,2.45-1.32,3.09-0.06
				c0.33-0.56,1.13-0.69,1.66-0.5c-3.12,2.51-1.9,5.03-3.2,7.01l0.04-0.04l-0.16,2.51c0.04-0.52,1.11-0.86,1.77-0.69l-0.07-0.06
				c0.84,0.1,2.98-3.29,3.12-1.13l-0.37,1.49c0.02-0.23,0.58-0.48,0.88-0.59l-0.29,1.45c3.78-1.15-0.02,3.56,2.43,3.81
				c-0.55-0.21-0.77-1,0.38-1.49c0.55-0.02,0.51,0.67,0.2,1.24l0.29-0.34l-0.02,4.21c0.91-1.05-0.09-2.62,1.59-2.89
				c1.72-0.73,0.75,1.24,0.99,1.8c-0.88,0.59-2.25,0.27-2.05,1.53c0.49-0.21,1.96-0.04,2.27-0.9c-0.2,1.59,0.24,3.33-0.66,5.3
				c0.55-0.02,0.6-0.71,0.62-0.92l-0.29,0.11c0.07-0.92,2.08-1.74,0.44-2.16c2.67-2.22,1.88,0.98,2.94,1.65l0.79-2.97
				c5.61-0.34,3.97,6.32,5.68,8.94c-1.39-0.1-1-1.36-3.09,0.36c0.07,2.37,0.4,1.82,1.06,3.73l0.02-0.23
				c1.68-0.02,0.31,2.72,2.63,1.8c0.95-1.24-1.92-0.33,0.48-2.16l1.19,2.16c1-1.7-1.19-2.16-1.39-3.18
				c-0.51-0.46,0.44,1.36-1.32,2.28c-1.22-1.93,0.04-3.52,1.64-6.16c1.28-1.84,2.27-0.46,2.52-0.11c-1.66,3.08-1.61,5.68,0.79,6.72
				l2.54-0.33c-1.04,2.16-4.59,4.21-3.03,5.57l0.99-1.47c0.77-0.02,1.1,0.1,1.21,0.29c0.51-1.45,1.11-3.06,1.7-4.5
				c3.45-1.11,0.48,3.79,0.86,5.61c0.31-0.34,0.09-0.9,0.71-1.59c2.1,1.61,0.2,6.28,0.82,8.23c1.68-0.21-0.07-1.95,1.97-2.95
				c-0.15,1.38,2.1,1.19,0.57,2.64c2.17-2.12,1.48,1.86,2.67-1.44c3.12,2.34,3.11,7.39,3.73,11.52c0.64-0.67,1.26-1.11,1.83-1.32
				c-0.71-1.05-1.02-3.12,0.29-4.92c1.7-0.17-0.6,2.85,0.26,2.53c0.37-0.78-0.11-1.49,1.11-2.37c1.97-0.06,0.35,1.84,0.53,2.66
				l-0.84,0.1c-0.38,3.2-3.56,4.12-1.53,5.78c1.99-0.27,1.22-0.86,3.07-2.16c-0.4,1.01,2.67,1.23,1.02,3.12l-0.97-1.19
				c0.05,1.26,0.6,2.12,0.35,3.2c0.37-0.34,0.73-0.67,0.77-0.98c-0.15,1.13,0.58,1.97-0.42,3.18l2.12-1.17
				c-1.15,0.17-2.12-1.01-1.15-1.99c1.81-1.07,1.55,0.98,2.05,1.45c-1.02-2.91,2.05-5.09-0.6-6.34l-0.38,0.78
				c-2.34-0.29-0.75-3.37-1.55-4.5c0.62,0.04,1.37-0.4,1.61-0.78c-3.2-1.49-3.64-4.86-6.49-7.08l1.35-2.26l-1.5,1
				c-1.59-0.96,1.86-1.8,1.11-2.62c0.24,0.34-0.05,0.46-0.37,0.78c0.58-2.85-1.97,0.06-2.12-1.19c-1.28,1.57,0.6,2.2-1.74,3.29
				c0.58-2.85-2.01-4.75,1.33-7.56c-3.47-2.01-3.8-7.39-5.24-10.18c-0.86,0.11-0.33,0.57-0.91,0.8c1.33-2.53-3.75-2.3-1.94-3.68
				c-0.84-0.11-2.3,0.69-2.87,0.92c0.42-1.3,0.31-2.39-0.02-3.39l-0.07,0.98l-0.29,0.11l0.11-1.38l0.13-0.06
				c-0.88-2.43-2.98-4.42-2.36-7.75c-0.42,1.95-2.34,1.4-2.69,2.45c2.17-3.12,0.64-5.42-0.93-7.01c-0.58,0.48-1.15,0.71-1.48,1.28
				l0.42-1.95l-0.6,0.69c-1.88-1.45-0.22-5.97-2.45-6.14c0.22,1.03-0.37,1.49-1.26,2.34c-0.9-1.4-1.77-2.68-2.06-4.92
				c-0.11,0.23-0.27,0.44-0.48,0.61c-0.55-0.21-0.2-1.26-0.18-1.95l-1.44,1.07c0.05-1.32-1.43-1.74-1-3.6
				c-1.81,0.9-0.27-3.45-1.74-4c0.04-0.69-0.93,2.22-1.72,1c2.91-2.66-1.04-1.57,2.14-4.36l-1.96-0.04l1.44-1.57
				c-3.69,1.67,0.37-2.43-1.59-2.93c-0.29,0.36-0.31,0.59-0.58,0.73c0.02-0.69-0.49-1.82,0.9-1.78c-0.53-0.67-1.57-3.62-2.49-1.15
				c0.86-0.86,0.8,0.77,0.79,1.45c-1.43,1.11-1.66-0.36-3.36,0.65c0.13-0.15,0.26-0.5,0.42-0.78l-0.97,0.57
				c0.55-2.56-1.53-2.95-0.31-5.53c-0.48,0.31-0.97,0.36-1.22-0.15l1.72-1.49l-1.1-1.32l-2.01,2.78c-1.66-1.05,0.37-4.52-0.16-6.11
				c-3.11,2.16-0.79-3.31-4.15-2.16l-0.02,1.61c-1.08-2.47-3.07-1.28-3.58-4c2.23,0.75,1.66,1.26,5.85,1.53
				c-3.07-1.28-1.63-5.44-4.99-6.13c-0.57,0.75-0.57,1.67-1.68,1.76c1.13-1.7-1.66-1.95,0.29-3.16c-1.11-0.15-2.8,1.15-3.34,0.96
				l0.27-4.06l-0.27,0.36c-6.98-0.19-3.11-9.36-7.93-11.54l-0.82,0.9l0.53-2.14c-0.26,1.53-1.39,0.73-2.21,1.38l-0.07-4.17
				C398.6,27.49,396.96,29.29,397.8,29.54z M422.85,61.94l0.33,0.69c0.18,0.04,0.29,0.13,0.22,0.44l-0.22-0.44
				C422.7,62.52,421.81,62.92,422.85,61.94z M459.06,119.56c-0.64,0.92-0.55-0.23-0.8-0.34l0.46,1.15
				C459.3,120.15,459.05,119.79,459.06,119.56z M411.74,71.47l-1.41,0.67l0.58-1.19L411.74,71.47z M405.29,63.49l-0.02,1.38
				l-0.29,0.13l0.04-1.36L405.29,63.49z M407.24,46.44c-0.02,0.11-0.04,0.19-0.09,0.36C407.15,46.71,407.19,46.59,407.24,46.44
				c0.31-1.34-1.92,0.23-0.37-2.05C409.07,43.51,407.65,45.48,407.24,46.44z M418.68,60.7c-0.02,0.46-0.02,0.69,0.26,0.78
				c0.57-0.73,1.15-2.14,1.72-1.95c-0.58,0.96-0.04,2.07-1.19,3.06C420.07,60.72,416.4,62.92,418.68,60.7z M432.79,80.82l-0.27-0.11
				l-0.35,1.51L432.79,80.82z M434.23,85.35c-1.21,1.65-0.15,2.53,0.07,3.56c1.44-0.84,2.39-2.83,1.59-3.62
				C436.3,83.32,433.61,86.52,434.23,85.35z M411.52,56.35l-0.86,1.09l-0.27-0.1l-0.02,1.38c-2.23,0.17-0.24-2.85-0.24-3.77
				C410.42,55.53,408.98,58.98,411.52,56.35z M439.06,93.6c-0.37,1.49-0.53,3.79-1.7,4.5c2.05-1.53,2.17-3.37,1.92-3.71
				C439.02,94.27,439.04,94.04,439.06,93.6z M435.26,96.55c0.11-1.84,1-2.64,2.25-4.98c1.64,0.42-0.71,2.78-1.88,3.48
				c-0.37,1.49,0.82,0.33,1.37,0.54L435.26,96.55z M440.06,90.92l-0.6-0.23c-1.22,0.13-3.58,1.82-1.85-0.73l1.85,0.73
				C439.73,90.65,439.95,90.71,440.06,90.92z M446.68,100.43l0.37-1C447.3,99.94,447.02,100.22,446.68,100.43l-0.33,0.84
				C444.9,100.84,445.98,100.82,446.68,100.43z M441.01,93.66l-0.75-1.47C439.37,93.01,440.46,93.43,441.01,93.66z M444.67,101.53
				c-0.53-0.46-1.85-1.68-1.57-1.59C444.26,99.25,444.99,100.72,444.67,101.53z M461.86,133.26l-0.46-0.92l1.75-0.65L461.86,133.26z
				 M454.17,124.07l0.88-0.33l0.22,0.57L454.17,124.07z M447.9,115.04c0.35-0.19,0.73-0.52,1-0.84c0.04-0.23,0.13-0.5,0.4-0.78
				c0.09,0.11-0.09,0.44-0.4,0.78c-0.07,0.61,0.48,1.01,1.08,0.94c0.62-0.69,0.09-1.15,0.42-1.72c2.28-0.46-1.59,5.28,2.98,1.05
				c-0.35,0.8-0.84,2.99-1.97,3.2C451.06,116.49,449.31,115.06,447.9,115.04c-0.29,0.15-0.55,0.23-0.69,0.1
				C447.41,115.04,447.64,115.02,447.9,115.04z M438.36,103.69c-0.13-0.44-0.07-0.69,0.04-0.88c0.15-0.57,0.53-1.23,1.26-1.65
				c-0.09,1.17-0.95,1.15-1.26,1.65C438.31,103.15,438.27,103.46,438.36,103.69z M436.55,101.77l-0.13,1.82l0.66-1.38l-0.8,3.22
				C434.63,105.24,435.36,102.94,436.55,101.77z M435.35,102.12l0.99-1.13l-0.93,1.28L435.35,102.12l-0.22,0.25l-0.66-2.39
				L435.35,102.12z M423.85,81.41c-4.44,2.55-1.57,3.9-3.22,5.82c1.37-1,3.93-1.99,2.56-3.73c2.49,0.46-1.83,3.06,2.16,1.28
				c-0.8-0.54-0.44-2.28-0.44-2.49l0.79,0.77C427.76,80.55,423.51,82.69,423.85,81.41z M416.14,72.57l-0.79-1.21l0.51,1.34
				L416.14,72.57z M392.97,45.94c-0.82,0.88-3.6,0.96-2.23-0.9C391.58,45.52,392.15,46.38,392.97,45.94z M383.42,34.17l0.31,1.91
				c-2.19,1.65-0.86-1.17-1.7-1.4C382.83,33.54,382.58,34.61,383.42,34.17z M376.56,26.28l-0.02-0.69l-1.59,2.28L376.56,26.28z
				 M374.43,29.33c-1.1,0.61-0.79,1.82-0.49,1.91L374.43,29.33z M366.51,24.01l0.57,0.36l1.32-2.14L366.51,24.01z M369.24,22.8
				c-1.13,1.32-2.83,2.91-0.99,3.25c1.33-1.23,1.06-1.53,2.96-2.6c-0.02-0.69-0.84-0.46-1.13-0.54c0.02,0.46,0.84,0.23,0.04,1.15
				C369.26,24.1,369.02,23.51,369.24,22.8c0.4-0.48,0.73-0.92,0.79-1.26C369.64,21.94,369.36,22.38,369.24,22.8z M374.3,25.63
				c0.29,0,0.58-0.04,0.86-0.19l-0.27,0.38C374.17,26.23,374.19,25.96,374.3,25.63c-0.31,0-0.64-0.06-0.95-0.11
				c-1.21,0.94-1.26,2.45-1.7,3.25c-0.02-0.67,0.77-2.05-0.33-1.89c-0.26,0.38-0.55,0.54-0.26,0.82l-0.84-0.44
				c0.84-2.28,1.97-1.99,3.12-1.74c0.26-0.21,0.57-0.4,0.97-0.54C374.57,24.94,374.39,25.31,374.3,25.63z M371.83,17.73l0.02,0.69
				c-0.26,0.61-0.8,0.92-1.06,1.3C370.5,19.18,370.72,17.88,371.83,17.73z M392.1,40.2c-0.55,0.06-1.37,1.88-0.55,2.12l-1.94,1.24
				c1.1-1.03-0.02-2.07-0.02-2.3C390.98,39.62,390.71,40.68,392.1,40.2z M414.35,67.53c-2.01,2.09,0.49,2.47,0.18,3.29
				C413.44,70.44,411.52,69.08,414.35,67.53z M417.29,69.41c0.29,0.44,0.58,0.38-0.53,1.28c-0.31,0.59,0.53,0.42,0.24,1.01
				C415.41,71.7,417.2,70.29,417.29,69.41c-0.07-0.11-0.16-0.25-0.2-0.46C417.29,69.06,417.31,69.24,417.29,69.41z M404.61,53.12
				l1.13-1.95l-0.82-0.73L404.61,53.12z M399.9,41.46c-0.84,0.88-1.66-0.08-1.39-0.67c-1.11,1.13-0.42,1.65-0.13,2.28
				c-0.04,0.15-0.02,0.33,0.13,0.48c0-0.17-0.05-0.33-0.13-0.48c0.11-0.44,0.82-0.86,1.24-1.23l0.55-0.06l-0.27-1.01L399.9,41.46z
				 M387.64,24.43c-1.39,0.29-1.11-0.1-1.13-0.78C387.05,23.34,387.62,23.74,387.64,24.43z M404.92,45.39
				c-1.39-0.46-1.39,2.09-2.5,1.95l0.55,0.4c-1.94,0.29,0.84-1.8,0-2.07l0.57,0.19c1.39-0.71,0.27-1.3,1.11-2.18
				C405.47,43.72,405.47,45.58,404.92,45.39z M387.6,22.82c-1.96,0.11,0.51-1.93,0.2-2.7C389.46,19.91,387.29,21.8,387.6,22.82z
				 M403.21,36.06l0.27-0.13l-0.02-1.38l-0.27,0.15L403.21,36.06z"/>
		</g>
		<g>
			<path class="st0" d="M375.07,32.68c-0.35-0.1-0.46-0.27-0.48-0.48C374.79,32.29,374.97,32.45,375.07,32.68z"/>
		</g>
		<g>
			<path class="st0" d="M410.92,78.82c0.33-0.25,0.57-0.29,0.75-0.27C411.48,78.71,411.25,78.81,410.92,78.82z"/>
		</g>
		<g>
			<path class="st0" d="M411.65,81.39c0.02,0.04,0.04,0.06,0.05,0.08l-0.05,0.15V81.39z"/>
		</g>
		<g>
			<path class="st0" d="M464.25,148.08c-1.32,1.55-0.53-0.25-0.75-0.61C463.74,147.83,464.95,147.2,464.25,148.08z"/>
		</g>
		<g>
			<path class="st0" d="M465.13,143.42c-0.33,0.54-0.46,1.05-0.37,1.53C464.58,144.76,464.58,144.38,465.13,143.42z"/>
		</g>
		<g>
			<path class="st0" d="M465.9,146.2c-0.68-0.33-1.04-0.77-1.13-1.24C465.08,145.26,465.86,145.15,465.9,146.2z"/>
		</g>
		<g>
			<path class="st0" d="M459.85,136.19c-0.69,1.13,0.37,1.61,0.37,1.61c-2.08-1.21-1.59,1.67-2.23,2.34
				C457.58,138.75,458.81,137.87,459.85,136.19z"/>
		</g>
		<g>
			<path class="st0" d="M458.75,133.39c0.13,0.17,0.29,0.34,0.53,0.38C458.92,133.76,458.79,133.61,458.75,133.39z"/>
		</g>
		<g>
			<path class="st0" d="M457.36,133.39c-0.18-0.8,0.77-1.8,1.41-2.7c1.3,0.21-0.13,1.95-0.02,2.72
				C458.44,132.95,458.26,132.44,457.36,133.39z"/>
		</g>
		<g>
			<path class="st0" d="M439.15,117.91c-0.02,0.23,0.22,0.57-0.37,1.03l-0.75-1.01C438.11,117.24,438.87,117.8,439.15,117.91z"/>
		</g>
		<g>
			<path class="st0" d="M439.4,111.88c-0.48-0.9-1.72,0.71-1.66,0.02l2.06-1.51L439.4,111.88z"/>
		</g>
		<g>
			<path class="st0" d="M450.02,104.47l-0.04,0.4c-0.04-0.11-0.07-0.23-0.13-0.34L450.02,104.47z"/>
		</g>
		<g>
			<path class="st0" d="M434.6,109.45l-1.85,2.32C432.82,110.62,434.62,109.22,434.6,109.45z"/>
		</g>
		<g>
			<polygon class="st0" points="430.85,107.5 430.5,108.51 430.1,106.48 			"/>
		</g>
		<g>
			<polygon class="st0" points="429.26,102.87 428.7,103.11 428.51,101.64 			"/>
		</g>
		<g>
			<path class="st0" d="M400.61,61.25c1.68-1.74,2.21,0.5,3.03,0.54C401.12,63.49,403.41,59.88,400.61,61.25z"/>
		</g>
		<g>
			<path class="st0" d="M377.02,33.23l0.86,1.84C376.22,34.59,377.61,34.76,377.02,33.23z"/>
		</g>
	</g>
	<g>
		<g>
			<path class="st0" d="M511.98,287.73c0.09,0.11,0.26,0.19,0.38,0.29C511.98,288.09,511.8,288.03,511.98,287.73z"/>
		</g>
		<g>
			<path class="st0" d="M517.3,289.43c-1.41-0.08-3.62-0.27-4.93-1.42C513.63,287.82,517.13,286.44,517.3,289.43z"/>
		</g>
		<g>
			<path class="st0" d="M512.09,282.92l1.68,1.03C512.69,284.66,512.99,283.29,512.09,282.92z"/>
		</g>
		<g>
			<polygon class="st0" points="512.53,285.74 512.35,286.81 511.51,285.68 			"/>
		</g>
		<g>
			<path class="st0" d="M423.12,294.12c0.18,0.46,0.31,0.98,0.22,1.65L423.12,294.12z"/>
		</g>
		<g>
			<path class="st0" d="M419.03,289.26c-0.37-0.17-0.62-0.25-0.84-0.29C418.43,288.89,418.65,288.99,419.03,289.26z"/>
		</g>
		<g>
			<path class="st0" d="M426.78,293.62l-0.71,0.15C426.3,293.62,426.54,293.55,426.78,293.62z"/>
		</g>
		<g>
			<path class="st0" d="M471.54,289.72c0.64,0.8,1.26,1.53,1.72,2.03C471.96,292.57,471.89,290.77,471.54,289.72z"/>
		</g>
		<g>
			<path class="st0" d="M400.12,273.75l-0.16,0.88C399.75,274.23,399.66,273.85,400.12,273.75z"/>
		</g>
		<g>
			<path class="st0" d="M417.84,274.71c0.02,0.5,0,0.88-0.07,1.15c-0.07-0.08-0.15-0.11-0.22-0.21L417.84,274.71z"/>
		</g>
		<g>
			<path class="st0" d="M429.61,291.82c0.02-0.04,0.02-0.06,0.04-0.1l0.58,0.54C429.92,292.44,429.72,292.28,429.61,291.82z"/>
		</g>
		<g>
			<path class="st0" d="M394.4,272.68c-0.26-0.48-0.51-1.09-0.75-1.89C394.2,271.17,394.47,272.01,394.4,272.68z"/>
		</g>
		<g>
			<path class="st0" d="M418.08,288.97c0-0.02,0-0.02,0-0.04c0.04,0,0.07,0.02,0.11,0.04C418.15,288.99,418.12,288.97,418.08,288.97
				z"/>
		</g>
		<g>
			<path class="st0" d="M423.73,275.57c-0.31-0.15-0.6-0.25-0.93-0.44C423.18,274.92,423.52,275.17,423.73,275.57z"/>
		</g>
		<g>
			<path class="st0" d="M471.54,289.72c-0.18-0.23-0.37-0.44-0.55-0.69C471.27,289.07,471.42,289.33,471.54,289.72z"/>
		</g>
		<g>
			<path class="st0" d="M507.16,289.3c-0.57-0.04-0.66-0.65-0.71-1.3C506.74,288.32,506.97,288.72,507.16,289.3z"/>
		</g>
		<g>
			<path class="st0" d="M302.74,292.61l-0.22-0.02C302.62,292.53,302.69,292.57,302.74,292.61z"/>
		</g>
		<g>
			<path class="st0" d="M324.51,295.1c0.11,0.19,0.2,0.42,0.29,0.69C324.6,296.03,324.51,295.63,324.51,295.1z"/>
		</g>
		<g>
			<path class="st0" d="M344.31,273.83c-1.39,1.28-2.87-1.3-4.09-1.42l0.42,1.07l-1.24-0.9l0.02,1.55
				c-2.05-0.71-4.57,0.92-5.32-1.55l0.26,2.49l-2.17-1.95l1.24,1.67c-2.43,0.56-6.12-1.38-6.63-1.38l0.22,0.92
				c-0.4,0.48-0.71-0.13-1.13-0.44l0.33,1.38c-3.65-0.38-4.66,2.74-8.75,1.28c-1.11,0.33,0.62,0.46,0.62,1.23
				c-0.62,1.09-2.05,0.06-2.34-0.57c0.31,2.16,2.05,1.51,0.73,3.23c-0.93-1.07,0.62,2.01-1,1.57l-0.62-2.78
				c-0.91,0.48-0.2,2.16-1.63,1.88c-1.63-1.23,2.03-3.12-0.6-3.56c-1.32,0.17-2.85,6.39-5.41,4.86c-2.25,1.42,1.11,4.33-1.96,3.6
				l1.96,1.84c-0.51,0.78-0.22,2.18-1.55,1.57c-0.4-1.07-1.22-2.47-1.94-2.62c2.87,2.14-2.58,3.14,0.07,5.9l-1-0.11
				c0.13,0.11,0.15,0.38,0.07,0.59l-1.33,0.17c0.82,0.61,2.78,0.9,1.83,2.93l-1.96,0.48c0.49,1.55-0.22,2.18-0.13,3.41l5.7,3.04
				c-0.22-0.94-1.04-1.53-0.71-2.47c1.53-0.8,1.22,1.68,2.69,0.42l-0.62-1.23c0.11,0.46,0.31,0.61,0,0.77
				c-0.51,0.78-0.73-0.13-0.71-0.92c0.53-1.55,1.96-0.5,2.38,0.59c1.86-0.17,0.4-2.79,0.82-3.27c0.93,2.62,3.11-0.04,4.24,1.19
				l-0.73-1.7c1.43-2.03,2.69-0.34,3.51,0.25l-0.31-1.4c1.97,0.27,2.94-4.4,4.44,0.52l-0.2-0.92c0.8-0.44,2.03-1.47,2.8,0
				c0.02-0.57,0.15-1.3,0.48-1.47c0.44,1.91,1.28,0.46,2.47,0.11c-0.79-0.5-0.55-2.97-1.37-3.56c1.83-2.53,1.68,2.76,3.22,2.72
				c0.91-1.26-0.82-1.38-1.06-2.3c2.38,1.36,4.84-5.72,6.36-0.8l-1,1.59c0.95,1.05,1.46,1.05,1.33,0.57
				c-0.31,0.15-0.4-0.31-0.51-0.77c2.83-2.56,4.48,3.58,7.35,2.56c-0.22-0.92-0.64-1.23-0.66-1.99c1.32-0.98,1.33,4.77,3.45,2.83
				l-0.44-1.07c0.71-0.65,1.24,0.88,1.15,1.21c0-4.19,4.53,0.13,5.94-5.34c1.08,2.28,4.09,4.04,4.99,2.76
				c1.28-2.53-1.21-2.74-0.75-5.09c1.02-0.04,1.61,2.28,3.12,1.44c0.07,2.34-2.96,4.79-0.05,6.05l0.38-1.26
				c-0.29,0.17-0.69,0.65-1.11,0.36c-0.86-1.36,0.48-1.57,0.66-2.2l3.11,0.65c0.27,2.47-1.59,1.93-1.77,2.56
				c2.45-0.57,5.32-4.27,7.62-2.66l-0.24-0.92c2.94,2.05,1.61-4.57,3.98-0.63c1.21-0.67-0.49-2.62,1.35-2.85
				c0.51-0.02,0.24,0.92,0.15,1.24c2.28,0.82,0.95-2.37,3.07-0.13l-0.49-2.62c2.52,1.74,5.23,6.28,7.35,5.11
				c-0.16-2.01-1.5-1.8-2.05-3.33c2.98,3.58,6.98,0.31,9.72,2.2c-0.77,1.74,1.35,3.98-0.33,5.46c-0.49-2.6-1.28-0.86-2.19-1.15
				c1.61,5.68,6.18-2.91,6.72,2.03l0.35-2.03c0.42,0.29,1.5,1.8,0.79,2.45l2.94-1.38c-1.08-1.51-3.34-4.98-3.98-2.78
				c-0.9-2.12,1.19-1.45,0.38-3.9c2.05,3.33,1.19-1.45,3.25-0.77c-0.88,2.95,2.12,3.92,2.06,5.34c0.66-0.56,2.17,0.77,2.78,1.76
				c1.19,0.25,3.87-2.16,5.79-1.19c-0.73-0.9-1.9-2.09-1.85-3.96c0.95,1.03,1.97,1,2.12-1.19c-3.4-3.89-0.99,5.01-4.02,2.51
				c-0.79-2.45-1.63-3.04-3.18-3.73c0.68-1.44,0.35-2.03,0.62-3.75c1.99,5.19,4.93,0.4,7.47,2.93c1.08,1.51,0.35,4.8,2.7,5.32
				l-2.01,1.63c2.21-1.49,0.55,1.53,2.39,2.07l-0.77-1.68c1.11-0.34,1.53-0.06,2.17,1.17l-0.99-2.6c0.6-0.33,1.72-0.69,1.75,0.86
				c0.15-0.63,0.2-1.15,0.18-1.59c0.13,0.44,0.42,0.71,1.13,0.61c-0.42-0.29-0.71-0.11-0.75-0.9c2.72,0.57,0.58-2.85,2.28-2.62
				c-0.27-0.59,0.2-1.36,0.79-1.7c0.02,4.12,3.36,4.61,4.26,6.89l-0.02-0.06l2.28,1.63c-0.46-0.33,0.02-1.45,0.68-1.89l-0.11,0.02
				c0.71-0.65-0.91-4.48,1.26-3.29l1.15,1.21c-0.2-0.15-0.02-0.78,0.09-1.09l1.19,1.11c1.75-3.87,3.4,2.14,5.48,0.23
				c-0.6,0.33-1.53,0.06-1.15-1.21c0.4-0.48,1.02-0.02,1.35,0.57l-0.11-0.46l4.02,2.51c-0.33-1.4-2.58-1.47-1.57-3.06
				c0.58-1.89,1.74,0.11,2.47,0.25c-0.09,1.09-1.41,2.05-0.07,2.64c0.16-0.54,1.43-1.67,0.82-2.43c1.37,1.11,3.36,1.78,4.59,3.71
				c0.38-0.48-0.22-0.92-0.42-1.07l-0.09,0.31c-0.82-0.59-0.13-2.79-1.75-1.67c-0.15-3.58,2.34-1,3.76-1.49l-2.27-2.43
				c3.84-4.92,9.01,0.42,12.79,0.56c-1.13,1.09-2.05,0.04-1.94,2.81c2.34,1.38,2.03,0.75,4.37,1.34l-0.2-0.15
				c1.22-1.42,2.85,1.36,3.67-1.13c-0.49-1.55-1.74,1.42-1.72-1.68l2.96,0.29c-0.9-1.86-2.96-0.29-4.07-0.73
				c-0.82,0.17,1.63,0.44,1.21,2.47c-2.76-0.13-3.36-2.14-4.7-5.07c-0.8-2.16,1.24-2.18,1.75-2.2c1.74,3.25,4.28,4.75,7.03,3.37
				l1.55-2.32c1.32,2.18,0.64,6.37,3.11,5.9l-0.69-1.7c0.55-0.65,0.91-0.86,1.17-0.84c-1.02-1.3-2.12-2.78-3.05-4.13
				c1.48-3.56,3.98,1.88,6.01,2.66c-0.09-0.46-0.8-0.61-1-1.55c3.11-0.78,6.18,3.6,8.51,4.29c1.06-1.53-1.92-1.13-1.35-3.45
				c1.21,0.96,2.69-1.03,2.94,1.15c-0.42-3.1,2.87-0.1,0.6-3.1c2.27-0.57,4.62-0.1,6.96,0.75c2.34,0.9,4.64,2.2,6.85,3.22
				c-0.16-0.94-0.13-1.7,0.11-2.34c-1.53-0.06-3.75-1.07-4.5-3.27c1.1-1.51,2.28,2.26,2.63,1.34c-0.48-0.78-1.5-0.84-1.44-2.37
				c1.41-1.67,2.03,0.84,2.94,1.21l-0.55,0.75c2.78,2.28,1.3,5.47,4.39,4.82c1.22-1.82,0.09-1.55,0.2-3.87
				c0.66,0.96,3.16-1.45,3.75,1.09l-1.86,0.06c1.26,0.73,2.49,0.84,3.33,1.7c-0.05-0.52-0.09-1.03-0.37-1.24
				c0.99,0.82,2.32,0.75,2.72,2.34l0.48-2.47c-0.69,1.05-2.54,1.09-2.76-0.31c0.33-2.16,2.1-0.65,2.92-0.77
				c-3.54-0.98-3.34-4.88-6.5-3.46l0.48,0.8c-2.01,1.76-3.78-1.45-5.46-1.49c0.49-0.48,0.64-1.38,0.46-1.82
				c-3.8,1.72-7.36,0-11.62,1.03l-1.17-2.51l-0.15,1.86c-2.1,0.73-0.35-2.64-1.68-2.53c0.51,0.02,0.4,0.33,0.49,0.78
				c-2.32-2.22-1.39,1.68-2.72,1.03c0.57,2.03,2.56,0.82,1.86,3.45c-2.3-2.22-6.05-1.21-6.27-5.7c-4.5,1.7-9.92-1.28-13.65-1.74
				c-0.53,0.78,0.31,0.61,0.11,1.24c-1.44-2.62-4.97,1.76-4.97-0.57c-0.71,0.63-1.04,2.34-1.24,2.97c-0.93-1.13-2.06-1.68-3.25-2.03
				l0.88,0.65l-0.09,0.31l-1.24-0.92l0.05-0.13c-3-0.73-6.43-0.11-9.15-2.62c1.55,1.51-0.4,2.79,0.35,3.71
				c-1.37-3.69-4.7-3.79-7.36-3.41c0.02,0.78-0.18,1.4,0.13,2.01l-1.55-1.51l0.22,0.92c-2.78,0.71-5.83-3.39-7.66-1.61
				c1.13,0.42,1.15,1.21,1.28,2.45c-1.99-0.08-3.87-0.11-6.21-1.19c0.13,0.23,0.22,0.48,0.22,0.77c-0.6,0.33-1.35-0.57-1.97-1.01
				l-0.05,1.86c-1.21-0.84-2.72,0.13-4.15-1.32c-0.53,2.05-3.45-1.84-5.06-0.96c-0.64-0.44,1.39,2.11-0.37,2.03
				c-0.31-4.04-2.27-0.06-2.49-4.4l-1.5,1.61l-0.38-2.16c-1.22,4.1-2.01-1.78-3.91-0.46c0.11,0.46,0.33,0.61,0.22,0.92
				c-0.64-0.44-2.08-0.69-0.99-1.82c-1.02,0.04-4.55-0.88-2.94,1.38c-0.15-1.24,1.32-0.21,1.96,0.23c-0.05,1.86-1.61,1.17-1.96,3.2
				c-0.05-0.21-0.26-0.52-0.42-0.82l-0.2,1.15c-1.97-2.01-3.91-0.48-5.35-3.1c-0.07,0.57-0.4,1.03-1.06,0.92l-0.07-2.34l-2.05,0.1
				l1.02,3.37c-2.23,0.73-3.89-3.08-5.76-3.62c-0.4,3.9-3.64-1.38-5.17,2.11l1.46,1.01c-3.09-0.63-3.54,1.72-6.43,0.44
				c2.41-1.36,2.45-0.57,5.92-3.83c-3.53,1.7-6.19-2.05-9.43,0.27c0.24,0.92,1.06,1.49,0.29,2.47c-0.68-1.99-3.07,0.13-2.63-2.22
				c-0.99,0.82-1.13,3.01-1.74,3.33l-3.45-2.79l0.11,0.46c-5.68,5.53-10.84-3.43-16.55-1.03l0.13,1.24l-1.46-1.8
				c1.15,1.21-0.48,1.57-0.55,2.66l-3.73-2.66C343.16,271.84,343.4,274.33,344.31,273.83z M393.23,273.91l0.88,0.15
				c0.18-0.11,0.37-0.15,0.57,0.1l-0.57-0.1C393.67,274.37,393.36,275.36,393.23,273.91z M474.94,278.12
				c0.4,1.09-0.62,0.31-0.93,0.46l1.44,0.33C475.67,278.27,475.14,278.27,474.94,278.12z M393.58,288.95l-0.46,1.57l-0.66-1.21
				L393.58,288.95z M381.08,289.35l1.26,0.88l-0.09,0.33l-1.26-0.88L381.08,289.35z M366.95,277.1c0.07,0.1,0.15,0.15,0.24,0.31
				C367.12,277.35,367.03,277.24,366.95,277.1c-0.99-1.11-1.32,1.7-2.14-1C365.73,273.77,366.39,276.17,366.95,277.1z M388.9,276.59
				c0.42,0.29,0.64,0.44,0.93,0.27c-0.24-0.92-1.1-2.28-0.49-2.62c0.46,1.07,1.88,1.3,1.94,2.85
				C389.99,275.44,389.21,279.82,388.9,276.59z M418.41,277.03l-0.31,0.17l1.17,1.19L418.41,277.03z M423.8,278.52
				c0.66,1.99,2.3,1.63,3.44,2.05c0.27-1.72-0.9-3.69-2.23-3.5C423.41,275.57,424.44,279.73,423.8,278.52z M379.36,279.82l0.35,1.38
				l-0.29,0.17l1.26,0.88c-1.59,1.93-2.81-1.59-3.65-2.16C377.73,280.2,379.78,283.52,379.36,279.82z M435.24,279.38
				c1.15,1.21,3.22,2.68,3.03,4.1c0.05-2.64-1.59-3.83-2.12-3.81C435.86,279.82,435.66,279.69,435.24,279.38z M435.22,284.36
				c-1.66-1.19-1.79-2.43-3.07-4.88c1.63-1.13,2.1,2.26,1.92,3.66c1.15,1.21,0.91-0.5,1.52-0.82L435.22,284.36z M433.45,276.95
				l-0.68,0.36c-0.79,1.11-0.93,4.1-2.08,1.11l2.08-1.11C432.95,277.07,433.17,276.91,433.45,276.95z M447.42,277.07l-0.68-0.9
				C447.41,276.24,447.5,276.64,447.42,277.07l0.57,0.77C446.51,278.79,447.26,277.87,447.42,277.07z M436.75,277.79l-1.96-0.25
				C434.93,278.77,436.13,278.12,436.75,277.79z M446.99,279.4c-0.82,0.17-2.98,0.54-2.69,0.36
				C444.48,278.37,446.46,278.63,446.99,279.4z M490.15,284.11l-1.22-0.19l0.68-1.84L490.15,284.11z M475.64,284.93l0.33-0.92
				l0.71,0.15L475.64,284.93z M462.32,284.76c0.07-0.4,0.04-0.92-0.05-1.34c-0.2-0.17-0.37-0.4-0.46-0.8c0.18,0,0.35,0.34,0.46,0.8
				c0.53,0.42,1.33,0.21,1.7-0.36c-0.2-0.92-1.02-0.77-1.33-1.38c1.26-2.2,3.89,4.5,3.22-1.88c0.51,0.77,2.25,2.49,1.61,3.58
				C466.06,282.96,463.39,283.57,462.32,284.76c-0.07,0.34-0.18,0.59-0.42,0.65C461.97,285.16,462.13,284.95,462.32,284.76z
				 M444.35,285.98c-0.51-0.15-0.71-0.34-0.82-0.56c-0.44-0.48-0.77-1.19-0.64-2.05c1.06,0.77,0.38,1.49,0.64,2.05
				C443.81,285.72,444.08,285.93,444.35,285.98z M441.19,286.37l1.64,1.21l-0.82-1.38l2.49,2.58
				C443.06,290.04,441.41,288.07,441.19,286.37z M440.61,287.59l-0.35-1.51l0.53,1.55L440.61,287.59l0.07,0.34l-2.78-0.86
				L440.61,287.59z M412.25,284.87c-0.95,5.24,2.52,3.68,3.09,6.18c0.09-1.76,1.1-4.5-1.61-4.38c2.32-1.8,1.52,3.37,2.85-1.03
				c-1.11,0.34-2.49-1-2.69-1.13l1.32-0.21C414.41,281.07,413.18,285.91,412.25,284.87z M398.02,285.95l-1.74-0.08l1.66,0.4
				L398.02,285.95z M355.09,288.32c0.15,1.23-2.06,3.5-2.63,1.19C353.58,289.14,354.82,289.26,355.09,288.32z M336.62,288.19
				l1.96,1.03c-0.35,2.81-1.75-0.1-2.67,0.4C335.6,288.22,336.31,289.14,336.62,288.19z M323.88,288.22l-0.62-0.46l0.66,2.78
				L323.88,288.22z M324.74,291.92c-0.4,1.24,0.95,1.84,1.26,1.68L324.74,291.92z M313.23,294.33l0.82-0.17l-0.73-2.47
				L313.23,294.33z M314.57,291.44c0.18,1.78,0.09,4.17,1.97,2.99c0.09-1.86-0.42-1.86,0.29-4.04c-0.62-0.46-1.13,0.34-1.44,0.5
				c0.42,0.31,0.91-0.48,1.02,0.77C315.72,292.36,314.99,292.11,314.57,291.44c-0.05-0.63-0.16-1.19-0.4-1.47
				C314.15,290.54,314.31,291.06,314.57,291.44z M321.38,289.51c0.26-0.23,0.46-0.46,0.57-0.78l0.11,0.46
				C321.8,290,321.58,289.81,321.38,289.51c-0.27,0.25-0.58,0.46-0.91,0.67c-0.22,1.57,1.08,2.64,1.41,3.52
				c-0.62-0.46-1.13-1.99-1.96-1.03c0.11,0.46,0,0.78,0.51,0.77l-1.13,0.34c-1.28-2.18-0.05-2.87,1.15-3.58
				c0.04-0.34,0.13-0.71,0.37-1.11C321.02,288.84,321.2,289.22,321.38,289.51z M312.39,285.97l0.6,0.46
				c0.31,0.61,0.11,1.24,0.22,1.7C312.5,287.98,311.57,286.9,312.39,285.97z M349.17,285.28c-0.4,0.48,0.57,2.32,1.48,1.82
				l-0.46,2.34c-0.04-1.55-1.88-1.32-2.08-1.47C347.75,285.79,348.48,286.71,349.17,285.28z M391.91,284.36
				c0.4,2.93,2.7,1.11,3.23,1.88C393.94,286.9,391.18,287.67,391.91,284.36z M395.95,283.08c0.64,0.02,0.82-0.27,0.79,1.23
				c0.33,0.61,0.82-0.19,1.13,0.42C396.65,286.04,396.68,283.69,395.95,283.08c-0.16,0-0.37-0.02-0.6-0.11
				C395.6,282.86,395.79,282.94,395.95,283.08z M370.95,283.46l-0.9-2.14l-1.32,0.21L370.95,283.46z M356.61,279.88
				c0.13,1.24-1.39,1.3-1.72,0.69c0.13,1.63,1.13,1.4,1.96,1.57c0.11,0.13,0.27,0.21,0.53,0.21c-0.16-0.11-0.35-0.17-0.53-0.21
				c-0.31-0.38-0.11-1.21-0.13-1.78l0.4-0.48l-1.13-0.42L356.61,279.88z M331.56,278.41c-0.9,1.28-1,0.82-1.63,0.36
				C330.12,278.16,330.94,277.96,331.56,278.41z M364.16,278.31c-1.52,0.84,0.79,2.45-0.22,3.27l0.8-0.19
				c-1.28,1.76-0.97-1.84-1.88-1.32l0.6-0.34c0.46-1.57-0.95-1.05-1.1-2.28C363.1,276.8,364.76,277.98,364.16,278.31z
				 M330.12,277.37c-1.52,1.59-1.24-1.68-2.17-1.97C329.15,273.98,328.98,276.93,330.12,277.37z M354.42,273.75l0.09-0.31
				l-1.24-0.88l-0.09,0.31L354.42,273.75z"/>
		</g>
		<g>
			<path class="st0" d="M328.27,293.72c-0.38,0.19-0.62,0.17-0.84,0.04C327.7,293.68,327.98,293.64,328.27,293.72z"/>
		</g>
		<g>
			<path class="st0" d="M399.9,294.1c0.02-0.42,0.15-0.65,0.33-0.78C400.21,293.55,400.14,293.81,399.9,294.1z"/>
		</g>
		<g>
			<path class="st0" d="M402.89,295.06c0.04,0.02,0.07,0,0.11,0c0.04,0.04,0.07,0.1,0.09,0.13L402.89,295.06z"/>
		</g>
		<g>
			<path class="st0" d="M506.13,291.27c0.49,2.05-0.64,0.27-1.13,0.25C505.49,291.54,505.79,290.16,506.13,291.27z"/>
		</g>
		<g>
			<path class="st0" d="M502.33,287.67c0.27,0.61,0.68,1.03,1.19,1.24C503.19,288.93,502.84,288.7,502.33,287.67z"/>
		</g>
		<g>
			<path class="st0" d="M505.55,288.74c-0.8,0.36-1.5,0.36-2.03,0.15C504.03,288.84,504.53,288.13,505.55,288.74z"/>
		</g>
		<g>
			<path class="st0" d="M491.46,287.55c0.57,1.26,1.81,0.69,1.81,0.69c-2.7,1,0.42,2.35,0.58,3.29
				C492.25,291,492.32,289.47,491.46,287.55z"/>
		</g>
		<g>
			<path class="st0" d="M487.99,286.77c0.27,0,0.53-0.04,0.75-0.21C488.46,286.87,488.21,286.87,487.99,286.77z"/>
		</g>
		<g>
			<path class="st0" d="M486.95,287.92c-0.91-0.33-1.17-1.72-1.55-2.81c1.15-0.96,1.77,1.28,2.59,1.67
				C487.33,286.77,486.69,286.6,486.95,287.92z"/>
		</g>
		<g>
			<path class="st0" d="M458.59,293.81c0.2,0.15,0.71,0.15,0.71,0.92l-1.53,0.02C457.16,294.29,458.28,293.97,458.59,293.81z"/>
		</g>
		<g>
			<path class="st0" d="M452.98,290c-1.22-0.13-0.6,1.88-1.22,1.42l0.09-2.64L452.98,290z"/>
		</g>
		<g>
			<path class="st0" d="M453.77,276.64l0.37,0.27c-0.15-0.04-0.27-0.06-0.42-0.1L453.77,276.64z"/>
		</g>
		<g>
			<path class="st0" d="M447.08,292.59l0.84,2.93C446.89,294.77,446.88,292.44,447.08,292.59z"/>
		</g>
		<g>
			<polygon class="st0" points="442.42,294.56 443.13,295.48 440.88,294.6 			"/>
		</g>
		<g>
			<polygon class="st0" points="436.79,293.14 436.59,293.78 435.04,293.05 			"/>
		</g>
		<g>
			<path class="st0" d="M375.32,291.8c-0.29-2.47,2.21-1.49,2.91-2.16C377.79,292.78,376.24,288.65,375.32,291.8z"/>
		</g>
		<g>
			<path class="st0" d="M330.43,292.57l2.38,0.56C330.96,294.12,332.27,293.14,330.43,292.57z"/>
		</g>
	</g>
	<g>
		<path class="st0" d="M1.36,371.47h15.7v85.58h33.13v14.18H1.36V371.47z"/>
		<path class="st0" d="M120.88,458.16v13.07H68.97v-99.76h50.98v13.07H84.66v28.94h33.13v13.07H84.66v31.62h36.22V458.16z"/>
		<path class="st0" d="M134.44,442.27l15.02-4.92c1.74,15.73,7.38,22.91,19.04,22.91c8.19,0,13.28-5.63,13.28-14.76
			c0-9-3.36-13.34-11.93-16.31l-12.48-4.08c-13.01-4.36-19.72-14.76-19.72-28.39c0-17.28,11.93-27.68,29.51-27.68
			c17.03,0,28.3,8,30.59,28.52l-14.22,5.21c-1.61-14.34-7.11-20.94-16.77-20.94c-8.44,0-13.41,5.34-13.41,13.49
			c0,7.45,3.76,12.65,11.68,15.47l12.74,4.5c13.69,4.79,20.12,14.05,20.12,29.09c0,17.42-10.87,29.23-29.78,29.23
			C148.1,473.6,136.85,463.07,134.44,442.27z M172.26,349.82h14.62l-13.28,15.45h-12.61L172.26,349.82z"/>
		<path class="st0" d="M218.4,371.47h17.71l29.24,61.69c2.14,4.63,3.49,9.28,4.7,15.47h0.27c-0.4-6.05-0.53-12.5-0.53-19.39v-57.75
			h14.62v99.76h-16.5l-30.19-63.8c-2.14-4.5-3.76-10.13-4.97-15.6h-0.27c0.27,5.34,0.53,11.39,0.53,17.99v61.4h-14.62v-99.78H218.4z
			"/>
		<path class="st0" d="M353.61,444.81h-28.3l-6.58,26.41h-15.97l27.37-99.76h18.51l27.5,99.76h-15.97L353.61,444.81z M350.4,432.3
			l-8.44-33.73c-0.93-4.08-1.61-8-2.41-12.65h-0.27c-0.68,4.63-1.48,8.58-2.28,12.65l-8.44,33.73H350.4z"/>
		<path class="st0" d="M456.38,423.17l-10.6,16.73v31.33h-15.7v-99.76h15.7v48.33l30.19-48.33h17.71l-26.42,39.62l28.03,60.14H477.7
			L456.38,423.17z"/>
		<path class="st0" d="M582.6,487.52c-1.88,8.15-6.98,12.08-14.76,12.08c-8.31,0-14.09-4.5-14.09-12.65
			c0-6.6,4.02-11.81,11.53-15.73l-6.58-26.41h-28.3l-6.58,26.41h-15.97l27.37-99.76h18.51l27.5,99.76h-3.33
			c-9.67,3.23-14.09,8.84-14.09,14.6c0,3.37,1.74,5.21,4.7,5.21c2.81,0,4.42-2.11,5.5-6.05L582.6,487.52z M555.51,432.3l-8.44-33.73
			c-0.93-4.08-1.61-8-2.41-12.65h-0.27c-0.68,4.63-1.48,8.58-2.28,12.65l-8.44,33.73H555.51z"/>
		<path class="st0" d="M659.06,400.96c0,19.68-10.87,30.91-29.24,30.91h-14.34v39.33h-15.7v-99.76h29.78
			C648.2,371.47,659.06,382.7,659.06,400.96z M642.3,400.96c0-11.39-5.23-17.28-14.89-17.28h-11.93v35.83h12.08
			C636.93,419.51,642.3,413.19,642.3,400.96z"/>
		<path class="st0" d="M677.44,471.23v-99.76h15.7v99.76H677.44z"/>
		<path class="st0" d="M771.34,458.16v13.07h-51.91v-99.76h50.98v13.07h-35.28v28.94h33.13v13.07h-33.13v31.62h36.22V458.16z"/>
		<path class="st0" d="M793.07,371.47h15.7v85.58h33.13v14.18h-48.82L793.07,371.47L793.07,371.47z"/>
	</g>
	<g>
		<path class="st0" d="M160.38,579.01l2.56-0.19c0,10.43,4.75,14.26,11.79,14.26c6.58,0,10.23-3.92,10.23-10.62
			c0-5.36-2.28-8.8-8.31-10.91l-5.94-2.11c-6.49-2.3-9.32-6.03-9.32-12.54c0-7.56,4.66-11.77,12.33-11.77
			c7.77,0,13.16,3.54,13.16,15.41l-2.47,0.19c-0.46-10.91-4.39-13.4-10.78-13.4c-6.12,0-9.68,3.45-9.68,9.47
			c0,5.55,2.28,8.52,7.95,10.53l6.21,2.2c6.58,2.3,9.41,6.41,9.41,12.73c0,8.23-4.66,13.02-12.79,13.02
			C166.14,595.28,160.38,591.16,160.38,579.01z"/>
		<path class="st0" d="M202.32,594.13h-2.47v-69.39h2.47V594.13z"/>
		<path class="st0" d="M215.02,570.19c0-18.18,6.03-25.07,15.62-25.07c9.59,0,15.62,6.89,15.62,25.07
			c0,18.18-6.03,25.07-15.62,25.07C221.05,595.28,215.02,588.39,215.02,570.19z M243.71,570.19c0-16.84-5.3-22.78-13.06-22.78
			c-7.77,0-13.06,5.93-13.06,22.78c0,16.84,5.3,22.78,13.06,22.78C238.41,592.98,243.71,587.05,243.71,570.19z"/>
		<path class="st0" d="M252.93,546.26h2.47l8.68,38.66c0.27,1.63,0.73,3.83,1,5.74h0.18c0.27-2.01,0.73-3.92,1.1-5.74l9.23-38.66
			h2.47l9.23,38.66c0.37,1.82,0.82,3.73,1.1,5.74h0.18c0.18-1.91,0.73-4.12,1-5.74l8.68-38.66h2.47l-10.96,47.85h-2.56l-9.32-39.81
			c-0.37-1.44-0.64-3.16-1-4.98h-0.09c-0.37,1.82-0.64,3.54-1,4.98l-9.32,39.81h-2.56L252.93,546.26z"/>
		<path class="st0" d="M334.88,594.13h-2.47v-69.39h2.47V594.13z"/>
		<path class="st0" d="M350.58,527.31h2.65v11.01h-2.65V527.31z M350.67,546.26h2.47v47.85h-2.47V546.26z"/>
		<path class="st0" d="M383.93,548.46h-10.51v45.65h-2.38v-45.65h-7.67v-2.2h7.67v-10.91c0-7.18,3.29-11.2,9.59-11.2
			c1.28,0,2.38,0.19,3.29,0.48v2.2c-0.91-0.19-1.83-0.38-3.11-0.38c-5.12,0-7.4,2.87-7.4,9.09v10.72h10.51V548.46z"/>
		<path class="st0" d="M418.46,569.54h-26.95c0.09,18.38,5.48,23.45,12.88,23.45c6.4,0,11.15-4.79,11.6-14.36l2.28,0.29
			c-0.46,10.62-6.12,16.37-13.89,16.37c-9.87,0-15.35-7.37-15.35-25.07c0-18.95,5.66-25.07,14.89-25.07
			c8.86,0,14.53,5.74,14.53,22.11V569.54z M416,567.41c0-14.83-4.39-20.1-12.06-20.1c-7.4,0-12.33,5.36-12.43,20.1H416z"/>
		<path class="st0" d="M449.25,570.19c0-17.51,6.12-25.07,15.71-25.07c7.95,0,13.16,5.93,13.7,17.04l-2.56,0.1
			c-0.64-9.95-4.84-14.83-11.33-14.83c-7.86,0-12.97,6.7-12.97,22.78c0,15.41,5.12,22.78,13.25,22.78c6.3,0,10.51-5.26,11.24-15.22
			l2.47,0.19c-0.82,11.39-5.94,17.32-13.61,17.32C455.1,595.28,449.25,586.86,449.25,570.19z"/>
		<path class="st0" d="M487.81,582.46c0-3.83,1-6.7,2.92-9c1.92-2.3,6.03-4.31,11.24-5.26l11.24-2.11v-4.88
			c0-9.76-2.83-13.78-10.42-13.78c-6.85,0-11.05,3.45-11.33,13.88h-2.56c0.09-11.01,5.66-16.17,13.89-16.17
			c8.86,0,12.88,4.31,12.88,15.41v17.42c0,6.51,0.18,11.77,0.91,16.17h-2.56c-0.37-3.06-0.64-6.89-0.64-10.91
			c-1.92,7.66-6.49,12.06-13.8,12.06C492.65,595.28,487.81,590.49,487.81,582.46z M513.21,575.57v-7.37l-11.15,2.11
			c-8.04,1.53-11.69,5.07-11.69,11.96c0,6.79,3.93,10.72,9.87,10.72C508.09,592.98,513.21,585.81,513.21,575.57z"/>
		<path class="st0" d="M532.94,582.74l-0.37,11.39h-2.01v-69.39h2.47v33.3c1.74-8.13,6.94-12.92,13.8-12.92
			c8.77,0,14.62,6.03,14.62,24.6c0,17.99-6.12,25.55-15.07,25.55C539.79,595.28,534.58,590.4,532.94,582.74z M558.89,569.71
			c0-16.56-4.39-22.3-12.43-22.3c-7.95,0-13.43,7.85-13.43,19.14v7.27c0,11.58,5.21,19.14,12.97,19.14
			C554.04,592.98,558.89,586.67,558.89,569.71z"/>
		<path class="st0" d="M573.78,527.31h2.65v11.01h-2.65V527.31z M573.87,546.26h2.47v47.85h-2.47V546.26z"/>
		<path class="st0" d="M591.87,546.26h2.38v11.58c1.64-8.23,6.4-12.73,13.43-12.73c8.41,0,12.61,5.46,12.61,16.37v32.63h-2.38
			v-32.54c0-9.38-3.75-14.16-10.69-14.16c-7.95,0-12.88,7.08-12.88,18.95v27.75h-2.47V546.26z"/>
		<path class="st0" d="M631.15,579.01l2.56-0.19c0,10.43,4.75,14.26,11.79,14.26c6.58,0,10.23-3.92,10.23-10.62
			c0-5.36-2.28-8.8-8.31-10.91l-5.94-2.11c-6.49-2.3-9.32-6.03-9.32-12.54c0-7.56,4.66-11.77,12.33-11.77
			c7.77,0,13.16,3.54,13.16,15.41l-2.47,0.19c-0.46-10.91-4.39-13.4-10.78-13.4c-6.12,0-9.68,3.45-9.68,9.47
			c0,5.55,2.28,8.52,7.95,10.53l6.21,2.2c6.58,2.3,9.41,6.41,9.41,12.73c0,8.23-4.66,13.02-12.79,13.02
			C636.91,595.28,631.15,591.16,631.15,579.01z"/>
	</g>
</g>
</svg>
