<?xml version="1.0" encoding="utf-8"?>
<!-- Generator: Adobe Illustrator 24.0.0, SVG Export Plug-In . SVG Version: 6.00 Build 0)  -->
<svg version="1.1" id="Warstwa_1" xmlns="http://www.w3.org/2000/svg" xmlns:xlink="http://www.w3.org/1999/xlink" x="0px" y="0px"
	 viewBox="0 0 841.89 595.28" style="enable-background:new 0 0 841.89 595.28;" xml:space="preserve">
<style type="text/css">
	<!-- .st0{fill:#E0E0E0;}  changing to white color -->
	.st0{fill:#FFFFFF;}
</style>
<g>
	<g>
		<g>
			<path class="st0" d="M391.01,194.89c0.07,0.01,0.13-0.02,0.2-0.03C391.16,195,391.11,195.04,391.01,194.89z"/>
		</g>
		<g>
			<path class="st0" d="M392.75,193.78c-0.3,0.4-0.8,1.03-1.54,1.08C391.36,194.41,391.45,192.92,392.75,193.78z"/>
		</g>
		<g>
			<path class="st0" d="M389,193.38l0.76-0.2C389.85,193.73,389.33,193.22,389,193.38z"/>
		</g>
		<g>
			<polygon class="st0" points="390.27,194.11 390.69,194.5 390.05,194.41 			"/>
		</g>
		<g>
			<path class="st0" d="M376.29,223.35c0.24,0.08,0.49,0.18,0.77,0.39L376.29,223.35z"/>
		</g>
		<g>
			<path class="st0" d="M373.34,223.21c-0.15,0.06-0.23,0.12-0.29,0.17C373.06,223.29,373.15,223.25,373.34,223.21z"/>
		</g>
		<g>
			<path class="st0" d="M376.79,222.12l-0.07,0.26C376.69,222.27,376.71,222.17,376.79,222.12z"/>
		</g>
		<g>
			<path class="st0" d="M383.92,207.68c0.47,0.05,0.91,0.09,1.22,0.1C385.22,208.41,384.44,207.89,383.92,207.68z"/>
		</g>
		<g>
			<path class="st0" d="M362.77,224.53l0.35,0.29C362.91,224.77,362.72,224.7,362.77,224.53z"/>
		</g>
		<g>
			<path class="st0" d="M366.7,219.48c0.23,0.13,0.39,0.25,0.49,0.35c-0.05,0-0.08,0.01-0.13,0.01L366.7,219.48z"/>
		</g>
		<g>
			<path class="st0" d="M376.55,220.77c-0.01-0.01-0.02-0.02-0.03-0.04l0.35-0.02C376.88,220.85,376.77,220.86,376.55,220.77z"/>
		</g>
		<g>
			<path class="st0" d="M361.16,225.92c-0.26-0.06-0.58-0.15-0.98-0.31C360.46,225.55,360.89,225.71,361.16,225.92z"/>
		</g>
		<g>
			<path class="st0" d="M373.03,223.42l-0.02-0.01c0.01-0.01,0.03-0.02,0.04-0.02C373.04,223.4,373.03,223.4,373.03,223.42z"/>
		</g>
		<g>
			<path class="st0" d="M368.25,217.94c-0.13,0.05-0.23,0.11-0.38,0.16C367.85,217.93,368.03,217.9,368.25,217.94z"/>
		</g>
		<g>
			<path class="st0" d="M383.92,207.68c-0.13-0.01-0.26-0.03-0.4-0.04C383.58,207.56,383.73,207.6,383.92,207.68z"/>
		</g>
		<g>
			<path class="st0" d="M390.75,196.85c-0.12,0.16-0.4,0-0.69-0.18C390.26,196.68,390.48,196.73,390.75,196.85z"/>
		</g>
		<g>
			<path class="st0" d="M350.81,258.63l-0.06,0.06C350.75,258.65,350.78,258.63,350.81,258.63z"/>
		</g>
		<g>
			<path class="st0" d="M356.45,253.02c0.1,0.03,0.22,0.06,0.36,0.13C356.86,253.28,356.67,253.18,356.45,253.02z"/>
		</g>
		<g>
			<path class="st0" d="M351.54,240.81c0.26,0.79-1.15,0.44-1.45,0.75l0.55,0.2l-0.64,0.09l0.67,0.46c-0.72,0.38-0.55,1.6-1.76,1.07
				l1.11,0.68l-1.29,0.03l0.97,0.15c-0.28,0.86-1.87,1.34-1.97,1.49l0.44,0.22c0.12,0.26-0.2,0.16-0.42,0.19l0.65,0.33
				c-0.92,0.94,0.21,2.2-1.28,2.92c-0.1,0.42,0.32-0.04,0.65,0.2c0.33,0.51-0.41,0.6-0.74,0.5c0.98,0.58,1.07-0.12,1.52,0.79
				c-0.65-0.06,0.98,0.44,0.45,0.78l-1.31-0.67c0.01,0.41,0.88,0.72,0.45,1.06c-0.86,0.1-0.9-1.55-1.63-0.92
				c-0.2,0.44,2.1,2.8,0.93,3.08c0.13,1.09,2.06,1.01,1.1,1.68l1.18,0c0.22,0.39,0.87,0.73,0.34,0.94c-0.54-0.21-1.3-0.41-1.51-0.24
				c1.5-0.18,0.78,1.73,2.5,1.8l-0.26,0.26c0.07,0,0.19,0.07,0.26,0.16l-0.21,0.45c0.43-0.05,0.96-0.54,1.62,0.37l-0.21,0.72
				c0.75,0.33,0.87,0.74,1.41,1.1l2.48-0.74c-0.44-0.22-0.87-0.17-1.19-0.55c-0.01-0.7,0.97,0.16,0.75-0.66l-0.65-0.2
				c0.22,0.11,0.32,0.1,0.32,0.24c0.22,0.39-0.21,0.17-0.54-0.07c-0.55-0.63,0.21-0.73,0.75-0.52c0.32-0.6-1.1-0.98-1.21-1.25
				c1.3,0.53,0.64-0.92,1.4-0.88l-0.87-0.31c-0.56-1.04,0.42-0.89,0.85-0.95l-0.65-0.34c0.54-0.49-1.24-2.21,1.16-1.14l-0.43-0.22
				c-0.01-0.37-0.19-1.05,0.59-0.82c-0.24-0.18-0.52-0.44-0.52-0.59c0.9,0.45,0.46-0.23,0.57-0.69c-0.38,0.08-1.37-0.74-1.8-0.68
				c-0.69-1.3,1.52,0.35,1.83-0.12c-0.34-0.65-0.76-0.18-1.2-0.39c1.07-0.29-1.41-3.15,1.01-2.1l0.46,0.77
				c0.65,0.05,0.76-0.11,0.53-0.21c0,0.14-0.21,0.03-0.43-0.08c-0.49-1.6,2.47-0.23,2.64-1.39c-0.44-0.21-0.65-0.18-0.99-0.41
				c-0.14-0.68,2.32,1.04,1.94-0.17l-0.55-0.19c-0.13-0.4,0.64-0.1,0.76,0.02c-1.79-1.26,1.02-1.29-1.03-3.34
				c1.2,0.36,2.58-0.02,2.22-0.66c-0.83-1.13-1.43-0.46-2.35-1.29c0.2-0.31,1.31,0.2,1.26-0.5c1.02,0.67,1.44,2.28,2.6,1.8
				l-0.46-0.49c0.01,0.14,0.14,0.4-0.08,0.44c-0.77-0.15-0.58-0.6-0.81-0.84l0.93-0.73c1.13,0.65,0.5,1.04,0.73,1.28
				c0.27-0.89-0.72-2.82,0.45-3.04l-0.45-0.2c1.49-0.28-1.65-1.81,0.54-1.37c-0.04-0.55-1.24-0.62-0.96-1.23
				c0.1-0.16,0.45,0.2,0.57,0.31c0.83-0.44-0.84-0.97,0.57-0.95l-1.24-0.61c1.28-0.24,3.8,0.25,3.72-0.72
				c-0.92-0.53-1.09-0.07-1.87-0.34c2.17,0.14,1.55-2,2.93-2.27c0.61,0.72,2.02,0.72,2.32,1.64c-1.25-0.59-0.64,0.14-0.95,0.34
				c2.82,1.13-0.04-2.68,2.25-1.45l-0.82-0.68c0.21-0.04,1.09,0.06,1.23,0.45l-0.01-1.27c-0.88-0.1-2.86-0.4-2.02,0.41
				c-1.12-0.34-0.4-0.77-1.64-1.22c1.87,0.32-0.4-0.77,0.31-1.19c1.12,1.09,2.15,0.47,2.76,0.89c-0.11-0.36,0.77-0.44,1.32-0.34
				c0.35-0.29-0.19-1.77,0.62-2.07c-0.54-0.03-1.3-0.02-2.11-0.55c0.65,0.01,0.83-0.32-0.1-0.97c-2.39-0.07,2.01,1.7,0.3,1.91
				c-1.24-0.45-1.66-0.37-2.28-0.09c-0.5-0.61-0.83-0.68-1.53-1.24c2.68,0.86,1.16-1.37,2.77-1.42c0.88,0.1,2.18,1.24,2.88,0.68
				l0.32,1.06c-0.22-1.08,0.78,0.26,1.39-0.14l-0.89-0.24c0.07-0.43,0.28-0.48,0.94-0.33l-1.34-0.43c-0.03-0.27,0.04-0.71,0.73-0.29
				c-0.25-0.22-0.47-0.38-0.67-0.5c0.22,0.08,0.39,0.07,0.49-0.17c-0.21,0.04-0.2,0.18-0.54-0.03c0.79-0.65-1.14-0.98-0.71-1.42
				c-0.32-0.09-0.56-0.44-0.59-0.71c1.82,1.15,2.69,0.29,3.87,0.66l-0.03-0.01l1.16-0.22c-0.24,0.04-0.64-0.42-0.71-0.74l-0.01,0.04
				c-0.14-0.4-2.14-0.99-1.2-1.31l0.75,0c-0.1,0.02-0.34-0.22-0.46-0.34l0.72-0.04c-1.35-1.62,1.6-0.41,1.18-1.57
				c0.02,0.27-0.28,0.47-0.75,0c-0.13-0.26,0.19-0.31,0.52-0.23l-0.22-0.1l1.9-0.47c-0.67-0.3-1.15,0.34-1.65-0.41
				c-0.71-0.71,0.39-0.49,0.59-0.66c0.46,0.34,0.62,1.01,1.14,0.78c-0.2-0.2-0.44-0.9-0.9-0.95c0.75-0.09,1.44-0.49,2.51-0.3
				c-0.13-0.25-0.45-0.2-0.55-0.18l0.12,0.12c-0.42,0.07-1.24-0.77-1.06,0.04c-1.58-0.99,0.02-0.99,0.09-1.55l-1.51-0.03
				c-1.37-2.57,1.99-2.56,2.77-3.65c0.25,0.66-0.39,0.62,0.84,1.41c1.05-0.29,0.72-0.39,1.44-0.9l-0.1,0.01
				c-0.36-0.78,1.16-0.43,0.25-1.42c-0.76-0.31,0.26,0.93-1.07,0.01l0.71-0.79c-0.98-0.28-0.72,0.79-1.14,0.99
				c-0.09,0.29,0.52-0.35,1.31,0.37c-0.61,0.77-1.6,0.35-3.13-0.11c-1.09-0.39-0.7-1.02-0.6-1.17c1.75,0.44,2.91,0.14,2.86-1.1
				l-0.69-1.16c1.19,0.25,2.86,1.7,3.14,0.83l-0.87-0.3c-0.17-0.36-0.19-0.53-0.13-0.6c-0.76-0.08-1.61-0.19-2.37-0.31
				c-1.24-1.51,1.59-0.64,2.34-1c-0.22-0.11-0.43,0.05-0.86-0.17c0.3-1.15,2.78-0.75,3.52-1.25c-0.44-0.78-0.85,0.24-1.73-0.63
				c0.64-0.08,0.09-1.13,1.06-0.54c-1.41-0.81,0.52-0.9-1.2-1.12c0.41-1.72,2.7-2.23,4.41-2.95c-0.43-0.24-0.75-0.48-0.97-0.74
				c-0.32,0.45-1.18,0.81-2.26,0.37c-0.43-0.79,1.4-0.01,1.08-0.39c-0.43-0.1-0.65,0.2-1.29-0.29c-0.43-0.94,0.75-0.36,1.08-0.53
				l0.21,0.4c1.51-0.15,2.57,1.28,2.9,0.14c-0.52-0.92-0.64-0.5-1.6-1.25c0.54,0.09,0.02-1.38,1.2-0.79l-0.34,0.59
				c0.56-0.15,0.83-0.5,1.37-0.49c-0.23-0.14-0.45-0.28-0.6-0.27c0.54-0.04,0.76-0.48,1.51-0.12l-0.95-0.9
				c0.31,0.53-0.02,1.11-0.66,0.75c-0.85-0.76,0.12-0.84,0.24-1.13c-1.09,0.78-2.69-0.46-2.72,0.92l0.43,0.1
				c0.34,1.14-1.37,0.69-1.71,1.2c-0.11-0.3-0.46-0.62-0.68-0.69c-0.02,1.68-1.42,2.25-1.86,3.83l-1.3-0.41l0.76,0.61
				c-0.1,0.86-1.19-0.7-1.4-0.25c0.11-0.15,0.22-0.03,0.43,0.09c-1.4,0.03,0.44,0.93-0.1,1.14c0.97,0.44,0.86-0.53,1.83,0.48
				c-1.4,0.03-1.7,1.47-3.67,0.18c-0.21,1.84-2.55,2.61-3.5,3.61c0.23,0.39,0.33,0.09,0.56,0.34c-1.42-0.34-0.26,2.01-1.26,1.32
				c0.12,0.4,0.8,1,1.03,1.25c-0.67-0.05-1.14,0.13-1.52,0.4l0.46-0.07l0.12,0.12l-0.65,0.11l-0.05-0.06c-0.9,0.71-1.37,1.9-3,2.01
				c0.97-0.04,1.14,0.93,1.69,0.97c-1.88-0.65-2.58,0.34-2.95,1.26c0.34,0.22,0.57,0.46,0.91,0.54l-0.98,0.04l0.45,0.2
				c-0.26,1.04-2.65,0.81-2.24,1.86c0.41-0.23,0.76-0.01,1.33,0.31c-0.43,0.58-0.81,1.14-1.76,1.54c0.12,0.03,0.26,0.07,0.38,0.15
				c0.02,0.28-0.52,0.25-0.84,0.31l0.81,0.54c-0.61,0.13-0.48,0.86-1.4,0.88c0.8,0.73-1.49,0.52-1.42,1.26
				c-0.32,0.07,1.21,0.17,0.83,0.68c-1.84-1.03-0.47,0.66-2.43-0.49l0.42,0.9l-1.03-0.49c1.56,1.51-1.18,0.1-0.97,1.05
				c0.23,0.1,0.33,0.08,0.45,0.19c-0.32,0.07-0.71,0.43-1-0.22c-0.19,0.32-1.29,1.11,0.02,1.26c-0.57-0.31,0.17-0.45,0.48-0.52
				c0.81,0.54,0.19,0.81,1.02,1.48c-0.1-0.04-0.28-0.07-0.44-0.11l0.47,0.38c-1.27,0.02-0.99,1.02-2.43,0.72
				c0.24,0.18,0.37,0.41,0.19,0.57l-1.04-0.64l-0.36,0.63l1.68,0.65c-0.12,0.87-2.13,0.28-2.73,0.67c1.63,1.23-1.33,0.67-0.11,2.11
				l0.74-0.14c-0.9,0.72,0.05,1.54-1.09,2.02c-0.1-1.09,0.24-0.88-0.49-2.83c0.05,1.53-2.13,1.22-1.76,2.82
				c0.45,0.2,0.87,0.12,1.13,0.63c-1-0.38-0.56,0.93-1.49,0.12c0.15,0.53,1.08,1.2,1.1,1.48l-1.91,0.19l0.22,0.1
				c1.22,3.26-3.68,2.11-3.82,4.46l0.56,0.33l-1.08-0.12c0.75,0.03,0.57,0.6,1.02,0.95l-1.91,0.27
				C350.46,240.54,351.57,241.22,351.54,240.81z M361.47,226.62l0.24-0.22c-0.02-0.09,0-0.15,0.15-0.14l-0.15,0.14
				C361.77,226.62,362.14,226.99,361.47,226.62z M379.64,203.18c0.55,0.21,0.01,0.28,0.01,0.42l0.43-0.33
				C379.86,203.01,379.75,203.17,379.64,203.18z M368.15,230.76l0.6,0.58l-0.66-0.15L368.15,230.76z M365.81,234.62l0.64-0.13
				l0.12,0.12l-0.64,0.12L365.81,234.62z M357.6,235.24c0.06,0,0.1,0,0.18,0.02C357.74,235.26,357.68,235.25,357.6,235.24
				c-0.68-0.04,0.47,0.88-0.86,0.34C355.91,234.62,357.08,235.13,357.6,235.24z M361.79,228.66c0.21-0.04,0.32-0.06,0.3-0.2
				c-0.45-0.19-1.22-0.32-1.25-0.59c0.56,0.17,0.95-0.19,1.64,0.24C361.51,228.01,363.28,229.49,361.79,228.66z M367.83,219.95
				l0.01,0.14l0.76-0.02L367.83,219.95z M369.55,218.75c1.01,0.36,1.17-0.24,1.59-0.46c-0.7-0.57-1.8-0.77-1.98-0.31
				C368.19,218.04,370.22,218.9,369.55,218.75z M361.29,232.39l0.67,0.29l0.02,0.14l0.63-0.12c0.53,1.03-1.25,0.38-1.68,0.46
				C361.14,232.98,363,233.33,361.29,232.39z M372.21,215.54c0.76,0,1.83-0.2,2.4,0.26c-1.14-0.78-2-0.62-2.09-0.46
				C372.53,215.48,372.42,215.5,372.21,215.54z M374.38,216.96c-0.86,0.16-1.41-0.15-2.74-0.46c-0.17-0.82,1.41,0.01,1.98,0.46
				c0.76,0-0.03-0.42-0.05-0.69L374.38,216.96z M370.79,215.39l0.03,0.31c0.33,0.55,1.61,1.45,0.08,0.95l-0.08-0.95
				C370.73,215.57,370.71,215.46,370.79,215.39z M373.63,211.18l-0.53-0.06C373.28,210.95,373.46,211.04,373.63,211.18l0.45,0.05
				C374.2,211.96,373.95,211.46,373.63,211.18z M371.82,214.62l-0.51,0.52C371.88,215.46,371.83,214.91,371.82,214.62z M374.56,212
				c-0.1,0.3-0.36,1.06-0.38,0.92C373.61,212.45,374.12,211.93,374.56,212z M385.24,200.42l-0.33,0.31l-0.65-0.76L385.24,200.42z
				 M382.7,205.03l-0.33-0.38l0.21-0.16L382.7,205.03z M379.96,208.96c-0.16-0.14-0.38-0.28-0.59-0.38
				c-0.11,0.01-0.25-0.01-0.44-0.1c0.04-0.06,0.22,0,0.44,0.1c0.29-0.03,0.36-0.33,0.19-0.61c-0.44-0.22-0.54,0.08-0.87-0.01
				c-0.68-1.03,2.71,0.17-0.16-1.52c0.43,0.08,1.51,0.06,1.85,0.58C379.94,207.31,379.67,208.3,379.96,208.96
				c0.13,0.12,0.22,0.23,0.19,0.32C380.06,209.19,380,209.08,379.96,208.96z M376.9,214.69c-0.17,0.11-0.29,0.12-0.4,0.09
				c-0.29-0.01-0.66-0.11-1.02-0.4c0.54-0.1,0.72,0.31,1.02,0.4C376.67,214.77,376.82,214.75,376.9,214.69z M376.44,215.75
				l0.85-0.15l-0.76-0.15l1.61,0C378.41,216.25,377.23,216.17,376.44,215.75z M376.86,216.27l-0.73-0.33l0.78,0.29L376.86,216.27
				l0.17,0.08l-0.92,0.58L376.86,216.27z M370.07,224.02c2.13,1.76,2.11,0.27,3.34,0.81c-0.75-0.52-1.76-1.59-2.25-0.75
				c-0.34-1.2,1.78,0.49,0.1-1.15c-0.07,0.43-0.93,0.47-1.03,0.49l0.17-0.45C368.81,222.3,370.71,224.03,370.07,224.02z
				 M367.72,228.59l-0.38,0.5l0.5-0.38L367.72,228.59z M360,242c0.56,0.32,1.07,1.65-0.04,1.13C360.04,242.69,360.34,242.36,360,242
				z M356.08,247.38l0.85-0.27c1.12,0.95-0.41,0.48-0.39,0.9C355.88,247.69,356.42,247.75,356.08,247.38z M353.41,251.1l-0.32,0.04
				l1.31,0.66L353.41,251.1z M355.16,251.98c0.45,0.5,0.98,0.28,0.98,0.14L355.16,251.98z M353.74,256.08l0.1-0.29l-1.2-0.55
				L353.74,256.08z M352.8,254.81c0.79,0.49,1.78,1.26,1.68,0.34c-0.77-0.6-0.87-0.45-1.65-1.32c-0.32,0.04-0.1,0.43-0.1,0.57
				c0.22-0.03-0.01-0.42,0.54-0.07C353.42,254.75,353.17,254.89,352.8,254.81c-0.28-0.18-0.54-0.32-0.71-0.33
				C352.33,254.65,352.58,254.76,352.8,254.81z M353.43,252.23c-0.04-0.14-0.1-0.28-0.21-0.4l0.22,0.11
				C353.72,252.26,353.6,252.26,353.43,252.23c0.05,0.15,0.07,0.31,0.09,0.47c0.62,0.54,1.34,0.5,1.79,0.66
				c-0.32,0.04-1.08-0.27-0.85,0.26c0.22,0.11,0.33,0.24,0.43,0.08l-0.09,0.43c-1.2-0.3-1.22-0.86-1.27-1.44
				c-0.14-0.12-0.27-0.26-0.39-0.44C353.07,252.13,353.27,252.2,353.43,252.23z M350.03,253.75l0.32-0.04
				c0.33,0.1,0.55,0.35,0.76,0.46C350.9,254.34,350.25,254.28,350.03,253.75z M357.46,242.83c0.12,0.26,1.11,0.53,1.09,0.11
				l0.91,0.83c-0.67-0.45-0.96,0.15-1.07,0.17C357.39,243.4,357.93,243.46,357.46,242.83z M365.81,229.96
				c1.37,0.71,1.03-0.49,1.47-0.44C367.33,230.08,367.11,231.11,365.81,229.96z M366.05,228.4c0.14-0.18,0.05-0.32,0.69,0.11
				c0.33,0.08,0.08-0.3,0.41-0.22C367.49,229.02,366.46,228.35,366.05,228.4c-0.04,0.05-0.08,0.1-0.17,0.15
				C365.89,228.44,365.96,228.41,366.05,228.4z M361.17,235.91l-1.11-0.36l-0.18,0.45L361.17,235.91z M356.68,239.05
				c0.56,0.33,0.27,0.79-0.06,0.71c0.73,0.45,0.84,0.08,1.07-0.11c0.08,0.01,0.15-0.02,0.2-0.1c-0.08,0.01-0.14,0.05-0.2,0.1
				c-0.23-0.02-0.55-0.33-0.79-0.49l-0.13-0.26l-0.42,0.2L356.68,239.05z M350.85,245.88c0.35,0.65,0.13,0.54-0.19,0.58
				C350.43,246.21,350.53,245.92,350.85,245.88z M357.56,236.41c0.05,0.69,1.22,0.49,1.37,1.02l0.09-0.29
				c0.5,0.89-0.99-0.26-0.96,0.16l-0.02-0.27c-0.59-0.59-0.65-0.03-1.21-0.35C356.69,236.27,357.54,236.13,357.56,236.41z
				 M350.1,245.98c0.36,0.92-0.97-0.15-1.28,0.03C348.46,245.22,349.68,246.17,350.1,245.98z M353.59,237.88l-0.11-0.12l-0.63,0.1
				l0.12,0.12L353.59,237.88z"/>
		</g>
		<g>
			<path class="st0" d="M356.65,251.49c0.01,0.17-0.06,0.23-0.16,0.26C356.52,251.64,356.56,251.55,356.65,251.49z"/>
		</g>
		<g>
			<path class="st0" d="M371.68,230.32c-0.18-0.13-0.25-0.23-0.28-0.32C371.51,230.07,371.6,230.17,371.68,230.32z"/>
		</g>
		<g>
			<path class="st0" d="M372.7,229.68c0.01-0.01,0.01-0.02,0.03-0.03l0.08,0.01L372.7,229.68z"/>
		</g>
		<g>
			<path class="st0" d="M391.39,197.77c0.96,0.47,0,0.28-0.12,0.42C391.38,198.04,390.85,197.53,391.39,197.77z"/>
		</g>
		<g>
			<path class="st0" d="M389.12,197.81c0.31,0.11,0.57,0.12,0.76,0.02C389.83,197.95,389.67,197.98,389.12,197.81z"/>
		</g>
		<g>
			<path class="st0" d="M390.21,197.17c-0.01,0.36-0.13,0.57-0.33,0.67C389.96,197.66,389.75,197.29,390.21,197.17z"/>
		</g>
		<g>
			<path class="st0" d="M386.96,201.07c0.65,0.21,0.64-0.34,0.64-0.34c-0.11,1.12,1.08,0.59,1.5,0.82
				C388.57,201.88,387.93,201.39,386.96,201.07z"/>
		</g>
		<g>
			<path class="st0" d="M385.93,201.87c0.05-0.08,0.09-0.17,0.06-0.29C386.06,201.76,386.02,201.84,385.93,201.87z"/>
		</g>
		<g>
			<path class="st0" d="M386.21,202.53c-0.32,0.17-0.97-0.18-1.51-0.39c-0.17-0.63,0.91-0.14,1.23-0.26
				C385.8,202.07,385.59,202.2,386.21,202.53z"/>
		</g>
		<g>
			<path class="st0" d="M383.11,212.74c0.11-0.02,0.21-0.17,0.54,0.06l-0.3,0.45C383.03,213.3,383.11,212.87,383.11,212.74z"/>
		</g>
		<g>
			<path class="st0" d="M380.36,213.29c-0.3,0.33,0.69,0.73,0.37,0.77l-1.13-0.8L380.36,213.29z"/>
		</g>
		<g>
			<path class="st0" d="M374.74,209.14l0.19-0.03c-0.04,0.03-0.08,0.06-0.13,0.1L374.74,209.14z"/>
		</g>
		<g>
			<path class="st0" d="M380.31,215.79l1.44,0.6C381.22,216.48,380.21,215.8,380.31,215.79z"/>
		</g>
		<g>
			<polygon class="st0" points="380.26,217.74 380.79,217.79 379.97,218.21 			"/>
		</g>
		<g>
			<polygon class="st0" points="378.54,219.01 378.77,219.25 378.15,219.49 			"/>
		</g>
		<g>
			<path class="st0" d="M365.7,237.04c-1.14-0.63-0.19-1.09-0.34-1.49C366.63,236.58,364.51,235.85,365.7,237.04z"/>
		</g>
		<g>
			<path class="st0" d="M356.62,250.51l0.74-0.52C357.39,250.82,357.26,250.14,356.62,250.51z"/>
		</g>
	</g>
	<g>
		<g>
			<path class="st0" d="M433.91,253.38c-0.03,0.06-0.02,0.13-0.04,0.19C433.76,253.49,433.73,253.43,433.91,253.38z"/>
		</g>
		<g>
			<path class="st0" d="M434.39,255.29c-0.28-0.39-0.7-1.02-0.52-1.72C434.24,253.84,435.61,254.33,434.39,255.29z"/>
		</g>
		<g>
			<path class="st0" d="M435.96,251.92l-0.05,0.76C435.36,252.62,436.01,252.27,435.96,251.92z"/>
		</g>
		<g>
			<polygon class="st0" points="434.87,252.91 434.38,253.19 434.66,252.62 			"/>
		</g>
		<g>
			<path class="st0" d="M411.37,232.89c-0.14,0.21-0.31,0.43-0.58,0.64L411.37,232.89z"/>
		</g>
		<g>
			<path class="st0" d="M412.3,230.11c-0.02-0.15-0.05-0.24-0.08-0.32C412.31,229.83,412.31,229.92,412.3,230.11z"/>
		</g>
		<g>
			<path class="st0" d="M412.41,233.65l-0.23-0.12C412.29,233.53,412.38,233.56,412.41,233.65z"/>
		</g>
		<g>
			<path class="st0" d="M424.09,243.56c-0.17,0.43-0.33,0.83-0.44,1.12C423.05,244.6,423.74,244,424.09,243.56z"/>
		</g>
		<g>
			<path class="st0" d="M414.19,219.88l-0.38,0.26C413.92,219.95,414.05,219.8,414.19,219.88z"/>
		</g>
		<g>
			<path class="st0" d="M417.64,224.68c-0.19,0.18-0.34,0.31-0.46,0.39c0.01-0.04,0.01-0.08,0.03-0.13L417.64,224.68z"/>
		</g>
		<g>
			<path class="st0" d="M413.75,233.72c0.02-0.01,0.03-0.02,0.05-0.02l-0.07,0.34C413.58,234.02,413.6,233.92,413.75,233.72z"/>
		</g>
		<g>
			<path class="st0" d="M413.44,218.06c0.14-0.23,0.33-0.49,0.61-0.82C414,217.51,413.72,217.86,413.44,218.06z"/>
		</g>
		<g>
			<path class="st0" d="M412.19,229.77l0.01-0.02c0.01,0.01,0.01,0.03,0.01,0.04C412.2,229.79,412.21,229.77,412.19,229.77z"/>
		</g>
		<g>
			<path class="st0" d="M418.63,226.47c-0.01-0.13-0.04-0.24-0.04-0.39C418.76,226.11,418.74,226.28,418.63,226.47z"/>
		</g>
		<g>
			<path class="st0" d="M424.09,243.56c0.05-0.12,0.1-0.24,0.15-0.37C424.29,243.27,424.22,243.4,424.09,243.56z"/>
		</g>
		<g>
			<path class="st0" d="M432.16,252.61c-0.11-0.16,0.13-0.38,0.38-0.59C432.48,252.2,432.37,252.39,432.16,252.61z"/>
		</g>
		<g>
			<path class="st0" d="M388.01,198l-0.03-0.07C388.02,197.94,388.02,197.97,388.01,198z"/>
		</g>
		<g>
			<path class="st0" d="M390.68,205.16c-0.07,0.08-0.15,0.17-0.26,0.27C390.28,205.44,390.45,205.3,390.68,205.16z"/>
		</g>
		<g>
			<path class="st0" d="M403.64,205.08c-0.81-0.03,0.07-1.16-0.09-1.53l-0.4,0.42l0.18-0.59l-0.68,0.44
				c-0.06-0.75-1.18-1.05-0.22-1.93l-1.06,0.75l0.5-1.15l-0.53,0.81c-0.65-0.55-0.42-2.12-0.52-2.26l-0.38,0.31
				c-0.28,0.01-0.06-0.24,0-0.44l-0.57,0.46c-0.45-1.14-2.06-0.59-2.06-2.18c-0.33-0.24-0.1,0.3-0.45,0.51
				c-0.6,0.11-0.36-0.59-0.13-0.84c-0.93,0.66-0.34,0.99-1.35,1.06c0.33-0.55-0.8,0.71-0.88,0.11l1.15-0.91
				c-0.37-0.14-1.02,0.51-1.13,0.01c0.28-0.8,1.76-0.22,1.51-1.1c-0.3-0.34-3.39,0.82-3.14-0.32c-1.03-0.29-1.78,1.44-1.97,0.35
				l-0.5,1.05c-0.45,0.05-1.03,0.49-0.98-0.06c0.42-0.4,0.91-0.99,0.86-1.24c-0.48,1.39-1.88,0.03-2.67,1.52l-0.12-0.33
				c-0.03,0.06-0.15,0.14-0.25,0.17l-0.31-0.36c-0.14,0.4,0.08,1.06-1.01,1.29l-0.57-0.46c-0.62,0.54-1.03,0.48-1.58,0.83l-0.38,2.5
				c0.38-0.3,0.52-0.71,1-0.85c0.63,0.26-0.55,0.81,0.28,0.92l0.45-0.5c-0.19,0.15-0.23,0.25-0.35,0.2
				c-0.45,0.05-0.06-0.26,0.29-0.45c0.8-0.24,0.57,0.46,0.15,0.87c0.41,0.52,1.34-0.6,1.63-0.6c-1.03,0.96,0.56,0.93,0.21,1.59
				l0.64-0.66c1.17-0.1,0.62,0.72,0.49,1.12l0.57-0.46c0.22,0.67,2.48-0.27,0.53,1.48l0.38-0.31c0.34,0.13,1.03,0.21,0.51,0.84
				c0.26-0.15,0.61-0.3,0.75-0.25c-0.78,0.64,0.02,0.5,0.39,0.76c0.08-0.37,1.23-0.95,1.35-1.36c1.46-0.14-0.93,1.23-0.64,1.68
				c0.73-0.07,0.47-0.62,0.84-0.93c-0.17,1.07,3.4-0.12,1.48,1.67l-0.88,0.13c-0.3,0.57-0.21,0.72-0.02,0.56
				c-0.13-0.05,0.06-0.2,0.25-0.36c1.63,0.14-0.8,2.32,0.2,2.89c0.37-0.32,0.42-0.53,0.76-0.75c0.67,0.11-1.85,1.73-0.6,1.81
				l0.39-0.43c0.42,0.02-0.16,0.62-0.31,0.68c1.84-1.19,0.78,1.39,3.43,0.23c-0.81,0.98-0.99,2.37-0.25,2.25
				c1.34-0.38,0.95-1.15,2.06-1.71c0.21,0.28-0.67,1.12-0.02,1.31c-0.99,0.71-2.64,0.55-2.62,1.77l0.62-0.26
				c-0.13-0.04-0.42-0.01-0.37-0.22c0.42-0.65,0.77-0.32,1.08-0.46l0.32,1.09c-1.01,0.82-1.14,0.11-1.44,0.24
				c0.73,0.55,2.86,0.28,2.62,1.43l0.35-0.35c-0.28,1.47,2.25-0.95,1.07,0.94c0.53,0.13,1.01-0.95,1.47-0.51
				c0.11,0.14-0.34,0.35-0.49,0.43c0.11,0.9,1.18-0.48,0.68,0.82l0.99-0.96c-0.23,1.24-1.57,3.47-0.62,3.67
				c0.79-0.7,0.42-0.99,0.94-1.63c-0.85,1.97,1.35,2.01,1.15,3.38c-0.87,0.36-1.32,1.69-2.28,1.7c0.95-1,0.08-0.64-0.01-0.99
				c-1.95,2.32,2.51,0.77,0.65,2.55l0.89-0.58c-0.02,0.21-0.39,1.01-0.81,1.04l1.21,0.34c0.36-0.81,1.25-2.58,0.22-2.02
				c0.66-0.95,0.84-0.17,1.65-1.2c-0.88,1.67,0.84-0.17,1.02,0.61c-1.37,0.76-1.09,1.9-1.67,2.37c0.37-0.01,0.18,0.86-0.07,1.35
				c0.17,0.42,1.73,0.29,1.78,1.14c0.18-0.51,0.39-1.23,1.13-1.86c-0.19,0.61,0.06,0.87,0.94,0.15c0.76-2.24-2.18,1.48-1.89-0.19
				c0.78-1.05,0.83-1.48,0.77-2.13c0.71-0.31,0.88-0.6,1.62-1.12c-1.62,2.31,0.93,1.42,0.5,2.96c-0.35,0.8-1.79,1.76-1.46,2.57
				l-1.09,0.04c1.08,0.07-0.47,0.68-0.26,1.36l0.48-0.79c0.39,0.17,0.38,0.39,0.05,0.98l0.78-1.17c0.27,0.04,0.66,0.21,0.07,0.77
				c0.28-0.19,0.49-0.35,0.66-0.51c-0.14,0.18-0.18,0.36,0.02,0.51c0.02-0.21-0.12-0.23,0.18-0.51c0.4,0.9,1.23-0.85,1.53-0.34
				c0.17-0.28,0.57-0.43,0.83-0.39c-1.59,1.46-1.01,2.49-1.67,3.53l0.02-0.02l-0.1,1.16c0.02-0.24,0.57-0.51,0.89-0.5l-0.03-0.02
				c0.41-0.05,1.51-1.82,1.56-0.85l-0.2,0.72c0.01-0.1,0.29-0.28,0.44-0.36l-0.15,0.69c1.89-0.93-0.04,1.62,1.17,1.47
				c-0.27-0.04-0.37-0.37,0.2-0.72c0.28-0.07,0.25,0.25,0.09,0.54l0.15-0.19l-0.05,1.9c0.46-0.57-0.01-1.17,0.82-1.48
				c0.86-0.52,0.36,0.48,0.47,0.71c-0.44,0.36-1.11,0.37-1.03,0.91c0.24-0.15,0.97-0.23,1.13-0.65c-0.11,0.74,0.08,1.47-0.39,2.45
				c0.27-0.07,0.31-0.38,0.32-0.48l-0.14,0.08c0.04-0.42,1.05-1.01,0.24-1.02c1.35-1.29,0.92,0.24,1.44,0.42l0.42-1.42
				c2.8-0.76,1.88,2.44,2.7,3.42c-0.69,0.1-0.48-0.5-1.55,0.49c-0.01,1.06,0.17,0.77,0.46,1.55l0.01-0.1
				c0.83-0.17,0.08,1.19,1.25,0.55c0.5-0.65-0.94,0.04,0.29-1.02l0.54,0.85c0.54-0.86-0.54-0.85-0.61-1.29
				c-0.24-0.15,0.18,0.57-0.71,1.16c-0.55-0.75,0.09-1.58,0.94-2.93c0.66-0.95,1.14-0.44,1.27-0.31c-0.87,1.55-0.93,2.73,0.26,2.95
				l1.28-0.39c-0.57,1.07-2.39,2.31-1.65,2.77l0.53-0.75c0.38-0.08,0.55-0.06,0.6,0.01c0.29-0.69,0.63-1.47,0.95-2.16
				c1.76-0.81,0.18,1.64,0.3,2.43c0.16-0.18,0.07-0.42,0.4-0.78c0.99,0.56-0.09,2.8,0.16,3.61c0.86-0.23,0.02-0.86,1.09-1.47
				c-0.11,0.62,1.03,0.35,0.2,1.13c1.17-1.12,0.69,0.7,1.4-0.85c1.52,0.8,1.29,3.09,1.45,4.86c0.35-0.34,0.68-0.57,0.99-0.71
				c-0.32-0.42-0.4-1.31,0.34-2.21c0.87-0.2-0.41,1.31,0.04,1.11c0.22-0.38,0-0.66,0.66-1.13c1.01-0.16,0.11,0.8,0.17,1.15
				l-0.44,0.1c-0.32,1.44-1.98,2.07-1.01,2.66c1.02-0.25,0.66-0.46,1.66-1.16c-0.26,0.48,1.28,0.39,0.36,1.34l-0.44-0.47
				c-0.03,0.56,0.2,0.91,0.02,1.4c0.2-0.17,0.41-0.34,0.44-0.48c-0.13,0.51,0.21,0.84-0.37,1.44l1.14-0.64
				c-0.6,0.14-1.03-0.32-0.49-0.82c0.98-0.59,0.75,0.34,0.98,0.53c-0.39-1.23,1.28-2.39-0.01-2.79l-0.23,0.38
				c-1.17,0.01-0.23-1.46-0.61-1.91c0.31-0.02,0.72-0.27,0.85-0.46c-1.58-0.46-1.69-1.93-3.05-2.75l0.76-1.12l-0.8,0.56
				c-0.78-0.31,1-0.95,0.64-1.26c0.11,0.14-0.04,0.21-0.21,0.39c0.37-1.33-1.01,0.18-1.05-0.38c-0.69,0.81,0.25,0.94-0.98,1.61
				c0.38-1.32-0.9-1.96,0.88-3.51c-1.67-0.66-1.78-3.04-2.46-4.19c-0.43,0.13-0.18,0.29-0.47,0.45c0.71-1.28-1.84-0.72-0.92-1.51
				c-0.42,0.03-1.16,0.54-1.45,0.7c0.22-0.63,0.18-1.11,0.03-1.54l-0.05,0.45l-0.15,0.08l0.07-0.64l0.07-0.04
				c-0.43-1.02-1.44-1.73-1.12-3.29c-0.22,0.93-1.18,0.88-1.36,1.39c1.11-1.65,0.36-2.53-0.42-3.09c-0.29,0.28-0.58,0.45-0.74,0.75
				l0.22-0.93l-0.31,0.38c-0.91-0.45-0.05-2.68-1.15-2.52c0.1,0.44-0.2,0.72-0.64,1.19c-0.43-0.53-0.86-1.02-0.97-1.99
				c-0.06,0.11-0.14,0.22-0.24,0.33c-0.26-0.03-0.08-0.54-0.06-0.86l-0.73,0.64c0.05-0.6-0.67-0.64-0.42-1.52
				c-0.91,0.59-0.07-1.52-0.76-1.61c0.03-0.31-0.51,1.09-0.87,0.62c1.5-1.49-0.47-0.6,1.17-2.16l-0.95,0.18l0.76-0.84
				c-1.86,1.11,0.26-1.12-0.67-1.14c-0.16,0.19-0.17,0.29-0.31,0.38c0.04-0.31-0.16-0.76,0.51-0.87c-0.23-0.24-0.58-1.44-1.14-0.27
				c0.46-0.46,0.36,0.26,0.31,0.57c-0.74,0.63-0.79-0.01-1.67,0.6c0.07-0.08,0.15-0.24,0.24-0.39l-0.5,0.34
				c0.39-1.18-0.62-1.16,0.13-2.41c-0.25,0.18-0.5,0.24-0.59,0.04l0.92-0.8l-0.45-0.49l-1.15,1.38c-0.74-0.34,0.48-2.03,0.33-2.68
				c-1.67,1.17-0.14-1.38-1.87-0.64l-0.13,0.71c-0.35-1-1.4-0.38-1.42-1.55c1.02,0.2,0.69,0.49,2.71,0.33
				c-1.4-0.36-0.3-2.26-1.88-2.36c-0.34,0.35-0.43,0.75-0.98,0.84c0.71-0.8-0.64-0.77,0.44-1.38c-0.53-0.01-1.48,0.63-1.74,0.57
				c0.17-0.59,0.36-1.19,0.56-1.78l-0.18,0.17c-1.68,0.07-1.82-0.94-1.76-2.04c0.04-1.09,0.28-2.31-0.72-2.76l-0.52,0.39l0.54-0.92
				c-0.33,0.66-0.77,0.32-1.26,0.6l0.52-1.78C404.32,204.2,403.27,204.96,403.64,205.08z M412.7,218.18l0.12,0.27
				c0.09,0,0.14,0.04,0.08,0.17l-0.08-0.17C412.61,218.45,412.14,218.7,412.7,218.18z M429.52,240.57
				c-0.35,0.47-0.27-0.06-0.39-0.09l0.19,0.49C429.62,240.82,429.5,240.68,429.52,240.57z M406.74,223.3l-0.73,0.4l0.35-0.58
				L406.74,223.3z M403.92,220l-0.09,0.63l-0.15,0.07l0.1-0.63L403.92,220z M406.28,212.28c-0.02,0.05-0.04,0.09-0.08,0.16
				C406.2,212.41,406.23,212.35,406.28,212.28c0.29-0.6-0.96,0.15,0.03-0.89C407.47,210.94,406.57,211.84,406.28,212.28z
				 M410.76,217.95c-0.03,0.21-0.05,0.31,0.08,0.33c0.33-0.37,0.7-1.04,0.96-0.99c-0.34,0.47-0.16,0.92-0.77,1.45
				C411.43,217.86,409.5,219.1,410.76,217.95z M416.88,225.64l-0.14-0.02l-0.2,0.72L416.88,225.64z M417.52,227.53
				c-0.61,0.87-0.1,1.15,0,1.6c0.72-0.54,1.21-1.54,0.83-1.8C418.56,226.4,417.2,228.13,417.52,227.53z M407.52,216.48l-0.5,0.53
				l-0.13-0.03l-0.12,0.62c-1.11,0.18,0.1-1.28,0.18-1.69C407.05,216.16,406.07,217.77,407.52,216.48z M419.82,230.74
				c-0.2,0.72-0.29,1.77-0.87,2.22c1.03-0.92,1.11-1.77,0.98-1.89C419.79,231.05,419.8,230.95,419.82,230.74z M417.9,232.49
				c0.07-0.84,0.52-1.31,1.16-2.5c0.81,0.01-0.38,1.33-0.96,1.78c-0.2,0.72,0.4,0.06,0.67,0.09L417.9,232.49z M420.33,229.42
				l-0.3-0.04c-0.61,0.19-1.79,1.22-0.91-0.13l0.91,0.13C420.18,229.34,420.29,229.34,420.33,229.42z M423.55,233.03l0.19-0.49
				C423.87,232.74,423.73,232.9,423.55,233.03l-0.17,0.41C422.67,233.4,423.2,233.27,423.55,233.03z M420.78,230.56l-0.36-0.59
				C419.98,230.44,420.51,230.52,420.78,230.56z M422.54,233.74c-0.26-0.15-0.9-0.57-0.77-0.55
				C422.36,232.74,422.71,233.34,422.54,233.74z M430.52,246.54l-0.19-0.39l0.91-0.41L430.52,246.54z M426.92,243.03l0.45-0.22
				l0.09,0.24L426.92,243.03z M423.98,239.53c0.18-0.12,0.37-0.3,0.52-0.48c0.02-0.11,0.08-0.24,0.21-0.39
				c0.04,0.05-0.06,0.21-0.21,0.39c-0.05,0.28,0.22,0.42,0.52,0.32c0.32-0.37,0.07-0.53,0.25-0.82c1.15-0.41-0.9,2.53,1.48,0.2
				c-0.19,0.39-0.47,1.42-1.05,1.62C425.54,239.89,424.68,239.41,423.98,239.53c-0.15,0.1-0.28,0.16-0.35,0.11
				C423.74,239.58,423.86,239.55,423.98,239.53z M419.39,235.38c-0.05-0.18-0.03-0.3,0.02-0.4c0.08-0.27,0.28-0.61,0.64-0.88
				c-0.05,0.54-0.49,0.62-0.64,0.88C419.37,235.15,419.35,235.29,419.39,235.38z M418.51,234.72l-0.08,0.84l0.34-0.69l-0.43,1.53
				C417.52,236.48,417.91,235.37,418.51,234.72z M417.91,235l0.5-0.62l-0.48,0.68L417.91,235l-0.11,0.14l-0.3-1.01L417.91,235z
				 M412.46,226.82c-2.25,1.59-0.86,1.94-1.7,2.97c0.7-0.59,1.98-1.29,1.33-1.96c1.22-0.03-0.96,1.57,1.05,0.37
				c-0.39-0.16-0.18-0.99-0.17-1.09l0.38,0.27C414.42,226.04,412.27,227.43,412.46,226.82z M408.9,223.47l-0.34-0.49l0.2,0.57
				L408.9,223.47z M399.25,212.3c-0.51,0.4-1.92,0.42-1.01-0.42C398.59,212.11,398.79,212.49,399.25,212.3z M395.92,206.89
				l-0.11,0.86c-1.31,0.67-0.27-0.54-0.65-0.68C395.73,206.59,395.45,207.06,395.92,206.89z M393.66,203.15l0.09-0.3l-1.13,0.93
				L393.66,203.15z M392.15,204.39c-0.63,0.22-0.66,0.77-0.53,0.82L392.15,204.39z M389.06,201.57l0.22,0.2l0.99-0.86L389.06,201.57
				z M390.59,201.22c-0.77,0.52-1.87,1.11-1.01,1.37c0.86-0.46,0.76-0.61,1.88-0.97c0.1-0.3-0.34-0.25-0.47-0.3
				c-0.07,0.21,0.38,0.15-0.17,0.51C390.39,201.8,390.37,201.52,390.59,201.22c0.28-0.18,0.51-0.36,0.6-0.51
				C390.94,200.86,390.73,201.04,390.59,201.22z M392.64,202.75c0.14,0.01,0.29,0.01,0.45-0.04l-0.19,0.16
				C392.49,203,392.53,202.89,392.64,202.75c-0.16-0.02-0.31-0.05-0.46-0.1c-0.75,0.35-1,1.02-1.34,1.35
				c0.09-0.3,0.69-0.86,0.12-0.86c-0.19,0.15-0.35,0.21-0.25,0.36l-0.35-0.25c0.77-0.96,1.29-0.77,1.81-0.6
				c0.16-0.08,0.34-0.15,0.56-0.19C392.87,202.47,392.73,202.62,392.64,202.75z M392.71,199.15l-0.1,0.3
				c-0.23,0.25-0.54,0.35-0.74,0.51C391.81,199.7,392.14,199.15,392.71,199.15z M399.48,209.71c-0.28,0.02-0.91,0.82-0.52,0.95
				l-1.1,0.54c0.67-0.46,0.24-0.93,0.26-1.03C399,209.45,398.73,209.92,399.48,209.71z M408.22,221.32
				c-1.11,1.09,0.13,1.09-0.06,1.49C407.63,222.72,406.74,222.22,408.22,221.32z M409.6,221.96c0.13,0.18,0.28,0.13-0.32,0.62
				c-0.17,0.29,0.25,0.15,0.08,0.44C408.57,223.14,409.51,222.35,409.6,221.96c-0.03-0.05-0.07-0.1-0.08-0.19
				C409.61,221.8,409.62,221.87,409.6,221.96z M404.36,215.32l0.73-0.9l-0.35-0.29L404.36,215.32z M403.19,210.26
				c-0.51,0.4-0.82-0.01-0.62-0.28c-0.68,0.51-0.39,0.73-0.31,1c-0.04,0.07-0.04,0.14,0.01,0.21c0.02-0.08,0.01-0.14-0.01-0.21
				c0.1-0.2,0.5-0.39,0.75-0.56l0.28-0.03l-0.03-0.44L403.19,210.26z M399.4,202.73c-0.72,0.08-0.54-0.07-0.44-0.37
				C399.28,202.25,399.5,202.43,399.4,202.73z M405.25,211.88c-0.64-0.17-0.9,0.96-1.43,0.93l0.23,0.17
				c-0.99,0.17,0.6-0.82,0.22-0.92l0.26,0.07c0.76-0.35,0.27-0.58,0.78-0.99C405.7,211.13,405.5,211.94,405.25,211.88z
				 M399.62,202.04c-0.97,0,0.53-0.81,0.51-1.15C400.97,200.85,399.62,201.59,399.62,202.04z M405.44,207.86l0.15-0.07l0.16-0.59
				l-0.15,0.07L405.44,207.86z"/>
		</g>
		<g>
			<path class="st0" d="M391.99,205.91c-0.16-0.06-0.19-0.14-0.17-0.24C391.9,205.73,391.97,205.8,391.99,205.91z"/>
		</g>
		<g>
			<path class="st0" d="M406.07,226.74c0.17-0.14,0.29-0.18,0.39-0.18C406.36,226.64,406.24,226.7,406.07,226.74z"/>
		</g>
		<g>
			<path class="st0" d="M406.37,227.88c0,0.01,0.02,0.02,0.02,0.03l-0.03,0.08L406.37,227.88z"/>
		</g>
		<g>
			<path class="st0" d="M431.11,252.96c-0.75,0.77-0.26-0.08-0.36-0.22C430.85,252.88,431.5,252.53,431.11,252.96z"/>
		</g>
		<g>
			<path class="st0" d="M431.78,250.84c-0.2,0.26-0.29,0.5-0.26,0.7C431.43,251.47,431.45,251.3,431.78,250.84z"/>
		</g>
		<g>
			<path class="st0" d="M432.04,252.03c-0.33-0.1-0.49-0.27-0.52-0.48C431.66,251.66,432.07,251.56,432.04,252.03z"/>
		</g>
		<g>
			<path class="st0" d="M429.39,247.99c-0.39,0.55,0.12,0.69,0.12,0.69c-1.01-0.38-0.87,0.86-1.23,1.2
				C428.15,249.29,428.8,248.82,429.39,247.99z"/>
		</g>
		<g>
			<path class="st0" d="M428.95,246.82c0.06,0.07,0.13,0.13,0.25,0.13C429.02,246.98,428.96,246.91,428.95,246.82z"/>
		</g>
		<g>
			<path class="st0" d="M428.25,246.92c-0.06-0.35,0.45-0.87,0.81-1.32c0.66-0.01-0.14,0.88-0.11,1.22
				C428.81,246.65,428.75,246.42,428.25,246.92z"/>
		</g>
		<g>
			<path class="st0" d="M419.57,241.68c-0.01,0.1,0.1,0.23-0.2,0.49l-0.35-0.37C419.06,241.49,419.44,241.66,419.57,241.68z"/>
		</g>
		<g>
			<path class="st0" d="M419.79,238.96c-0.22-0.36-0.87,0.5-0.83,0.18l1.05-0.9L419.79,238.96z"/>
		</g>
		<g>
			<path class="st0" d="M425.19,234.53l-0.02,0.19c-0.02-0.05-0.04-0.09-0.06-0.14L425.19,234.53z"/>
		</g>
		<g>
			<path class="st0" d="M417.45,238.38l-0.95,1.24C416.57,239.1,417.47,238.28,417.45,238.38z"/>
		</g>
		<g>
			<polygon class="st0" points="415.63,237.91 415.44,238.41 415.27,237.54 			"/>
		</g>
		<g>
			<polygon class="st0" points="414.89,236.01 414.6,236.18 414.53,235.53 			"/>
		</g>
		<g>
			<path class="st0" d="M401.73,219.14c0.98-0.86,1.07,0.15,1.49,0.15C401.83,220.15,403.23,218.41,401.73,219.14z"/>
		</g>
		<g>
			<path class="st0" d="M392.88,206.24l0.17,0.86C392.29,206.82,392.96,206.95,392.88,206.24z"/>
		</g>
	</g>
	<g>
		<g>
			<path class="st0" d="M404.89,138.26c0.08,0,0.15-0.05,0.23-0.06C405.04,138.37,404.97,138.43,404.89,138.26z"/>
		</g>
		<g>
			<path class="st0" d="M407.03,136.68c-0.41,0.53-1.07,1.35-1.91,1.52C405.36,137.64,405.7,135.85,407.03,136.68z"/>
		</g>
		<g>
			<path class="st0" d="M402.87,136.77l0.88-0.35C403.77,137.06,403.26,136.53,402.87,136.77z"/>
		</g>
		<g>
			<polygon class="st0" points="404.18,137.45 404.59,137.84 403.88,137.83 			"/>
		</g>
		<g>
			<path class="st0" d="M382.53,174.24c0.25,0.08,0.49,0.2,0.74,0.44L382.53,174.24z"/>
		</g>
		<g>
			<path class="st0" d="M379.32,174.23c-0.18,0.08-0.28,0.16-0.36,0.22C378.99,174.33,379.1,174.28,379.32,174.23z"/>
		</g>
		<g>
			<path class="st0" d="M383.39,172.72l-0.14,0.32C383.25,172.9,383.29,172.78,383.39,172.72z"/>
		</g>
		<g>
			<path class="st0" d="M394.64,154.56c0.52,0,1,0,1.34-0.02C395.95,155.29,395.18,154.76,394.64,154.56z"/>
		</g>
		<g>
			<path class="st0" d="M367.39,176.37l0.32,0.34C367.49,176.65,367.3,176.57,367.39,176.37z"/>
		</g>
		<g>
			<path class="st0" d="M372.96,170.03c0.22,0.15,0.36,0.28,0.45,0.4c-0.05,0-0.09,0.02-0.15,0.01L372.96,170.03z"/>
		</g>
		<g>
			<path class="st0" d="M383.46,171.08c-0.01-0.02-0.02-0.03-0.03-0.05l0.39-0.05C383.81,171.16,383.69,171.19,383.46,171.08z"/>
		</g>
		<g>
			<path class="st0" d="M365.28,178.18c-0.28-0.05-0.6-0.15-1-0.32C364.6,177.77,365.02,177.93,365.28,178.18z"/>
		</g>
		<g>
			<path class="st0" d="M378.93,174.49c-0.01,0-0.01-0.01-0.02-0.01c0.01-0.01,0.03-0.02,0.04-0.03
				C378.95,174.47,378.94,174.47,378.93,174.49z"/>
		</g>
		<g>
			<path class="st0" d="M375.03,168.1c-0.15,0.07-0.28,0.15-0.45,0.21C374.6,168.09,374.81,168.05,375.03,168.1z"/>
		</g>
		<g>
			<path class="st0" d="M394.64,154.56c-0.15,0-0.29,0-0.44,0C394.29,154.46,394.45,154.49,394.64,154.56z"/>
		</g>
		<g>
			<path class="st0" d="M404.28,140.64c-0.16,0.21-0.45,0.06-0.74-0.11C403.75,140.51,403.99,140.53,404.28,140.64z"/>
		</g>
		<g>
			<path class="st0" d="M348.22,219.52l-0.07,0.08C348.16,219.55,348.19,219.53,348.22,219.52z"/>
		</g>
		<g>
			<path class="st0" d="M355.01,211.76c0.11,0.02,0.23,0.04,0.38,0.1C355.44,212,355.24,211.92,355.01,211.76z"/>
		</g>
		<g>
			<path class="st0" d="M351.36,197.67c0.15,0.93-1.36,0.72-1.75,1.17l0.58,0.16l-0.73,0.21l0.67,0.46
				c-0.87,0.59-0.88,2.06-2.14,1.62l1.13,0.65l-1.44,0.26l1.06,0.01c-0.44,1.11-2.29,1.99-2.42,2.2l0.46,0.19
				c0.1,0.3-0.25,0.24-0.49,0.32l0.68,0.29c-1.16,1.33-0.09,2.66-1.83,3.84c-0.16,0.54,0.36-0.11,0.7,0.11
				c0.31,0.56-0.53,0.82-0.88,0.76c1.02,0.51,1.2-0.36,1.6,0.67c-0.71,0.05,1.04,0.34,0.41,0.86l-1.37-0.57
				c-0.04,0.5,0.89,0.71,0.38,1.2c-0.96,0.29-0.82-1.73-1.7-0.8c-0.28,0.58,2.02,3,0.69,3.57c0.03,1.3,2.18,0.81,1.05,1.81
				l1.31-0.24c0.2,0.43,0.89,0.71,0.28,1.06c-0.58-0.15-1.4-0.23-1.65,0.01c1.68-0.51,0.69,1.92,2.59,1.67l-0.31,0.36
				c0.08-0.02,0.2,0.05,0.28,0.14l-0.27,0.58c0.48-0.14,1.11-0.83,1.75,0.12l-0.29,0.9c0.8,0.25,0.89,0.71,1.46,1.03l2.79-1.34
				c-0.46-0.19-0.94-0.04-1.26-0.44c0.05-0.83,1.05,0.01,0.88-0.92l-0.69-0.11c0.23,0.09,0.35,0.06,0.33,0.23
				c0.21,0.43-0.25,0.24-0.58,0.01c-0.54-0.65,0.29-0.91,0.87-0.75c0.4-0.78-1.11-0.97-1.21-1.27c1.38,0.4,0.79-1.22,1.62-1.31
				l-0.92-0.21c-0.51-1.15,0.55-1.14,1.03-1.28l-0.68-0.29c0.64-0.68-1.11-2.44,1.4-1.56l-0.45-0.19c0.03-0.44-0.09-1.22,0.75-1.08
				c-0.24-0.18-0.52-0.45-0.51-0.62c0.94,0.4,0.54-0.35,0.71-0.92c-0.42,0.16-1.41-0.67-1.89-0.53c-0.59-1.46,1.63,0.17,2.03-0.44
				c-0.29-0.73-0.81-0.09-1.27-0.28c1.21-0.52-1.13-3.59,1.39-2.69l0.4,0.86c0.71-0.05,0.84-0.25,0.62-0.34
				c-0.01,0.17-0.24,0.07-0.47-0.03c-0.32-1.86,2.75-0.64,3.1-2.05c-0.45-0.2-0.69-0.13-1.03-0.35c-0.05-0.8,2.39,0.94,2.16-0.46
				l-0.57-0.16c-0.08-0.47,0.72-0.21,0.83-0.07c-1.77-1.28,1.32-1.68-0.61-3.9c1.27,0.29,2.84-0.32,2.56-1.06
				c-0.71-1.26-1.5-0.39-2.36-1.29c0.27-0.4,1.41,0.09,1.48-0.74c1,0.7,1.18,2.59,2.54,1.89l-0.42-0.53
				c-0.01,0.17,0.08,0.47-0.17,0.53c-0.81-0.1-0.53-0.67-0.74-0.93l1.15-0.97c1.12,0.67,0.36,1.2,0.58,1.46
				c0.45-1.1-0.29-3.33,1.04-3.71l-0.45-0.2c1.69-0.47-1.46-2.03,0.87-1.7c0.06-0.66-1.24-0.63-0.81-1.4
				c0.14-0.2,0.45,0.2,0.56,0.33c1-0.6-0.72-1.1,0.82-1.2l-1.24-0.63c1.46-0.4,4.12,0.01,4.24-1.16c-0.89-0.57-1.18,0-1.97-0.27
				c2.35,0,2.14-2.53,3.72-2.95c0.5,0.84,2.04,0.75,2.17,1.85c-1.23-0.64-0.73,0.2-1.11,0.46c2.82,1.19,0.57-3.23,2.78-1.88
				l-0.74-0.78c0.24-0.06,1.18,0.01,1.24,0.48l0.28-1.53c-0.94-0.08-3.03-0.34-2.3,0.61c-1.14-0.34-0.26-0.91-1.51-1.38
				c1.97,0.29-0.26-0.91,0.63-1.46c0.97,1.26,2.25,0.45,2.81,0.93c-0.04-0.42,0.95-0.57,1.53-0.48c0.45-0.37,0.22-2.14,1.19-2.54
				c-0.59-0.01-1.42,0.04-2.17-0.57c0.71-0.02,0.99-0.42,0.13-1.17c-2.6,0.03,1.79,1.96-0.13,2.3c-1.24-0.49-1.73-0.36-2.47,0
				c-0.4-0.71-0.74-0.78-1.38-1.42c2.73,0.9,1.6-1.72,3.39-1.86c0.94,0.08,2.09,1.4,3,0.69l0.09,1.27c0.03-1.3,0.79,0.28,1.56-0.23
				l-0.92-0.25c0.18-0.53,0.42-0.59,1.12-0.45l-1.37-0.46c0.04-0.33,0.22-0.86,0.87-0.38c-0.22-0.26-0.42-0.44-0.61-0.58
				c0.22,0.09,0.41,0.07,0.58-0.23c-0.24,0.06-0.26,0.23-0.59-0.01c1.03-0.83-1-1.13-0.42-1.69c-0.33-0.09-0.51-0.51-0.47-0.84
				c1.71,1.31,2.88,0.22,4.09,0.6l-0.03-0.02l1.34-0.33c-0.27,0.07-0.6-0.47-0.59-0.86l-0.02,0.05c-0.06-0.47-2.11-1.09-1-1.53
				l0.83-0.05c-0.12,0.03-0.33-0.24-0.43-0.38l0.8-0.09c-1.09-1.89,1.87-0.59,1.69-1.98c-0.04,0.33-0.42,0.59-0.83,0.04
				c-0.08-0.3,0.29-0.39,0.63-0.32l-0.22-0.11l2.21-0.7c-0.67-0.32-1.36,0.49-1.72-0.38c-0.61-0.82,0.55-0.62,0.82-0.85
				c0.42,0.38,0.44,1.18,1.07,0.87c-0.17-0.23-0.27-1.07-0.77-1.09c0.86-0.16,1.71-0.7,2.87-0.55c-0.08-0.3-0.45-0.21-0.57-0.18
				l0.1,0.14c-0.49,0.12-1.19-0.84-1.19,0.13c-1.52-1.09,0.27-1.2,0.47-1.89l-1.66,0.08c-0.92-3.01,2.78-3.26,3.91-4.65
				c0.14,0.77-0.57,0.78,0.62,1.63c1.24-0.45,0.9-0.53,1.81-1.23l-0.12,0.03c-0.24-0.91,1.38-0.65,0.58-1.75
				c-0.79-0.3,0.09,1.11-1.2,0.12l0.96-1.03c-1.03-0.25-0.96,1.03-1.47,1.31c-0.17,0.36,0.65-0.48,1.38,0.32
				c-0.84,1-1.85,0.6-3.45,0.18c-1.13-0.38-0.55-1.16-0.41-1.36c1.84,0.37,3.2-0.12,3.41-1.61l-0.53-1.32
				c1.28,0.18,2.84,1.75,3.34,0.67l-0.91-0.27c-0.11-0.41-0.1-0.62-0.02-0.71c-0.83-0.02-1.76-0.06-2.59-0.13
				c-1.07-1.68,1.91-0.93,2.81-1.46c-0.22-0.11-0.49,0.11-0.93-0.1c0.55-1.42,3.25-1.23,4.18-1.93c-0.35-0.88-1.01,0.39-1.82-0.55
				c0.74-0.17,0.31-1.36,1.3-0.78c-1.42-0.8,0.75-1.14-1.13-1.19c0.77-2.11,3.4-3.02,5.46-4.12c-0.44-0.22-0.76-0.48-0.96-0.75
				c-0.44,0.58-1.47,1.13-2.6,0.74c-0.34-0.89,1.57-0.19,1.28-0.61c-0.46-0.06-0.76,0.33-1.4-0.17c-0.32-1.06,0.91-0.52,1.3-0.77
				l0.17,0.44c1.72-0.38,2.67,1.18,3.23-0.23c-0.44-1.03-0.63-0.5-1.59-1.26c0.59,0.03,0.25-1.66,1.48-1.13l-0.47,0.75
				c0.65-0.27,1.02-0.72,1.61-0.78c-0.23-0.13-0.46-0.27-0.63-0.24c0.61-0.13,0.93-0.68,1.72-0.37L403.7,139
				c0.26,0.59-0.21,1.33-0.86,0.99c-0.83-0.78,0.28-1.02,0.45-1.38c-1.35,1.1-2.95-0.16-3.2,1.5l0.46,0.06
				c0.2,1.32-1.64,1.02-2.11,1.66c-0.07-0.34-0.41-0.67-0.65-0.73c-0.3,2-1.98,2.85-2.73,4.8l-1.38-0.33l0.74,0.64
				c-0.27,1.03-1.21-0.69-1.52-0.14c0.14-0.19,0.24-0.06,0.47,0.06c-1.57,0.2,0.32,1.06-0.32,1.36c1.01,0.41,1.05-0.72,1.96,0.36
				c-1.57,0.19-2.18,1.95-4.12,0.62c-0.55,2.23-3.31,3.36-4.56,4.63c0.18,0.44,0.35,0.08,0.55,0.35c-1.5-0.29-0.68,2.43-1.65,1.69
				c0.06,0.47,0.68,1.13,0.88,1.4c-0.73,0-1.29,0.24-1.77,0.59l0.52-0.12l0.1,0.14l-0.74,0.18l-0.05-0.06
				c-1.14,0.9-1.9,2.38-3.72,2.6c1.08-0.1,1.05,1.04,1.64,1.05c-1.93-0.66-2.91,0.56-3.53,1.68c0.33,0.24,0.52,0.52,0.87,0.59
				l-1.08,0.1l0.44,0.22c-0.51,1.26-3.09,1.11-2.89,2.35c0.51-0.29,0.83-0.05,1.38,0.3c-0.61,0.72-1.16,1.42-2.29,1.94
				c0.13,0.02,0.26,0.08,0.38,0.16c-0.04,0.33-0.63,0.32-0.99,0.42l0.75,0.62c-0.7,0.18-0.73,1.06-1.76,1.13
				c0.7,0.85-1.76,0.71-1.87,1.59c-0.37,0.1,1.28,0.15,0.74,0.78c-1.76-1.17-0.69,0.83-2.55-0.47l0.23,1.08l-1-0.55
				c1.34,1.76-1.32,0.19-1.33,1.33c0.23,0.11,0.35,0.07,0.45,0.21c-0.37,0.1-0.89,0.56-1.04-0.21c-0.28,0.4-1.7,1.43-0.29,1.54
				c-0.55-0.34,0.3-0.56,0.66-0.66c0.76,0.61,0.01,0.97,0.75,1.75c-0.1-0.04-0.29-0.07-0.46-0.1l0.42,0.44
				c-1.41,0.1-1.34,1.31-2.85,1.03c0.22,0.21,0.31,0.48,0.07,0.69l-0.99-0.71l-0.56,0.81l1.7,0.68c-0.35,1.07-2.42,0.5-3.18,1.03
				c1.51,1.38-1.64,0.94-0.63,2.62l0.85-0.23c-1.16,0.97-0.31,1.88-1.68,2.59c0.13-1.34,0.46-1.11,0.11-3.46
				c-0.31,1.88-2.65,1.71-2.61,3.67c0.45,0.2,0.94,0.06,1.11,0.66c-1.03-0.37-0.83,1.21-1.69,0.31c0.05,0.64,0.93,1.37,0.89,1.71
				l-2.16,0.45l0.23,0.1c0.69,3.89-4.55,3.09-5.16,6.06l0.56,0.33l-1.18,0.02c0.83-0.08,0.53,0.66,0.97,1.02l-2.18,0.64
				C350.2,197.51,351.32,198.17,351.36,197.67z M365.45,179.01l0.32-0.29c0-0.1,0.04-0.18,0.2-0.18l-0.2,0.18
				C365.77,178.99,366.09,179.42,365.45,179.01z M390.74,149.63c0.57,0.19-0.05,0.33-0.07,0.5l0.54-0.45
				C391.01,149.41,390.87,149.61,390.74,149.63z M371.8,183.64l0.52,0.67l-0.69-0.14L371.8,183.64z M368.36,188.46l0.73-0.2
				l0.1,0.14l-0.72,0.2L368.36,188.46z M359.18,189.97c0.06,0,0.11-0.01,0.2,0C359.33,189.98,359.26,189.98,359.18,189.97
				c-0.74,0.03,0.34,1.03-1.03,0.51C357.43,189.4,358.62,189.89,359.18,189.97z M365.3,181.49c0.25-0.07,0.37-0.1,0.38-0.27
				c-0.45-0.2-1.27-0.3-1.23-0.64c0.57,0.17,1.09-0.3,1.75,0.17C365.15,180.72,366.74,182.4,365.3,181.49z M374.08,170.55
				l-0.02,0.17l0.83-0.06L374.08,170.55z M376.27,169.01c1.02,0.39,1.34-0.34,1.85-0.63c-0.63-0.65-1.79-0.84-2.09-0.28
				C374.94,168.21,376.96,169.16,376.27,169.01z M363.88,186.11l0.67,0.3l-0.01,0.17l0.72-0.2c0.35,1.21-1.47,0.57-1.96,0.7
				C363.58,186.85,365.55,187.12,363.88,186.11z M379.95,165c0.83-0.05,2.05-0.35,2.58,0.17c-1.07-0.86-2.05-0.62-2.2-0.43
				C380.31,164.91,380.19,164.94,379.95,165z M382,166.6c-0.97,0.24-1.52-0.1-2.91-0.4c0-0.97,1.55-0.07,2.07,0.45
				c0.83-0.05,0.06-0.5,0.1-0.83L382,166.6z M378.42,164.9l-0.04,0.37c0.23,0.65,1.43,1.66-0.14,1.13l0.14-1.13
				C378.32,165.12,378.32,164.99,378.42,164.9z M382.5,159.69l-0.57-0.03C382.16,159.44,382.35,159.53,382.5,159.69l0.48,0.03
				C382.95,160.59,382.79,160.01,382.5,159.69z M379.73,163.92l-0.67,0.66C379.6,164.93,379.68,164.26,379.73,163.92z
				 M383.35,160.61c-0.17,0.37-0.64,1.29-0.62,1.12C382.2,161.21,382.88,160.56,383.35,160.61z M397.48,145.67l-0.42,0.41
				l-0.59-0.83L397.48,145.67z M393.8,151.5l-0.29-0.42l0.27-0.22L393.8,151.5z M389.96,156.51c-0.15-0.15-0.37-0.31-0.58-0.4
				c-0.13,0.02-0.28,0.01-0.46-0.08c0.05-0.07,0.24-0.02,0.46,0.08c0.33-0.06,0.46-0.44,0.34-0.75c-0.44-0.22-0.61,0.15-0.96,0.07
				c-0.55-1.17,2.97-0.06,0.13-1.81c0.46,0.05,1.67-0.07,1.94,0.51C390.27,154.53,389.78,155.74,389.96,156.51
				c0.12,0.13,0.2,0.26,0.15,0.37C390.03,156.78,389.99,156.65,389.96,156.51z M385.32,163.68c-0.21,0.14-0.35,0.16-0.47,0.13
				c-0.32,0.01-0.71-0.09-1.03-0.41c0.62-0.15,0.73,0.33,1.03,0.41C385.04,163.8,385.22,163.76,385.32,163.68z M384.56,164.99
				l0.97-0.24l-0.81-0.13l1.79-0.11C386.63,165.46,385.33,165.45,384.56,164.99z M384.9,165.6l-0.73-0.35l0.79,0.3L384.9,165.6
				l0.17,0.08l-1.16,0.77L384.9,165.6z M375.53,175.36c1.89,2.03,2.25,0.23,3.46,0.82c-0.7-0.59-1.54-1.84-2.28-0.8
				c-0.07-1.44,1.83,0.5,0.4-1.4c-0.18,0.53-1.13,0.62-1.25,0.64l0.3-0.56C374.58,173.34,376.24,175.34,375.53,175.36z
				 M371.84,181.03l-0.54,0.63l0.65-0.49L371.84,181.03z M360.52,197.97c0.56,0.33,0.9,1.87-0.24,1.37
				C360.45,198.8,360.84,198.36,360.52,197.97z M355.34,205.01l0.98-0.45c1.1,0.99-0.52,0.64-0.56,1.15
				C355.07,205.42,355.66,205.41,355.34,205.01z M351.89,209.96l-0.36,0.11l1.37,0.57L351.89,209.96z M353.71,210.72
				c0.43,0.52,1.04,0.18,1.06,0.01L353.71,210.72z M351.69,215.91l0.14-0.37l-1.26-0.44L351.69,215.91z M350.79,214.55
				c0.81,0.45,1.82,1.19,1.81,0.1c-0.78-0.58-0.91-0.38-1.67-1.3c-0.36,0.11-0.16,0.54-0.17,0.71c0.24-0.07,0.04-0.5,0.6-0.18
				C351.48,214.36,351.19,214.57,350.79,214.55c-0.29-0.16-0.56-0.28-0.74-0.27C350.29,214.44,350.56,214.53,350.79,214.55z
				 M351.77,211.32c-0.03-0.16-0.08-0.32-0.19-0.45l0.23,0.09C352.1,211.3,351.96,211.33,351.77,211.32
				c0.03,0.18,0.04,0.36,0.04,0.55c0.62,0.55,1.43,0.36,1.9,0.49c-0.36,0.1-1.16-0.15-0.97,0.45c0.23,0.1,0.34,0.23,0.46,0.02
				l-0.15,0.54c-1.29-0.15-1.25-0.83-1.24-1.51c-0.14-0.12-0.27-0.26-0.38-0.47C351.39,211.26,351.6,211.31,351.77,211.32z
				 M347.85,213.79l0.36-0.11c0.35,0.06,0.56,0.32,0.79,0.41C348.75,214.34,348.04,214.4,347.85,213.79z M357.58,199.3
				c0.09,0.3,1.13,0.49,1.18-0.01l0.86,0.89c-0.67-0.46-1.09,0.31-1.21,0.35C357.41,200,357.99,200,357.58,199.3z M369.41,182.82
				c1.33,0.78,1.24-0.66,1.71-0.62C371.06,182.86,370.57,184.13,369.41,182.82z M370.05,180.89c0.2-0.23,0.13-0.39,0.73,0.09
				c0.35,0.07,0.16-0.36,0.5-0.29C371.48,181.57,370.51,180.81,370.05,180.89c-0.05,0.06-0.11,0.13-0.22,0.19
				C369.86,180.95,369.95,180.91,370.05,180.89z M362.99,190.43l-1.15-0.33l-0.29,0.57L362.99,190.43z M357.39,194.78
				c0.56,0.33,0.15,0.93-0.2,0.87c0.72,0.45,0.91,0,1.21-0.27c0.09,0,0.17-0.04,0.24-0.14c-0.09,0.03-0.17,0.08-0.24,0.14
				c-0.25,0-0.54-0.33-0.79-0.51l-0.09-0.3l-0.5,0.3L357.39,194.78z M349.77,204.04c0.29,0.73,0.07,0.64-0.29,0.74
				C349.26,204.51,349.4,204.14,349.77,204.04z M358.89,191.42c-0.08,0.84,1.25,0.46,1.31,1.1l0.15-0.36
				c0.37,1.03-1.04-0.2-1.09,0.3l0.03-0.34c-0.53-0.66-0.71,0.04-1.27-0.29C357.95,191.35,358.92,191.08,358.89,191.42z
				 M348.92,204.29c0.27,1.07-1.06-0.01-1.44,0.26C347.2,203.65,348.42,204.6,348.92,204.29z M354.19,193.73l-0.1-0.13l-0.73,0.21
				l0.11,0.13L354.19,193.73z"/>
		</g>
		<g>
			<path class="st0" d="M355.42,209.89c-0.02,0.21-0.1,0.29-0.2,0.33C355.25,210.1,355.31,209.98,355.42,209.89z"/>
		</g>
		<g>
			<path class="st0" d="M375.77,182.92c-0.17-0.14-0.22-0.26-0.23-0.37C375.63,182.63,375.71,182.74,375.77,182.92z"/>
		</g>
		<g>
			<path class="st0" d="M377.03,182.1c0.02-0.01,0.02-0.03,0.04-0.04c0.03,0,0.06,0.01,0.09,0.01L377.03,182.1z"/>
		</g>
		<g>
			<path class="st0" d="M404.84,141.64c1,0.42-0.05,0.33-0.2,0.52C404.79,141.97,404.28,141.44,404.84,141.64z"/>
		</g>
		<g>
			<path class="st0" d="M402.29,142.03c0.33,0.08,0.62,0.05,0.85-0.09C403.06,142.09,402.87,142.16,402.29,142.03z"/>
		</g>
		<g>
			<path class="st0" d="M403.62,141.1c-0.07,0.43-0.24,0.7-0.48,0.85C403.25,141.73,403.08,141.32,403.62,141.1z"/>
		</g>
		<g>
			<path class="st0" d="M399.29,146.23c0.69,0.17,0.79-0.5,0.79-0.5c-0.32,1.36,1.1,0.56,1.55,0.78
				C400.96,146.98,400.32,146.48,399.29,146.23z"/>
		</g>
		<g>
			<path class="st0" d="M398,147.33c0.08-0.11,0.13-0.22,0.12-0.35C398.17,147.18,398.1,147.27,398,147.33z"/>
		</g>
		<g>
			<path class="st0" d="M398.19,148.09c-0.39,0.25-1.05-0.09-1.62-0.28c-0.08-0.74,1.03-0.28,1.42-0.48
				C397.82,147.58,397.57,147.77,398.19,148.09z"/>
		</g>
		<g>
			<path class="st0" d="M392.66,160.79c0.12-0.03,0.27-0.22,0.59,0.02l-0.43,0.59C392.45,161.48,392.64,160.95,392.66,160.79z"/>
		</g>
		<g>
			<path class="st0" d="M389.47,161.71c-0.41,0.42,0.61,0.82,0.24,0.91l-1.07-0.87L389.47,161.71z"/>
		</g>
		<g>
			<path class="st0" d="M384.15,157.18l0.21-0.05c-0.05,0.04-0.1,0.08-0.16,0.13L384.15,157.18z"/>
		</g>
		<g>
			<path class="st0" d="M388.84,164.76l1.46,0.62C389.69,165.52,388.72,164.78,388.84,164.76z"/>
		</g>
		<g>
			<polygon class="st0" points="388.31,167.14 388.9,167.16 387.88,167.73 			"/>
		</g>
		<g>
			<polygon class="st0" points="386.1,168.81 386.3,169.08 385.55,169.43 			"/>
		</g>
		<g>
			<path class="st0" d="M367.73,191.4c-1.11-0.67,0.01-1.3-0.07-1.77C368.84,190.77,366.67,190.07,367.73,191.4z"/>
		</g>
		<g>
			<path class="st0" d="M355.51,208.72l0.88-0.74C356.32,208.97,356.26,208.17,355.51,208.72z"/>
		</g>
	</g>
	<g>
		<g>
			<path class="st0" d="M430.9,214.09c-0.02,0.07-0.01,0.15-0.02,0.22C430.74,214.19,430.71,214.12,430.9,214.09z"/>
		</g>
		<g>
			<path class="st0" d="M431.64,216.44c-0.35-0.51-0.88-1.32-0.76-2.13C431.31,214.68,432.84,215.45,431.64,216.44z"/>
		</g>
		<g>
			<path class="st0" d="M432.94,212.62l0.03,0.9C432.37,213.37,433.03,213.04,432.94,212.62z"/>
		</g>
		<g>
			<polygon class="st0" points="431.88,213.65 431.38,213.92 431.62,213.28 			"/>
		</g>
		<g>
			<path class="st0" d="M404.69,185.08c-0.15,0.21-0.33,0.42-0.62,0.6L404.69,185.08z"/>
		</g>
		<g>
			<path class="st0" d="M405.64,182.12c-0.03-0.18-0.06-0.29-0.1-0.38C405.64,181.79,405.65,181.9,405.64,182.12z"/>
		</g>
		<g>
			<path class="st0" d="M405.85,186.21l-0.25-0.2C405.72,186.04,405.82,186.1,405.85,186.21z"/>
		</g>
		<g>
			<path class="st0" d="M419.19,200.69c-0.17,0.48-0.31,0.92-0.4,1.23C418.1,201.71,418.83,201.14,419.19,200.69z"/>
		</g>
		<g>
			<path class="st0" d="M407.06,170.55l-0.4,0.23C406.76,170.58,406.89,170.42,407.06,170.55z"/>
		</g>
		<g>
			<path class="st0" d="M411.38,177.11c-0.2,0.17-0.37,0.27-0.5,0.34c0.01-0.05,0.01-0.09,0.03-0.14L411.38,177.11z"/>
		</g>
		<g>
			<path class="st0" d="M407.34,186.63c0.02-0.01,0.03-0.01,0.05-0.02l-0.07,0.38C407.16,186.94,407.17,186.82,407.34,186.63z"/>
		</g>
		<g>
			<path class="st0" d="M405.96,168.19c0.13-0.25,0.3-0.53,0.58-0.87C406.53,167.63,406.26,168,405.96,168.19z"/>
		</g>
		<g>
			<path class="st0" d="M405.51,181.7c0-0.01,0.01-0.01,0.01-0.02c0.01,0.01,0.01,0.04,0.01,0.05
				C405.53,181.72,405.53,181.71,405.51,181.7z"/>
		</g>
		<g>
			<path class="st0" d="M412.58,179.46c-0.02-0.16-0.06-0.29-0.06-0.47C412.71,179.06,412.69,179.26,412.58,179.46z"/>
		</g>
		<g>
			<path class="st0" d="M419.19,200.69c0.05-0.13,0.09-0.26,0.14-0.4C419.39,200.39,419.31,200.53,419.19,200.69z"/>
		</g>
		<g>
			<path class="st0" d="M428.91,212.92c-0.14-0.2,0.1-0.43,0.35-0.65C429.21,212.47,429.1,212.68,428.91,212.92z"/>
		</g>
		<g>
			<path class="st0" d="M371.78,144.49l-0.06-0.08C371.77,144.42,371.78,144.45,371.78,144.49z"/>
		</g>
		<g>
			<path class="st0" d="M377.35,152.18c-0.04,0.1-0.1,0.21-0.18,0.34C377.02,152.54,377.15,152.37,377.35,152.18z"/>
		</g>
		<g>
			<path class="st0" d="M391.43,151.25c-0.91-0.03-0.33-1.42-0.65-1.87l-0.29,0.52l-0.02-0.72l-0.6,0.55
				c-0.33-0.93-1.71-1.2-0.98-2.32l-0.89,0.95l0.11-1.41l-0.28,1c-0.93-0.62-1.29-2.53-1.46-2.69l-0.29,0.4
				c-0.3,0.04-0.16-0.28-0.17-0.52l-0.43,0.59c-0.97-1.33-2.47-0.55-3.15-2.4c-0.46-0.25,0.02,0.36-0.28,0.65
				c-0.6,0.19-0.64-0.65-0.5-0.97c-0.73,0.88,0.05,1.2-1.01,1.4c0.13-0.68-0.57,0.92-0.9,0.24l0.86-1.2
				c-0.46-0.12-0.88,0.72-1.22,0.16c-0.04-0.96,1.81-0.48,1.16-1.48c-0.48-0.36-3.29,1.41-3.51,0.05c-1.22-0.19-1.28,1.93-1.94,0.69
				l-0.09,1.28c-0.45,0.12-0.88,0.72-1.06,0.09c0.28-0.52,0.55-1.28,0.38-1.56c0.08,1.68-1.96,0.34-2.18,2.18l-0.26-0.35
				c0,0.08-0.09,0.19-0.19,0.24l-0.47-0.35c0.02,0.48,0.51,1.19-0.54,1.64l-0.77-0.42c-0.43,0.72-0.88,0.73-1.31,1.21l0.57,2.85
				c0.28-0.4,0.27-0.88,0.71-1.12c0.76,0.18-0.26,0.99,0.64,0.97l0.28-0.64c-0.14,0.2-0.14,0.32-0.29,0.28
				c-0.45,0.13-0.16-0.27,0.13-0.55c0.74-0.41,0.77,0.42,0.49,0.94c0.62,0.51,1.18-0.89,1.48-0.93c-0.71,1.24,0.95,0.94,0.82,1.74
				l0.43-0.84c1.2-0.29,0.93,0.71,0.94,1.19l0.44-0.6c0.48,0.71,2.55-0.64,1.1,1.59l0.29-0.39c0.4,0.1,1.16,0.12,0.82,0.89
				c0.23-0.2,0.55-0.41,0.71-0.37c-0.6,0.81,0.2,0.57,0.68,0.82c-0.04-0.43,0.98-1.22,0.96-1.69c1.51-0.31-0.56,1.5-0.1,1.99
				c0.75-0.15,0.29-0.75,0.58-1.15c0.18,1.23,3.63-0.43,2.16,1.78l-0.91,0.22c-0.14,0.68,0.02,0.84,0.16,0.64
				c-0.15-0.04,0-0.24,0.15-0.43c1.82,0.03-0.1,2.7,1.12,3.28c0.3-0.39,0.3-0.63,0.59-0.9c0.76,0.09-1.49,2.08-0.13,2.11l0.3-0.51
				c0.46,0.01,0,0.72-0.15,0.79c1.65-1.44,1.22,1.54,3.79,0.14c-0.6,1.14-0.44,2.73,0.32,2.59c1.36-0.43,0.76-1.33,1.82-1.98
				c0.3,0.33-0.46,1.31,0.3,1.53c-0.91,0.8-2.72,0.62-2.43,2.03l0.61-0.3c-0.15-0.04-0.45-0.01-0.45-0.25
				c0.31-0.75,0.76-0.37,1.06-0.52l0.6,1.26c-0.92,0.92-1.21,0.11-1.51,0.27c0.9,0.62,3.18,0.36,3.17,1.67l0.31-0.39
				c-0.01,1.67,2.29-0.98,1.35,1.14c0.6,0.19,0.92-1.04,1.52-0.49c0.15,0.17-0.31,0.38-0.46,0.46c0.29,1.05,1.22-0.46,0.9,1
				l0.92-1.03c-0.02,1.44-1.13,3.85-0.07,4.19c0.78-0.72,0.33-1.1,0.79-1.79c-0.64,2.19,1.76,2.51,1.72,4.06
				c-0.92,0.3-1.27,1.75-2.32,1.65c0.94-1.02,0.02-0.72-0.12-1.12c-1.9,2.39,2.84,1.17,0.96,2.96l0.93-0.54
				c-0.01,0.24-0.34,1.09-0.8,1.06l1.34,0.57c0.34-0.86,1.17-2.76,0.09-2.27c0.64-0.99,0.91-0.06,1.71-1.12
				c-0.82,1.78,0.91-0.06,1.18,0.89c-1.44,0.65-1.06,2-1.66,2.43c0.4,0.05,0.26,1,0.01,1.52c0.21,0.49,1.92,0.65,2.02,1.62
				c0.18-0.54,0.36-1.32,1.15-1.9c-0.18,0.66,0.11,1,1.05,0.36c0.71-2.42-2.33,1.26-2.1-0.6c0.8-1.06,0.83-1.53,0.7-2.3
				c0.77-0.22,0.94-0.53,1.71-0.99c-1.61,2.36,1.15,1.85,0.77,3.54c-0.34,0.85-1.9,1.65-1.5,2.64l-1.2-0.18
				c1.19,0.3-0.49,0.68-0.23,1.5l0.5-0.8c0.44,0.28,0.43,0.52,0.09,1.13l0.82-1.17c0.3,0.1,0.74,0.38,0.1,0.89
				c0.3-0.15,0.53-0.3,0.71-0.44c-0.15,0.18-0.18,0.37,0.04,0.59c0.01-0.24-0.14-0.29,0.18-0.54c0.47,1.13,1.34-0.69,1.69-0.03
				c0.18-0.29,0.62-0.36,0.91-0.26c-1.71,1.31-1.04,2.63-1.75,3.66l0.02-0.02l-0.09,1.31c0.02-0.27,0.61-0.45,0.97-0.36l-0.04-0.03
				c0.46,0.05,1.63-1.72,1.71-0.59l-0.2,0.78c0.01-0.12,0.32-0.25,0.48-0.31l-0.16,0.76c2.07-0.6-0.01,1.86,1.33,1.99
				c-0.3-0.11-0.42-0.52,0.21-0.78c0.3-0.01,0.28,0.35,0.11,0.65l0.16-0.18l-0.01,2.2c0.5-0.55-0.05-1.37,0.87-1.51
				c0.94-0.38,0.41,0.65,0.54,0.94c-0.48,0.31-1.23,0.14-1.12,0.8c0.27-0.11,1.07-0.02,1.24-0.47c-0.11,0.83,0.13,1.74-0.36,2.77
				c0.3-0.01,0.33-0.37,0.34-0.48l-0.16,0.06c0.04-0.48,1.14-0.91,0.24-1.13c1.46-1.16,1.03,0.51,1.61,0.86l0.43-1.55
				c3.07-0.18,2.17,3.3,3.11,4.67c-0.76-0.05-0.55-0.71-1.69,0.19c0.04,1.24,0.22,0.95,0.58,1.95l0.01-0.12
				c0.92-0.01,0.17,1.42,1.44,0.94c0.52-0.65-1.05-0.17,0.26-1.13l0.65,1.13c0.55-0.89-0.65-1.13-0.76-1.66
				c-0.28-0.24,0.24,0.71-0.72,1.19c-0.67-1.01,0.02-1.84,0.9-3.22c0.7-0.96,1.24-0.24,1.38-0.06c-0.91,1.61-0.88,2.97,0.43,3.51
				l1.39-0.17c-0.57,1.13-2.51,2.2-1.66,2.91l0.54-0.77c0.42-0.01,0.6,0.05,0.66,0.15c0.28-0.76,0.61-1.6,0.93-2.35
				c1.89-0.58,0.26,1.98,0.47,2.93c0.17-0.18,0.05-0.47,0.39-0.83c1.15,0.84,0.11,3.28,0.45,4.3c0.92-0.11-0.04-1.02,1.08-1.54
				c-0.08,0.72,1.15,0.62,0.31,1.38c1.19-1.11,0.81,0.97,1.46-0.75c1.71,1.22,1.7,3.86,2.04,6.02c0.35-0.35,0.69-0.58,1-0.69
				c-0.39-0.55-0.56-1.63,0.16-2.57c0.93-0.09-0.33,1.49,0.14,1.32c0.2-0.41-0.06-0.78,0.61-1.24c1.08-0.03,0.19,0.96,0.29,1.39
				l-0.46,0.05c-0.21,1.67-1.95,2.15-0.84,3.02c1.09-0.14,0.67-0.45,1.68-1.13c-0.22,0.53,1.46,0.64,0.56,1.63l-0.53-0.62
				c0.03,0.66,0.33,1.11,0.19,1.67c0.2-0.18,0.4-0.35,0.42-0.51c-0.08,0.59,0.32,1.03-0.23,1.66l1.16-0.61
				c-0.63,0.09-1.16-0.53-0.63-1.04c0.99-0.56,0.85,0.51,1.12,0.76c-0.56-1.52,1.12-2.66-0.33-3.31l-0.21,0.41
				c-1.28-0.15-0.41-1.76-0.85-2.35c0.34,0.02,0.75-0.21,0.88-0.41c-1.75-0.78-1.99-2.54-3.55-3.7l0.74-1.18l-0.82,0.52
				c-0.87-0.5,1.02-0.94,0.61-1.37c0.13,0.18-0.03,0.24-0.2,0.41c0.32-1.49-1.08,0.03-1.16-0.62c-0.7,0.82,0.33,1.15-0.95,1.72
				c0.32-1.49-1.1-2.48,0.73-3.95c-1.9-1.05-2.08-3.86-2.87-5.32c-0.47,0.06-0.18,0.3-0.5,0.42c0.73-1.32-2.05-1.2-1.06-1.92
				c-0.46-0.06-1.26,0.36-1.57,0.48c0.23-0.68,0.17-1.25-0.01-1.77l-0.04,0.51l-0.16,0.06l0.06-0.72l0.07-0.03
				c-0.48-1.27-1.63-2.31-1.29-4.05c-0.23,1.02-1.28,0.73-1.47,1.28c1.19-1.63,0.35-2.83-0.51-3.66c-0.32,0.25-0.63,0.37-0.81,0.67
				l0.23-1.02l-0.33,0.36c-1.03-0.76-0.12-3.12-1.34-3.21c0.12,0.54-0.2,0.78-0.69,1.22c-0.49-0.73-0.97-1.4-1.13-2.57
				c-0.06,0.12-0.15,0.23-0.26,0.32c-0.3-0.11-0.11-0.66-0.1-1.02l-0.79,0.56c0.03-0.69-0.78-0.91-0.55-1.88
				c-0.99,0.47-0.15-1.8-0.95-2.09c0.02-0.36-0.51,1.16-0.94,0.52c1.59-1.39-0.57-0.82,1.17-2.28l-1.07-0.02l0.79-0.82
				c-2.02,0.87,0.2-1.27-0.87-1.53c-0.16,0.19-0.17,0.31-0.32,0.38c0.01-0.36-0.27-0.95,0.49-0.93c-0.29-0.35-0.86-1.89-1.36-0.6
				c0.47-0.45,0.44,0.4,0.43,0.76c-0.78,0.58-0.91-0.19-1.84,0.34c0.07-0.08,0.14-0.26,0.23-0.41l-0.53,0.3
				c0.3-1.34-0.84-1.54-0.17-2.89c-0.26,0.16-0.53,0.19-0.67-0.08l0.94-0.78l-0.6-0.69l-1.1,1.45c-0.91-0.55,0.2-2.36-0.09-3.19
				c-1.7,1.13-0.43-1.73-2.27-1.13l-0.01,0.84c-0.59-1.29-1.68-0.67-1.96-2.09c1.22,0.39,0.91,0.66,3.2,0.8
				c-1.68-0.67-0.89-2.84-2.73-3.2c-0.31,0.39-0.31,0.87-0.92,0.92c0.62-0.89-0.91-1.02,0.16-1.65c-0.61-0.08-1.53,0.6-1.83,0.5
				l0.15-2.12l-0.15,0.19c-3.82-0.1-1.7-4.89-4.34-6.03l-0.45,0.47l0.29-1.12c-0.14,0.8-0.76,0.38-1.21,0.72l-0.04-2.18
				C391.87,150.18,390.97,151.12,391.43,151.25z M405.14,168.18l0.18,0.36c0.1,0.02,0.16,0.07,0.12,0.23l-0.12-0.23
				C405.06,168.48,404.57,168.69,405.14,168.18z M424.96,198.28c-0.35,0.48-0.3-0.12-0.44-0.18l0.25,0.6
				C425.09,198.59,424.95,198.4,424.96,198.28z M399.06,173.16l-0.77,0.35l0.32-0.62L399.06,173.16z M395.53,168.99l-0.01,0.72
				l-0.16,0.07l0.02-0.71L395.53,168.99z M396.6,160.08c-0.01,0.06-0.02,0.1-0.05,0.19C396.55,160.22,396.57,160.16,396.6,160.08
				c0.17-0.7-1.05,0.12-0.2-1.07C397.6,158.55,396.82,159.58,396.6,160.08z M402.86,167.53c-0.01,0.24-0.01,0.36,0.14,0.41
				c0.31-0.38,0.63-1.12,0.94-1.02c-0.32,0.5-0.02,1.08-0.65,1.6C403.62,167.54,401.61,168.69,402.86,167.53z M410.58,178.04
				l-0.15-0.06l-0.19,0.79L410.58,178.04z M411.37,180.41c-0.66,0.86-0.08,1.32,0.04,1.86c0.79-0.44,1.31-1.48,0.87-1.89
				C412.5,179.35,411.03,181.02,411.37,180.41z M398.94,165.26l-0.47,0.57l-0.15-0.05l-0.01,0.72c-1.22,0.09-0.13-1.49-0.13-1.97
				C398.34,164.83,397.55,166.63,398.94,165.26z M414.01,184.72c-0.2,0.78-0.29,1.98-0.93,2.35c1.12-0.8,1.19-1.76,1.05-1.94
				C413.99,185.07,414,184.95,414.01,184.72z M411.93,186.26c0.06-0.96,0.55-1.38,1.23-2.6c0.9,0.22-0.39,1.45-1.03,1.82
				c-0.2,0.78,0.45,0.17,0.75,0.28L411.93,186.26z M414.56,183.32l-0.33-0.12c-0.67,0.07-1.96,0.95-1.01-0.38l1.01,0.38
				C414.38,183.18,414.5,183.21,414.56,183.32z M418.18,188.29l0.2-0.52C418.52,188.03,418.37,188.18,418.18,188.29l-0.18,0.44
				C417.21,188.5,417.8,188.49,418.18,188.29z M415.08,184.75l-0.41-0.77C414.18,184.41,414.78,184.63,415.08,184.75z
				 M417.08,188.86c-0.29-0.24-1.01-0.88-0.86-0.83C416.86,187.67,417.26,188.44,417.08,188.86z M426.49,205.44l-0.25-0.48
				l0.96-0.34L426.49,205.44z M422.28,200.64l0.48-0.17l0.12,0.3L422.28,200.64z M418.85,195.92c0.19-0.1,0.4-0.27,0.55-0.44
				c0.02-0.12,0.07-0.26,0.22-0.41c0.05,0.06-0.05,0.23-0.22,0.41c-0.04,0.32,0.26,0.53,0.59,0.49c0.34-0.36,0.05-0.6,0.23-0.9
				c1.25-0.24-0.87,2.76,1.63,0.55c-0.19,0.42-0.46,1.56-1.08,1.67C420.58,196.68,419.62,195.93,418.85,195.92
				c-0.16,0.08-0.3,0.12-0.38,0.05C418.58,195.92,418.71,195.91,418.85,195.92z M413.63,189.99c-0.07-0.23-0.04-0.36,0.02-0.46
				c0.08-0.3,0.29-0.64,0.69-0.86c-0.05,0.61-0.52,0.6-0.69,0.86C413.6,189.71,413.58,189.87,413.63,189.99z M412.64,188.99
				l-0.07,0.95l0.36-0.72l-0.44,1.68C411.59,190.8,411.99,189.6,412.64,188.99z M411.98,189.17l0.54-0.59l-0.51,0.67L411.98,189.17
				l-0.12,0.13l-0.36-1.25L411.98,189.17z M405.69,178.35c-2.43,1.33-0.86,2.04-1.76,3.04c0.75-0.52,2.15-1.04,1.4-1.95
				c1.36,0.24-1,1.6,1.18,0.67c-0.44-0.28-0.24-1.19-0.24-1.3l0.43,0.4C407.83,177.9,405.5,179.02,405.69,178.35z M401.47,173.73
				l-0.43-0.63l0.28,0.7L401.47,173.73z M388.79,159.82c-0.45,0.46-1.97,0.5-1.22-0.47C388.03,159.6,388.34,160.05,388.79,159.82z
				 M383.56,153.67l0.17,1c-1.2,0.86-0.47-0.61-0.93-0.73C383.24,153.34,383.1,153.9,383.56,153.67z M379.81,149.55l-0.01-0.36
				l-0.87,1.19L379.81,149.55z M378.64,151.14c-0.6,0.32-0.43,0.95-0.27,1L378.64,151.14z M374.31,148.36l0.31,0.19l0.72-1.12
				L374.31,148.36z M375.8,147.73c-0.62,0.69-1.55,1.52-0.54,1.7c0.73-0.64,0.58-0.8,1.62-1.36c-0.01-0.36-0.46-0.24-0.62-0.28
				c0.01,0.24,0.46,0.12,0.02,0.6C375.81,148.41,375.68,148.1,375.8,147.73c0.22-0.25,0.4-0.48,0.43-0.66
				C376.02,147.28,375.87,147.51,375.8,147.73z M378.57,149.21c0.16,0,0.32-0.02,0.47-0.1l-0.15,0.2
				C378.5,149.52,378.51,149.38,378.57,149.21c-0.17,0-0.35-0.03-0.52-0.06c-0.66,0.49-0.69,1.28-0.93,1.7
				c-0.01-0.35,0.42-1.07-0.18-0.99c-0.14,0.2-0.3,0.28-0.14,0.43l-0.46-0.23c0.46-1.19,1.08-1.04,1.71-0.91
				c0.14-0.11,0.31-0.21,0.53-0.28C378.72,148.85,378.62,149.04,378.57,149.21z M377.22,145.08l0.01,0.36
				c-0.14,0.32-0.44,0.48-0.58,0.68C376.49,145.84,376.61,145.16,377.22,145.08z M388.31,156.82c-0.3,0.03-0.75,0.98-0.3,1.11
				l-1.06,0.65c0.6-0.54-0.01-1.08-0.01-1.2C387.7,156.52,387.55,157.07,388.31,156.82z M400.49,171.1c-1.1,1.09,0.27,1.29,0.1,1.72
				C399.99,172.62,398.94,171.91,400.49,171.1z M402.1,172.08c0.16,0.23,0.32,0.2-0.29,0.67c-0.17,0.31,0.29,0.22,0.13,0.53
				C401.07,173.28,402.05,172.54,402.1,172.08c-0.04-0.06-0.09-0.13-0.11-0.24C402.1,171.9,402.11,171.99,402.1,172.08z
				 M395.16,163.57l0.62-1.02l-0.45-0.38L395.16,163.57z M392.58,157.48c-0.46,0.46-0.91-0.04-0.76-0.35
				c-0.61,0.59-0.23,0.86-0.07,1.19c-0.02,0.08-0.01,0.17,0.07,0.25c0-0.09-0.03-0.17-0.07-0.25c0.06-0.23,0.45-0.45,0.68-0.64
				l0.3-0.03l-0.15-0.53L392.58,157.48z M385.87,148.58c-0.76,0.15-0.61-0.05-0.62-0.41C385.55,148.01,385.86,148.22,385.87,148.58z
				 M395.33,159.53c-0.76-0.24-0.76,1.09-1.37,1.02l0.3,0.21c-1.06,0.15,0.46-0.94,0-1.08l0.31,0.1c0.76-0.37,0.15-0.68,0.61-1.14
				C395.63,158.66,395.63,159.63,395.33,159.53z M385.85,147.74c-1.07,0.06,0.28-1.01,0.11-1.41
				C386.87,146.22,385.68,147.21,385.85,147.74z M394.39,154.66l0.15-0.07l-0.01-0.72l-0.15,0.08L394.39,154.66z"/>
		</g>
		<g>
			<path class="st0" d="M378.99,152.89c-0.19-0.05-0.25-0.14-0.26-0.25C378.84,152.69,378.94,152.77,378.99,152.89z"/>
		</g>
		<g>
			<path class="st0" d="M398.61,177c0.18-0.13,0.31-0.15,0.41-0.14C398.92,176.94,398.79,176.99,398.61,177z"/>
		</g>
		<g>
			<path class="st0" d="M399.01,178.34c0.01,0.02,0.02,0.03,0.03,0.04l-0.03,0.08L399.01,178.34z"/>
		</g>
		<g>
			<path class="st0" d="M427.8,213.18c-0.72,0.81-0.29-0.13-0.41-0.32C427.52,213.05,428.18,212.72,427.8,213.18z"/>
		</g>
		<g>
			<path class="st0" d="M428.28,210.75c-0.18,0.28-0.25,0.55-0.2,0.8C427.98,211.45,427.98,211.25,428.28,210.75z"/>
		</g>
		<g>
			<path class="st0" d="M428.7,212.2c-0.37-0.17-0.57-0.4-0.62-0.65C428.25,211.71,428.68,211.65,428.7,212.2z"/>
		</g>
		<g>
			<path class="st0" d="M425.39,206.97c-0.38,0.59,0.2,0.84,0.2,0.84c-1.14-0.63-0.87,0.87-1.22,1.22
				C424.15,208.31,424.82,207.85,425.39,206.97z"/>
		</g>
		<g>
			<path class="st0" d="M424.79,205.51c0.07,0.09,0.16,0.18,0.29,0.2C424.88,205.7,424.81,205.62,424.79,205.51z"/>
		</g>
		<g>
			<path class="st0" d="M424.03,205.51c-0.1-0.42,0.42-0.94,0.77-1.41c0.71,0.11-0.07,1.02-0.01,1.42
				C424.62,205.28,424.52,205.01,424.03,205.51z"/>
		</g>
		<g>
			<path class="st0" d="M414.06,197.42c-0.01,0.12,0.12,0.3-0.2,0.54l-0.41-0.53C413.49,197.07,413.91,197.36,414.06,197.42z"/>
		</g>
		<g>
			<path class="st0" d="M414.2,194.27c-0.26-0.47-0.94,0.37-0.91,0.01l1.13-0.79L414.2,194.27z"/>
		</g>
		<g>
			<path class="st0" d="M420.01,190.4l-0.02,0.21c-0.02-0.06-0.04-0.12-0.07-0.18L420.01,190.4z"/>
		</g>
		<g>
			<path class="st0" d="M411.57,193l-1.01,1.21C410.6,193.61,411.58,192.88,411.57,193z"/>
		</g>
		<g>
			<polygon class="st0" points="409.52,191.98 409.33,192.51 409.11,191.45 			"/>
		</g>
		<g>
			<polygon class="st0" points="408.65,189.56 408.34,189.69 408.24,188.92 			"/>
		</g>
		<g>
			<path class="st0" d="M392.97,167.82c0.92-0.91,1.21,0.26,1.66,0.28C393.25,168.99,394.5,167.1,392.97,167.82z"/>
		</g>
		<g>
			<path class="st0" d="M380.06,153.18l0.47,0.96C379.62,153.89,380.38,153.98,380.06,153.18z"/>
		</g>
	</g>
	<g>
		<g>
			<path class="st0" d="M453.92,286.14c0.05,0.06,0.14,0.1,0.21,0.15C453.92,286.33,453.82,286.3,453.92,286.14z"/>
		</g>
		<g>
			<path class="st0" d="M456.83,287.03c-0.77-0.04-1.98-0.14-2.7-0.74C454.82,286.19,456.74,285.47,456.83,287.03z"/>
		</g>
		<g>
			<path class="st0" d="M453.98,283.63l0.92,0.54C454.31,284.54,454.47,283.82,453.98,283.63z"/>
		</g>
		<g>
			<polygon class="st0" points="454.22,285.1 454.12,285.66 453.66,285.07 			"/>
		</g>
		<g>
			<path class="st0" d="M405.29,289.48c0.1,0.24,0.17,0.51,0.12,0.86L405.29,289.48z"/>
		</g>
		<g>
			<path class="st0" d="M403.05,286.94c-0.2-0.09-0.34-0.13-0.46-0.15C402.72,286.75,402.84,286.8,403.05,286.94z"/>
		</g>
		<g>
			<path class="st0" d="M407.29,289.22l-0.39,0.08C407.03,289.22,407.16,289.18,407.29,289.22z"/>
		</g>
		<g>
			<path class="st0" d="M431.79,287.18c0.35,0.42,0.69,0.8,0.94,1.06C432.02,288.67,431.98,287.73,431.79,287.18z"/>
		</g>
		<g>
			<path class="st0" d="M392.7,278.84l-0.09,0.46C392.5,279.09,392.45,278.89,392.7,278.84z"/>
		</g>
		<g>
			<path class="st0" d="M402.4,279.34c0.01,0.26,0,0.46-0.04,0.6c-0.04-0.04-0.08-0.06-0.12-0.11L402.4,279.34z"/>
		</g>
		<g>
			<path class="st0" d="M408.84,288.28c0.01-0.02,0.01-0.03,0.02-0.05l0.32,0.28C409.01,288.6,408.9,288.52,408.84,288.28z"/>
		</g>
		<g>
			<path class="st0" d="M389.57,278.28c-0.14-0.25-0.28-0.57-0.41-0.99C389.46,277.49,389.61,277.93,389.57,278.28z"/>
		</g>
		<g>
			<path class="st0" d="M402.53,286.79c0-0.01,0-0.01,0-0.02c0.02,0,0.04,0.01,0.06,0.02C402.57,286.8,402.55,286.79,402.53,286.79z
				"/>
		</g>
		<g>
			<path class="st0" d="M405.62,279.79c-0.17-0.08-0.33-0.13-0.51-0.23C405.32,279.45,405.51,279.58,405.62,279.79z"/>
		</g>
		<g>
			<path class="st0" d="M431.79,287.18c-0.1-0.12-0.2-0.23-0.3-0.36C431.64,286.84,431.72,286.98,431.79,287.18z"/>
		</g>
		<g>
			<path class="st0" d="M451.28,286.96c-0.31-0.02-0.36-0.34-0.39-0.68C451.05,286.45,451.18,286.66,451.28,286.96z"/>
		</g>
		<g>
			<path class="st0" d="M339.41,288.69l-0.12-0.01C339.34,288.65,339.38,288.67,339.41,288.69z"/>
		</g>
		<g>
			<path class="st0" d="M351.32,289.99c0.06,0.1,0.11,0.22,0.16,0.36C351.37,290.48,351.32,290.27,351.32,289.99z"/>
		</g>
		<g>
			<path class="st0" d="M362.16,278.88c-0.76,0.67-1.57-0.68-2.24-0.74l0.23,0.56l-0.68-0.47l0.01,0.81
				c-1.12-0.37-2.5,0.48-2.91-0.81l0.14,1.3l-1.19-1.02l0.68,0.87c-1.33,0.29-3.35-0.72-3.63-0.72l0.12,0.48
				c-0.22,0.25-0.39-0.07-0.62-0.23l0.18,0.72c-2-0.2-2.55,1.43-4.79,0.67c-0.61,0.17,0.34,0.24,0.34,0.64
				c-0.34,0.57-1.12,0.03-1.28-0.3c0.17,1.13,1.12,0.79,0.4,1.69c-0.51-0.56,0.34,1.05-0.55,0.82l-0.34-1.45
				c-0.5,0.25-0.11,1.13-0.89,0.98c-0.89-0.64,1.11-1.63-0.33-1.86c-0.72,0.09-1.56,3.34-2.96,2.54c-1.23,0.74,0.61,2.26-1.07,1.88
				l1.07,0.96c-0.28,0.41-0.12,1.14-0.85,0.82c-0.22-0.56-0.67-1.29-1.06-1.37c1.57,1.12-1.41,1.64,0.04,3.08l-0.55-0.06
				c0.07,0.06,0.08,0.2,0.04,0.31l-0.73,0.09c0.45,0.32,1.52,0.47,1,1.53l-1.07,0.25c0.27,0.81-0.12,1.14-0.07,1.78l3.12,1.59
				c-0.12-0.49-0.57-0.8-0.39-1.29c0.84-0.42,0.67,0.88,1.47,0.22l-0.34-0.64c0.06,0.24,0.17,0.32,0,0.4
				c-0.28,0.41-0.4-0.07-0.39-0.48c0.29-0.81,1.07-0.26,1.3,0.31c1.02-0.09,0.22-1.46,0.45-1.71c0.51,1.37,1.7-0.02,2.32,0.62
				l-0.4-0.89c0.78-1.06,1.47-0.18,1.92,0.13l-0.17-0.73c1.08,0.14,1.61-2.3,2.43,0.27l-0.11-0.48c0.44-0.23,1.11-0.77,1.53,0
				c0.01-0.3,0.08-0.68,0.26-0.77c0.24,1,0.7,0.24,1.35,0.06c-0.43-0.26-0.3-1.55-0.75-1.86c1-1.32,0.92,1.44,1.76,1.42
				c0.5-0.66-0.45-0.72-0.58-1.2c1.3,0.71,2.65-2.99,3.48-0.42l-0.55,0.83c0.52,0.55,0.8,0.55,0.73,0.3
				c-0.17,0.08-0.22-0.16-0.28-0.4c1.55-1.34,2.45,1.87,4.02,1.34c-0.12-0.48-0.35-0.64-0.36-1.04c0.72-0.51,0.73,2.49,1.89,1.48
				l-0.24-0.56c0.39-0.34,0.68,0.46,0.63,0.63c0-2.19,2.48,0.07,3.25-2.79c0.59,1.19,2.24,2.11,2.73,1.44
				c0.7-1.32-0.66-1.43-0.41-2.66c0.56-0.02,0.88,1.19,1.71,0.75c0.04,1.22-1.62,2.5-0.03,3.16l0.21-0.66
				c-0.16,0.09-0.38,0.34-0.61,0.19c-0.47-0.71,0.26-0.82,0.36-1.15l1.7,0.34c0.15,1.29-0.87,1.01-0.97,1.34
				c1.34-0.3,2.91-2.23,4.17-1.39l-0.13-0.48c1.61,1.07,0.88-2.39,2.18-0.33c0.66-0.35-0.27-1.37,0.74-1.49
				c0.28-0.01,0.13,0.48,0.08,0.65c1.25,0.43,0.52-1.24,1.68-0.07l-0.27-1.37c1.38,0.91,2.86,3.28,4.02,2.67
				c-0.09-1.05-0.82-0.94-1.12-1.74c1.63,1.87,3.82,0.16,5.32,1.15c-0.42,0.91,0.74,2.08-0.18,2.85c-0.27-1.36-0.7-0.45-1.2-0.6
				c0.88,2.97,3.38-1.52,3.68,1.06l0.19-1.06c0.23,0.15,0.82,0.94,0.43,1.28l1.61-0.72c-0.59-0.79-1.83-2.6-2.18-1.45
				c-0.49-1.11,0.65-0.76,0.21-2.04c1.12,1.74,0.65-0.76,1.78-0.4c-0.48,1.54,1.16,2.05,1.13,2.79c0.36-0.29,1.19,0.4,1.52,0.92
				c0.65,0.13,2.12-1.13,3.17-0.62c-0.4-0.47-1.04-1.09-1.01-2.07c0.52,0.54,1.08,0.52,1.16-0.62c-1.86-2.03-0.54,2.62-2.2,1.31
				c-0.43-1.28-0.89-1.59-1.74-1.95c0.37-0.75,0.19-1.06,0.34-1.96c1.09,2.71,2.7,0.21,4.09,1.53c0.59,0.79,0.19,2.51,1.48,2.78
				l-1.1,0.85c1.21-0.78,0.3,0.8,1.31,1.08l-0.42-0.88c0.61-0.18,0.84-0.03,1.19,0.61l-0.54-1.36c0.33-0.17,0.94-0.36,0.96,0.45
				c0.08-0.33,0.11-0.6,0.1-0.83c0.07,0.23,0.23,0.37,0.62,0.32c-0.23-0.15-0.39-0.06-0.41-0.47c1.49,0.3,0.32-1.49,1.25-1.37
				c-0.15-0.31,0.11-0.71,0.43-0.89c0.01,2.15,1.84,2.41,2.33,3.6l-0.01-0.03l1.25,0.85c-0.25-0.17,0.01-0.76,0.37-0.99l-0.06,0.01
				c0.39-0.34-0.5-2.34,0.69-1.72l0.63,0.63c-0.11-0.08-0.01-0.41,0.05-0.57l0.65,0.58c0.96-2.02,1.86,1.12,3,0.12
				c-0.33,0.17-0.84,0.03-0.63-0.63c0.22-0.25,0.56-0.01,0.74,0.3l-0.06-0.24l2.2,1.31c-0.18-0.73-1.41-0.77-0.86-1.6
				c0.32-0.99,0.95,0.06,1.35,0.13c-0.05,0.57-0.77,1.07-0.04,1.38c0.09-0.28,0.78-0.87,0.45-1.27c0.75,0.58,1.84,0.93,2.51,1.94
				c0.21-0.25-0.12-0.48-0.23-0.56l-0.05,0.16c-0.45-0.31-0.07-1.46-0.96-0.87c-0.08-1.87,1.28-0.52,2.06-0.78l-1.24-1.27
				c2.1-2.57,4.93,0.22,7,0.29c-0.62,0.57-1.12,0.02-1.06,1.47c1.28,0.72,1.11,0.39,2.39,0.7l-0.11-0.08
				c0.67-0.74,1.56,0.71,2.01-0.59c-0.27-0.81-0.95,0.74-0.94-0.88l1.62,0.15c-0.49-0.97-1.62-0.15-2.23-0.38
				c-0.45,0.09,0.89,0.23,0.66,1.29c-1.51-0.07-1.84-1.12-2.57-2.65c-0.44-1.13,0.68-1.14,0.96-1.15c0.95,1.7,2.34,2.48,3.85,1.76
				l0.85-1.21c0.72,1.14,0.35,3.33,1.7,3.08l-0.38-0.89c0.3-0.34,0.5-0.45,0.64-0.44c-0.56-0.68-1.16-1.45-1.67-2.16
				c0.81-1.86,2.18,0.98,3.29,1.39c-0.05-0.24-0.44-0.32-0.55-0.81c1.7-0.41,3.38,1.88,4.66,2.24c0.58-0.8-1.05-0.59-0.74-1.8
				c0.66,0.5,1.47-0.54,1.61,0.6c-0.23-1.62,1.57-0.05,0.33-1.62c1.24-0.3,2.53-0.05,3.81,0.39c1.28,0.47,2.54,1.15,3.75,1.68
				c-0.09-0.49-0.07-0.89,0.06-1.22c-0.84-0.03-2.05-0.56-2.46-1.71c0.6-0.79,1.25,1.18,1.44,0.7c-0.26-0.41-0.82-0.44-0.79-1.24
				c0.77-0.87,1.11,0.44,1.61,0.63l-0.3,0.39c1.52,1.19,0.71,2.86,2.4,2.52c0.67-0.95,0.05-0.81,0.11-2.02
				c0.36,0.5,1.73-0.76,2.05,0.57l-1.02,0.03c0.69,0.38,1.36,0.44,1.82,0.89c-0.03-0.27-0.05-0.54-0.2-0.65
				c0.54,0.43,1.27,0.39,1.49,1.22l0.26-1.29c-0.38,0.55-1.39,0.57-1.51-0.16c0.18-1.13,1.15-0.34,1.6-0.4
				c-1.94-0.51-1.83-2.55-3.56-1.81l0.26,0.42c-1.1,0.92-2.07-0.76-2.99-0.78c0.27-0.25,0.35-0.72,0.25-0.95
				c-2.08,0.9-4.03,0-6.36,0.54l-0.64-1.31l-0.08,0.97c-1.15,0.38-0.19-1.38-0.92-1.32c0.28,0.01,0.22,0.17,0.27,0.41
				c-1.27-1.16-0.76,0.88-1.49,0.54c0.31,1.06,1.4,0.43,1.02,1.8c-1.26-1.16-3.31-0.63-3.43-2.98c-2.46,0.89-5.43-0.67-7.47-0.91
				c-0.29,0.41,0.17,0.32,0.06,0.65c-0.79-1.37-2.72,0.92-2.72-0.3c-0.39,0.33-0.57,1.22-0.68,1.55c-0.51-0.59-1.13-0.88-1.78-1.06
				l0.48,0.34l-0.05,0.16l-0.68-0.48l0.03-0.07c-1.64-0.38-3.52-0.06-5.01-1.37c0.85,0.79-0.22,1.46,0.19,1.94
				c-0.75-1.93-2.57-1.98-4.03-1.78c0.01,0.41-0.1,0.73,0.07,1.05l-0.85-0.79l0.12,0.48c-1.52,0.37-3.19-1.77-4.19-0.84
				c0.62,0.22,0.63,0.63,0.7,1.28c-1.09-0.04-2.12-0.06-3.4-0.62c0.07,0.12,0.12,0.25,0.12,0.4c-0.33,0.17-0.74-0.3-1.08-0.53
				l-0.03,0.97c-0.66-0.44-1.49,0.07-2.27-0.69c-0.29,1.07-1.89-0.96-2.77-0.5c-0.35-0.23,0.76,1.1-0.2,1.06
				c-0.17-2.11-1.24-0.03-1.36-2.3l-0.82,0.84l-0.21-1.13c-0.67,2.14-1.1-0.93-2.14-0.24c0.06,0.24,0.18,0.32,0.12,0.48
				c-0.35-0.23-1.14-0.36-0.54-0.95c-0.56,0.02-2.49-0.46-1.61,0.72c-0.08-0.65,0.72-0.11,1.07,0.12c-0.03,0.97-0.88,0.61-1.07,1.67
				c-0.03-0.11-0.14-0.27-0.23-0.43l-0.11,0.6c-1.08-1.05-2.14-0.25-2.93-1.62c-0.04,0.3-0.22,0.54-0.58,0.48l-0.04-1.22l-1.12,0.05
				l0.56,1.76c-1.22,0.38-2.13-1.61-3.15-1.89c-0.22,2.04-1.99-0.72-2.83,1.1l0.8,0.53c-1.69-0.33-1.94,0.9-3.52,0.23
				c1.32-0.71,1.34-0.3,3.24-2c-1.93,0.89-3.39-1.07-5.16,0.14c0.13,0.48,0.58,0.78,0.16,1.29c-0.37-1.04-1.68,0.07-1.44-1.16
				c-0.54,0.43-0.62,1.57-0.95,1.74l-1.89-1.46l0.06,0.24c-3.11,2.89-5.93-1.79-9.06-0.54l0.07,0.65l-0.8-0.94
				c0.63,0.63-0.26,0.82-0.3,1.39l-2.04-1.39C361.53,277.84,361.66,279.14,362.16,278.88z M388.93,278.92l0.48,0.08
				c0.1-0.06,0.2-0.08,0.31,0.05l-0.31-0.05C389.17,279.16,389,279.68,388.93,278.92z M433.65,281.12c0.22,0.57-0.34,0.16-0.51,0.24
				l0.79,0.17C434.05,281.2,433.76,281.2,433.65,281.12z M389.12,286.78l-0.25,0.82l-0.36-0.63L389.12,286.78z M382.28,286.99
				l0.69,0.46l-0.05,0.17l-0.69-0.46L382.28,286.99z M374.55,280.59c0.04,0.05,0.08,0.08,0.13,0.16
				C374.64,280.72,374.59,280.66,374.55,280.59c-0.54-0.58-0.72,0.89-1.17-0.52C373.88,278.85,374.24,280.1,374.55,280.59z
				 M386.56,280.32c0.23,0.15,0.35,0.23,0.51,0.14c-0.13-0.48-0.6-1.19-0.27-1.37c0.25,0.56,1.03,0.68,1.06,1.49
				C387.16,279.72,386.73,282.01,386.56,280.32z M402.71,280.55l-0.17,0.09l0.64,0.62L402.71,280.55z M405.66,281.33
				c0.36,1.04,1.26,0.85,1.88,1.07c0.15-0.9-0.49-1.93-1.22-1.83C405.45,279.79,406.01,281.96,405.66,281.33z M381.34,282.01
				l0.19,0.72l-0.16,0.09l0.69,0.46c-0.87,1.01-1.54-0.83-2-1.13C380.45,282.21,381.57,283.94,381.34,282.01z M411.92,281.78
				c0.63,0.63,1.76,1.4,1.66,2.14c0.03-1.38-0.87-2-1.16-1.99C412.26,282.01,412.15,281.94,411.92,281.78z M411.91,284.38
				c-0.91-0.62-0.98-1.27-1.68-2.55c0.89-0.59,1.15,1.18,1.05,1.91c0.63,0.63,0.5-0.26,0.83-0.43L411.91,284.38z M410.94,280.51
				l-0.37,0.19c-0.43,0.58-0.51,2.14-1.14,0.58l1.14-0.58C410.67,280.57,410.79,280.49,410.94,280.51z M418.59,280.57l-0.37-0.47
				C418.58,280.14,418.63,280.35,418.59,280.57l0.31,0.4C418.09,281.47,418.5,280.99,418.59,280.57z M412.75,280.95l-1.07-0.13
				C411.75,281.46,412.41,281.12,412.75,280.95z M418.35,281.79c-0.45,0.09-1.63,0.28-1.47,0.19
				C416.98,281.25,418.06,281.39,418.35,281.79z M441.97,284.25l-0.67-0.1l0.37-0.96L441.97,284.25z M434.03,284.68l0.18-0.48
				l0.39,0.08L434.03,284.68z M426.74,284.59c0.04-0.21,0.02-0.48-0.03-0.7c-0.11-0.09-0.2-0.21-0.25-0.42
				c0.1,0,0.19,0.18,0.25,0.42c0.29,0.22,0.73,0.11,0.93-0.19c-0.11-0.48-0.56-0.4-0.73-0.72c0.69-1.15,2.13,2.35,1.76-0.98
				c0.28,0.4,1.23,1.3,0.88,1.87C428.79,283.65,427.33,283.97,426.74,284.59c-0.04,0.18-0.1,0.31-0.23,0.34
				C426.55,284.8,426.64,284.69,426.74,284.59z M416.91,285.23c-0.28-0.08-0.39-0.18-0.45-0.29c-0.24-0.25-0.42-0.62-0.35-1.07
				c0.58,0.4,0.21,0.78,0.35,1.07C416.61,285.09,416.76,285.2,416.91,285.23z M415.18,285.43l0.9,0.63l-0.45-0.72l1.36,1.35
				C416.2,287.35,415.3,286.32,415.18,285.43z M414.86,286.07l-0.19-0.79l0.29,0.81L414.86,286.07l0.04,0.18l-1.52-0.45
				L414.86,286.07z M399.34,284.65c-0.52,2.74,1.38,1.92,1.69,3.23c0.05-0.92,0.6-2.35-0.88-2.29c1.27-0.94,0.83,1.76,1.56-0.54
				c-0.61,0.18-1.36-0.52-1.47-0.59l0.72-0.11C400.52,282.66,399.85,285.19,399.34,284.65z M391.55,285.21l-0.95-0.04l0.91,0.21
				L391.55,285.21z M368.06,286.45c0.08,0.64-1.13,1.83-1.44,0.62C367.23,286.88,367.91,286.94,368.06,286.45z M357.95,286.38
				l1.07,0.54c-0.19,1.47-0.96-0.05-1.46,0.21C357.39,286.4,357.78,286.88,357.95,286.38z M350.98,286.4l-0.34-0.24l0.36,1.45
				L350.98,286.4z M351.45,288.33c-0.22,0.65,0.52,0.96,0.69,0.88L351.45,288.33z M345.15,289.59l0.45-0.09l-0.4-1.29L345.15,289.59
				z M345.88,288.08c0.1,0.93,0.05,2.18,1.08,1.56c0.05-0.97-0.23-0.97,0.16-2.11c-0.34-0.24-0.62,0.18-0.79,0.26
				c0.23,0.16,0.5-0.25,0.56,0.4C346.51,288.56,346.11,288.43,345.88,288.08c-0.03-0.33-0.09-0.62-0.22-0.77
				C345.65,287.61,345.74,287.88,345.88,288.08z M349.61,287.07c0.14-0.12,0.25-0.24,0.31-0.41l0.06,0.24
				C349.84,287.33,349.72,287.23,349.61,287.07c-0.15,0.13-0.32,0.24-0.5,0.35c-0.12,0.82,0.59,1.38,0.77,1.84
				c-0.34-0.24-0.62-1.04-1.07-0.54c0.06,0.24,0,0.41,0.28,0.4l-0.62,0.18c-0.7-1.14-0.03-1.5,0.63-1.87
				c0.02-0.18,0.07-0.37,0.2-0.58C349.41,286.72,349.51,286.92,349.61,287.07z M344.69,285.22l0.33,0.24
				c0.17,0.32,0.06,0.65,0.12,0.89C344.75,286.27,344.24,285.71,344.69,285.22z M364.82,284.86c-0.22,0.25,0.31,1.21,0.81,0.95
				l-0.25,1.22c-0.02-0.81-1.03-0.69-1.14-0.77C364.04,285.13,364.44,285.61,364.82,284.86z M388.21,284.38
				c0.22,1.53,1.48,0.58,1.77,0.98C389.32,285.71,387.81,286.11,388.21,284.38z M390.42,283.71c0.35,0.01,0.45-0.14,0.43,0.64
				c0.18,0.32,0.45-0.1,0.62,0.22C390.8,285.26,390.82,284.03,390.42,283.71c-0.09,0-0.2-0.01-0.33-0.06
				C390.23,283.6,390.33,283.64,390.42,283.71z M376.74,283.91l-0.49-1.12l-0.72,0.11L376.74,283.91z M368.89,282.04
				c0.07,0.65-0.76,0.68-0.94,0.36c0.07,0.85,0.62,0.73,1.07,0.82c0.06,0.07,0.15,0.11,0.29,0.11c-0.09-0.06-0.19-0.09-0.29-0.11
				c-0.17-0.2-0.06-0.63-0.07-0.93l0.22-0.25l-0.62-0.22L368.89,282.04z M355.18,281.27c-0.49,0.67-0.55,0.43-0.89,0.19
				C354.39,281.14,354.84,281.04,355.18,281.27z M373.02,281.22c-0.83,0.44,0.43,1.28-0.12,1.71l0.44-0.1
				c-0.7,0.92-0.53-0.96-1.03-0.69l0.33-0.18c0.25-0.82-0.52-0.55-0.6-1.19C372.44,280.43,373.35,281.05,373.02,281.22z
				 M354.39,280.73c-0.83,0.83-0.68-0.88-1.19-1.03C353.86,278.96,353.77,280.5,354.39,280.73z M367.69,278.84l0.05-0.16l-0.68-0.46
				l-0.05,0.16L367.69,278.84z"/>
		</g>
		<g>
			<path class="st0" d="M353.38,289.27c-0.21,0.1-0.34,0.09-0.46,0.02C353.07,289.25,353.22,289.23,353.38,289.27z"/>
		</g>
		<g>
			<path class="st0" d="M392.58,289.47c0.01-0.22,0.08-0.34,0.18-0.41C392.75,289.18,392.71,289.32,392.58,289.47z"/>
		</g>
		<g>
			<path class="st0" d="M394.22,289.97c0.02,0.01,0.04,0,0.06,0c0.02,0.02,0.04,0.05,0.05,0.07L394.22,289.97z"/>
		</g>
		<g>
			<path class="st0" d="M450.72,287.99c0.27,1.07-0.35,0.14-0.62,0.13C450.37,288.13,450.53,287.41,450.72,287.99z"/>
		</g>
		<g>
			<path class="st0" d="M448.64,286.11c0.15,0.32,0.37,0.54,0.65,0.65C449.11,286.77,448.92,286.65,448.64,286.11z"/>
		</g>
		<g>
			<path class="st0" d="M450.4,286.67c-0.44,0.19-0.82,0.19-1.11,0.08C449.57,286.72,449.84,286.35,450.4,286.67z"/>
		</g>
		<g>
			<path class="st0" d="M442.69,286.05c0.31,0.66,0.99,0.36,0.99,0.36c-1.48,0.52,0.23,1.23,0.32,1.72
				C443.12,287.85,443.16,287.05,442.69,286.05z"/>
		</g>
		<g>
			<path class="st0" d="M440.79,285.64c0.15,0,0.29-0.02,0.41-0.11C441.05,285.69,440.91,285.69,440.79,285.64z"/>
		</g>
		<g>
			<path class="st0" d="M440.22,286.24c-0.5-0.17-0.64-0.9-0.85-1.47c0.63-0.5,0.97,0.67,1.42,0.87
				C440.43,285.64,440.08,285.55,440.22,286.24z"/>
		</g>
		<g>
			<path class="st0" d="M424.7,289.32c0.11,0.08,0.39,0.08,0.39,0.48l-0.84,0.01C423.92,289.57,424.53,289.4,424.7,289.32z"/>
		</g>
		<g>
			<path class="st0" d="M421.63,287.33c-0.67-0.07-0.33,0.98-0.67,0.74l0.05-1.38L421.63,287.33z"/>
		</g>
		<g>
			<path class="st0" d="M422.06,280.35l0.2,0.14c-0.08-0.02-0.15-0.03-0.23-0.05L422.06,280.35z"/>
		</g>
		<g>
			<path class="st0" d="M418.4,288.68l0.46,1.53C418.3,289.82,418.29,288.6,418.4,288.68z"/>
		</g>
		<g>
			<polygon class="st0" points="415.85,289.71 416.24,290.19 415.01,289.73 			"/>
		</g>
		<g>
			<polygon class="st0" points="412.77,288.97 412.66,289.3 411.81,288.92 			"/>
		</g>
		<g>
			<path class="st0" d="M379.13,288.27c-0.16-1.29,1.21-0.78,1.59-1.13C380.48,288.78,379.63,286.62,379.13,288.27z"/>
		</g>
		<g>
			<path class="st0" d="M354.56,288.67l1.3,0.29C354.85,289.48,355.57,288.97,354.56,288.67z"/>
		</g>
	</g>
	<g>
		<path class="st0" d="M174.47,329.89h8.59v44.71h18.13v7.41h-26.72V329.89z"/>
		<path class="st0" d="M239.88,375.18v6.83h-28.41v-52.12h27.9v6.83h-19.31v15.12h18.13v6.83h-18.13v16.52H239.88z"/>
		<path class="st0" d="M247.3,366.88l8.22-2.57c0.95,8.22,4.04,11.97,10.42,11.97c4.48,0,7.27-2.94,7.27-7.71
			c0-4.7-1.84-6.97-6.53-8.52l-6.83-2.13c-7.12-2.28-10.79-7.71-10.79-14.83c0-9.03,6.53-14.46,16.15-14.46
			c9.32,0,15.49,4.18,16.74,14.9l-7.78,2.72c-0.88-7.49-3.89-10.94-9.18-10.94c-4.62,0-7.34,2.79-7.34,7.05
			c0,3.89,2.06,6.61,6.39,8.08l6.97,2.35c7.49,2.5,11.01,7.34,11.01,15.2c0,9.1-5.95,15.27-16.3,15.27
			C254.78,383.25,248.62,377.75,247.3,366.88z M268,318.58h8l-7.27,8.07h-6.9L268,318.58z"/>
		<path class="st0" d="M293.25,329.89h9.69l16,32.23c1.17,2.42,1.91,4.85,2.57,8.08h0.15c-0.22-3.16-0.29-6.53-0.29-10.13v-30.17h8
			v52.12h-9.03l-16.52-33.33c-1.17-2.35-2.06-5.29-2.72-8.15h-0.15c0.15,2.79,0.29,5.95,0.29,9.4v32.08h-8V329.89z"/>
		<path class="st0" d="M367.25,368.21h-15.49l-3.6,13.8h-8.74l14.98-52.12h10.13l15.05,52.12h-8.74L367.25,368.21z M365.49,361.67
			l-4.62-17.62c-0.51-2.13-0.88-4.18-1.32-6.61h-0.15c-0.37,2.42-0.81,4.48-1.25,6.61l-4.62,17.62H365.49z"/>
		<path class="st0" d="M423.49,356.9l-5.8,8.74v16.37h-8.59v-52.12h8.59v25.25l16.52-25.25h9.69l-14.46,20.7l15.34,31.42h-9.62
			L423.49,356.9z"/>
		<path class="st0" d="M492.57,390.52c-1.03,4.26-3.82,6.31-8.08,6.31c-4.55,0-7.71-2.35-7.71-6.61c0-3.45,2.2-6.17,6.31-8.22
			l-3.6-13.8h-15.49l-3.6,13.8h-8.74l14.98-52.12h10.13l15.05,52.12H490c-5.29,1.69-7.71,4.62-7.71,7.63c0,1.76,0.95,2.72,2.57,2.72
			c1.54,0,2.42-1.1,3.01-3.16L492.57,390.52z M477.74,361.67l-4.62-17.62c-0.51-2.13-0.88-4.18-1.32-6.61h-0.15
			c-0.37,2.42-0.81,4.48-1.25,6.61l-4.62,17.62H477.74z"/>
		<path class="st0" d="M534.41,345.3c0,10.28-5.95,16.15-16,16.15h-7.85v20.55h-8.59v-52.12h16.3
			C528.47,329.89,534.41,335.76,534.41,345.3z M525.24,345.3c0-5.95-2.86-9.03-8.15-9.03h-6.53v18.72h6.61
			C522.3,354.99,525.24,351.69,525.24,345.3z"/>
		<path class="st0" d="M544.47,382.01v-52.12h8.59v52.12H544.47z"/>
		<path class="st0" d="M595.86,375.18v6.83h-28.41v-52.12h27.9v6.83h-19.31v15.12h18.13v6.83h-18.13v16.52H595.86z"/>
		<path class="st0" d="M607.75,329.89h8.59v44.71h18.13v7.41h-26.72V329.89z"/>
	</g>
	<g>
		<path class="st0" d="M261.5,438.32l1.4-0.1c0,5.45,2.6,7.45,6.45,7.45c3.6,0,5.6-2.05,5.6-5.55c0-2.8-1.25-4.6-4.55-5.7l-3.25-1.1
			c-3.55-1.2-5.1-3.15-5.1-6.55c0-3.95,2.55-6.15,6.75-6.15c4.25,0,7.2,1.85,7.2,8.05l-1.35,0.1c-0.25-5.7-2.4-7-5.9-7
			c-3.35,0-5.3,1.8-5.3,4.95c0,2.9,1.25,4.45,4.35,5.5l3.4,1.15c3.6,1.2,5.15,3.35,5.15,6.65c0,4.3-2.55,6.8-7,6.8
			C264.65,446.82,261.5,444.67,261.5,438.32z"/>
		<path class="st0" d="M284.45,446.22h-1.35v-36.25h1.35V446.22z"/>
		<path class="st0" d="M291.4,433.71c0-9.5,3.3-13.1,8.55-13.1c5.25,0,8.55,3.6,8.55,13.1c0,9.5-3.3,13.1-8.55,13.1
			C294.7,446.82,291.4,443.22,291.4,433.71z M307.1,433.71c0-8.8-2.9-11.9-7.15-11.9c-4.25,0-7.15,3.1-7.15,11.9s2.9,11.9,7.15,11.9
			C304.2,445.62,307.1,442.52,307.1,433.71z"/>
		<path class="st0" d="M312.15,421.21h1.35l4.75,20.2c0.15,0.85,0.4,2,0.55,3h0.1c0.15-1.05,0.4-2.05,0.6-3l5.05-20.2h1.35
			l5.05,20.2c0.2,0.95,0.45,1.95,0.6,3h0.1c0.1-1,0.4-2.15,0.55-3l4.75-20.2h1.35l-6,25h-1.4l-5.1-20.8
			c-0.2-0.75-0.35-1.65-0.55-2.6h-0.05c-0.2,0.95-0.35,1.85-0.55,2.6l-5.1,20.8h-1.4L312.15,421.21z"/>
		<path class="st0" d="M357,446.22h-1.35v-36.25H357V446.22z"/>
		<path class="st0" d="M365.59,411.31h1.45v5.75h-1.45V411.31z M365.64,421.21h1.35v25h-1.35V421.21z"/>
		<path class="st0" d="M383.84,422.36h-5.75v23.85h-1.3v-23.85h-4.2v-1.15h4.2v-5.7c0-3.75,1.8-5.85,5.25-5.85
			c0.7,0,1.3,0.1,1.8,0.25v1.15c-0.5-0.1-1-0.2-1.7-0.2c-2.8,0-4.05,1.5-4.05,4.75v5.6h5.75V422.36z"/>
		<path class="st0" d="M402.74,433.37h-14.75c0.05,9.6,3,12.25,7.05,12.25c3.5,0,6.1-2.5,6.35-7.5l1.25,0.15
			c-0.25,5.55-3.35,8.55-7.6,8.55c-5.4,0-8.4-3.85-8.4-13.1c0-9.9,3.1-13.1,8.15-13.1c4.85,0,7.95,3,7.95,11.55V433.37z
			 M401.39,432.26c0-7.75-2.4-10.5-6.6-10.5c-4.05,0-6.75,2.8-6.8,10.5H401.39z"/>
		<path class="st0" d="M419.59,433.71c0-9.15,3.35-13.1,8.6-13.1c4.35,0,7.2,3.1,7.5,8.9l-1.4,0.05c-0.35-5.2-2.65-7.75-6.2-7.75
			c-4.3,0-7.1,3.5-7.1,11.9c0,8.05,2.8,11.9,7.25,11.9c3.45,0,5.75-2.75,6.15-7.95l1.35,0.1c-0.45,5.95-3.25,9.05-7.45,9.05
			C422.79,446.82,419.59,442.42,419.59,433.71z"/>
		<path class="st0" d="M440.69,440.12c0-2,0.55-3.5,1.6-4.7c1.05-1.2,3.3-2.25,6.15-2.75l6.15-1.1v-2.55c0-5.1-1.55-7.2-5.7-7.2
			c-3.75,0-6.05,1.8-6.2,7.25h-1.4c0.05-5.75,3.1-8.45,7.6-8.45c4.85,0,7.05,2.25,7.05,8.05v9.1c0,3.4,0.1,6.15,0.5,8.45h-1.4
			c-0.2-1.6-0.35-3.6-0.35-5.7c-1.05,4-3.55,6.3-7.55,6.3C443.34,446.82,440.69,444.32,440.69,440.12z M454.59,436.52v-3.85
			l-6.1,1.1c-4.4,0.8-6.4,2.65-6.4,6.25c0,3.55,2.15,5.6,5.4,5.6C451.79,445.62,454.59,441.87,454.59,436.52z"/>
		<path class="st0" d="M465.39,440.27l-0.2,5.95h-1.1v-36.25h1.35v17.4c0.95-4.25,3.8-6.75,7.55-6.75c4.8,0,8,3.15,8,12.85
			c0,9.4-3.35,13.35-8.25,13.35C469.14,446.82,466.29,444.27,465.39,440.27z M479.59,433.46c0-8.65-2.4-11.65-6.8-11.65
			c-4.35,0-7.35,4.1-7.35,10v3.8c0,6.05,2.85,10,7.1,10C476.94,445.62,479.59,442.32,479.59,433.46z"/>
		<path class="st0" d="M487.74,411.31h1.45v5.75h-1.45V411.31z M487.79,421.21h1.35v25h-1.35V421.21z"/>
		<path class="st0" d="M497.64,421.21h1.3v6.05c0.9-4.3,3.5-6.65,7.35-6.65c4.6,0,6.9,2.85,6.9,8.55v17.05h-1.3v-17
			c0-4.9-2.05-7.4-5.85-7.4c-4.35,0-7.05,3.7-7.05,9.9v14.5h-1.35V421.21z"/>
		<path class="st0" d="M519.14,438.32l1.4-0.1c0,5.45,2.6,7.45,6.45,7.45c3.6,0,5.6-2.05,5.6-5.55c0-2.8-1.25-4.6-4.55-5.7
			l-3.25-1.1c-3.55-1.2-5.1-3.15-5.1-6.55c0-3.95,2.55-6.15,6.75-6.15c4.25,0,7.2,1.85,7.2,8.05l-1.35,0.1c-0.25-5.7-2.4-7-5.9-7
			c-3.35,0-5.3,1.8-5.3,4.95c0,2.9,1.25,4.45,4.35,5.5l3.4,1.15c3.6,1.2,5.15,3.35,5.15,6.65c0,4.3-2.55,6.8-7,6.8
			C522.29,446.82,519.14,444.67,519.14,438.32z"/>
	</g>
</g>
</svg>
